G75*
%MOIN*%
%OFA0B0*%
%FSLAX25Y25*%
%IPPOS*%
%LPD*%
%AMOC8*
5,1,8,0,0,1.08239X$1,22.5*
%
%ADD10C,0.00800*%
%ADD11C,0.00600*%
D10*
X0064486Y0186935D02*
X0064486Y0191072D01*
X0064486Y0189004D02*
X0062417Y0191072D01*
X0061383Y0191072D01*
X0066794Y0190038D02*
X0066794Y0189004D01*
X0070931Y0189004D01*
X0070931Y0187970D02*
X0070931Y0190038D01*
X0069897Y0191072D01*
X0067828Y0191072D01*
X0066794Y0190038D01*
X0067828Y0186935D02*
X0069897Y0186935D01*
X0070931Y0187970D01*
X0073160Y0186935D02*
X0075228Y0186935D01*
X0074194Y0186935D02*
X0074194Y0193141D01*
X0075228Y0193141D01*
X0077537Y0191072D02*
X0080639Y0191072D01*
X0081673Y0190038D01*
X0080639Y0189004D01*
X0078571Y0189004D01*
X0077537Y0187970D01*
X0078571Y0186935D01*
X0081673Y0186935D01*
X0083982Y0187970D02*
X0085016Y0189004D01*
X0087085Y0189004D01*
X0088119Y0190038D01*
X0087085Y0191072D01*
X0083982Y0191072D01*
X0083982Y0187970D02*
X0085016Y0186935D01*
X0088119Y0186935D01*
X0090428Y0186935D02*
X0090428Y0190038D01*
X0091462Y0191072D01*
X0093530Y0191072D01*
X0093530Y0189004D02*
X0090428Y0189004D01*
X0090428Y0186935D02*
X0093530Y0186935D01*
X0094564Y0187970D01*
X0093530Y0189004D01*
X0093530Y0193141D02*
X0093530Y0194175D01*
X0091462Y0194175D02*
X0091462Y0193141D01*
X0096873Y0193141D02*
X0101010Y0193141D01*
X0101010Y0186935D01*
X0101010Y0190038D02*
X0098942Y0190038D01*
X0109764Y0191072D02*
X0112867Y0191072D01*
X0113901Y0190038D01*
X0112867Y0189004D01*
X0110798Y0189004D01*
X0109764Y0187970D01*
X0110798Y0186935D01*
X0113901Y0186935D01*
X0116210Y0186935D02*
X0116210Y0190038D01*
X0117244Y0191072D01*
X0119312Y0191072D01*
X0119312Y0189004D02*
X0116210Y0189004D01*
X0116210Y0186935D02*
X0119312Y0186935D01*
X0120346Y0187970D01*
X0119312Y0189004D01*
X0122615Y0191072D02*
X0125718Y0189004D01*
X0122615Y0186935D01*
X0125718Y0186935D02*
X0125718Y0193141D01*
X0128026Y0191072D02*
X0128026Y0186935D01*
X0131129Y0186935D01*
X0132163Y0187970D01*
X0132163Y0191072D01*
X0134472Y0186935D02*
X0138609Y0186935D01*
X0138609Y0193141D01*
X0147363Y0190038D02*
X0151500Y0190038D01*
X0160254Y0190038D02*
X0160254Y0186935D01*
X0162322Y0186935D02*
X0162322Y0190038D01*
X0161288Y0191072D01*
X0160254Y0190038D01*
X0162322Y0190038D02*
X0163356Y0191072D01*
X0164391Y0191072D01*
X0164391Y0186935D01*
X0166699Y0187970D02*
X0166699Y0190038D01*
X0167734Y0191072D01*
X0169802Y0191072D01*
X0170836Y0190038D01*
X0170836Y0187970D01*
X0169802Y0186935D01*
X0167734Y0186935D01*
X0166699Y0187970D01*
X0173145Y0186935D02*
X0176247Y0186935D01*
X0177282Y0187970D01*
X0177282Y0190038D01*
X0176247Y0191072D01*
X0173145Y0191072D01*
X0179470Y0187970D02*
X0179470Y0186935D01*
X0180504Y0186935D01*
X0180504Y0187970D01*
X0179470Y0187970D01*
X0182813Y0186935D02*
X0185916Y0186935D01*
X0186950Y0187970D01*
X0186950Y0190038D01*
X0185916Y0191072D01*
X0182813Y0191072D01*
X0182813Y0193141D02*
X0182813Y0186935D01*
X0189219Y0191072D02*
X0190253Y0191072D01*
X0192321Y0189004D01*
X0192321Y0191072D02*
X0192321Y0186935D01*
X0194630Y0189004D02*
X0194630Y0190038D01*
X0195664Y0191072D01*
X0197732Y0191072D01*
X0198767Y0190038D01*
X0198767Y0187970D01*
X0197732Y0186935D01*
X0195664Y0186935D01*
X0194630Y0189004D02*
X0198767Y0189004D01*
X0201075Y0190038D02*
X0201075Y0186935D01*
X0201075Y0190038D02*
X0202110Y0191072D01*
X0205212Y0191072D01*
X0205212Y0186935D01*
X0207481Y0191072D02*
X0208515Y0191072D01*
X0210583Y0189004D01*
X0210583Y0191072D02*
X0210583Y0186935D01*
X0212892Y0189004D02*
X0212892Y0190038D01*
X0213926Y0191072D01*
X0215995Y0191072D01*
X0217029Y0190038D01*
X0217029Y0187970D01*
X0215995Y0186935D01*
X0213926Y0186935D01*
X0212892Y0189004D02*
X0217029Y0189004D01*
X0219338Y0191072D02*
X0222440Y0191072D01*
X0223474Y0190038D01*
X0223474Y0187970D01*
X0222440Y0186935D01*
X0219338Y0186935D01*
X0219338Y0193141D01*
X0226737Y0193141D02*
X0226737Y0186935D01*
X0227771Y0186935D02*
X0225703Y0186935D01*
X0230080Y0187970D02*
X0230080Y0190038D01*
X0231114Y0191072D01*
X0233183Y0191072D01*
X0234217Y0190038D01*
X0234217Y0187970D01*
X0233183Y0186935D01*
X0231114Y0186935D01*
X0230080Y0187970D01*
X0227771Y0193141D02*
X0226737Y0193141D01*
X0236526Y0191072D02*
X0239628Y0191072D01*
X0240662Y0190038D01*
X0239628Y0189004D01*
X0237560Y0189004D01*
X0236526Y0187970D01*
X0237560Y0186935D01*
X0240662Y0186935D01*
X0225623Y0202683D02*
X0225623Y0208889D01*
X0222520Y0208889D01*
X0221486Y0207855D01*
X0221486Y0205786D01*
X0222520Y0204752D01*
X0225623Y0204752D01*
X0223554Y0204752D02*
X0221486Y0202683D01*
X0219177Y0202683D02*
X0219177Y0208889D01*
X0216075Y0208889D01*
X0215041Y0207855D01*
X0215041Y0205786D01*
X0216075Y0204752D01*
X0219177Y0204752D01*
X0212732Y0202683D02*
X0212732Y0208889D01*
X0210663Y0206820D01*
X0208595Y0208889D01*
X0208595Y0202683D01*
X0199841Y0202683D02*
X0199841Y0208889D01*
X0197772Y0206820D01*
X0195704Y0208889D01*
X0195704Y0202683D01*
X0193395Y0203718D02*
X0193395Y0205786D01*
X0192361Y0206820D01*
X0190293Y0206820D01*
X0189259Y0205786D01*
X0189259Y0204752D01*
X0193395Y0204752D01*
X0193395Y0203718D02*
X0192361Y0202683D01*
X0190293Y0202683D01*
X0185916Y0203718D02*
X0184881Y0202683D01*
X0185916Y0203718D02*
X0185916Y0207855D01*
X0186950Y0206820D02*
X0184881Y0206820D01*
X0182653Y0205786D02*
X0182653Y0203718D01*
X0181619Y0202683D01*
X0179550Y0202683D01*
X0178516Y0204752D02*
X0182653Y0204752D01*
X0182653Y0205786D02*
X0181619Y0206820D01*
X0179550Y0206820D01*
X0178516Y0205786D01*
X0178516Y0204752D01*
X0176207Y0204752D02*
X0174139Y0206820D01*
X0173105Y0206820D01*
X0176207Y0206820D02*
X0176207Y0202683D01*
X0164391Y0205786D02*
X0160254Y0205786D01*
X0151500Y0204752D02*
X0148397Y0204752D01*
X0147363Y0205786D01*
X0147363Y0207855D01*
X0148397Y0208889D01*
X0151500Y0208889D01*
X0151500Y0202683D01*
X0149431Y0204752D02*
X0147363Y0202683D01*
X0145054Y0203718D02*
X0145054Y0205786D01*
X0144020Y0206820D01*
X0141952Y0206820D01*
X0140917Y0205786D01*
X0140917Y0204752D01*
X0145054Y0204752D01*
X0145054Y0203718D02*
X0144020Y0202683D01*
X0141952Y0202683D01*
X0138609Y0206820D02*
X0136540Y0202683D01*
X0134472Y0206820D01*
X0125718Y0206820D02*
X0125718Y0202683D01*
X0125718Y0205786D02*
X0121581Y0205786D01*
X0121581Y0206820D02*
X0121581Y0202683D01*
X0121581Y0206820D02*
X0123649Y0208889D01*
X0125718Y0206820D01*
X0112827Y0205786D02*
X0108690Y0205786D01*
X0099936Y0207855D02*
X0098901Y0208889D01*
X0096833Y0208889D01*
X0095799Y0207855D01*
X0095799Y0206820D01*
X0099936Y0202683D01*
X0095799Y0202683D01*
X0093490Y0203718D02*
X0089353Y0207855D01*
X0089353Y0203718D01*
X0090388Y0202683D01*
X0092456Y0202683D01*
X0093490Y0203718D01*
X0093490Y0207855D01*
X0092456Y0208889D01*
X0090388Y0208889D01*
X0089353Y0207855D01*
X0087045Y0206820D02*
X0084976Y0208889D01*
X0084976Y0202683D01*
X0082908Y0202683D02*
X0087045Y0202683D01*
X0080599Y0203718D02*
X0079565Y0202683D01*
X0077497Y0202683D01*
X0076462Y0203718D01*
X0076462Y0207855D01*
X0077497Y0208889D01*
X0079565Y0208889D01*
X0080599Y0207855D01*
X0080599Y0206820D01*
X0079565Y0205786D01*
X0076462Y0205786D01*
D11*
X0051076Y0117201D02*
X0051076Y0042398D01*
X0249501Y0042398D01*
X0249501Y0117201D01*
X0051076Y0117201D01*
M02*
