G75*
%MOIN*%
%OFA0B0*%
%FSLAX25Y25*%
%IPPOS*%
%LPD*%
%AMOC8*
5,1,8,0,0,1.08239X$1,22.5*
%
%ADD10C,0.00600*%
%ADD11C,0.00591*%
%ADD12C,0.00800*%
%ADD13C,0.00700*%
D10*
X0043581Y0082526D02*
X0043581Y0084194D01*
X0043581Y0083360D02*
X0048585Y0083360D01*
X0048585Y0082526D02*
X0048585Y0084194D01*
X0047751Y0085963D02*
X0044415Y0085963D01*
X0043581Y0086797D01*
X0043581Y0088465D01*
X0044415Y0089300D01*
X0044415Y0091120D02*
X0043581Y0091954D01*
X0043581Y0093622D01*
X0044415Y0094456D01*
X0046083Y0093622D02*
X0046917Y0094456D01*
X0047751Y0094456D01*
X0048585Y0093622D01*
X0048585Y0091954D01*
X0047751Y0091120D01*
X0047751Y0089300D02*
X0048585Y0088465D01*
X0048585Y0086797D01*
X0047751Y0085963D01*
X0045249Y0091120D02*
X0046083Y0091954D01*
X0046083Y0093622D01*
X0045249Y0091120D02*
X0044415Y0091120D01*
X0043581Y0096276D02*
X0043581Y0098778D01*
X0044415Y0099612D01*
X0046083Y0099612D01*
X0046917Y0098778D01*
X0046917Y0096276D01*
X0048585Y0096276D02*
X0043581Y0096276D01*
X0119235Y0059473D02*
X0122345Y0059473D01*
X0137326Y0098885D02*
X0140435Y0098885D01*
X0149826Y0098885D02*
X0152935Y0098885D01*
X0177326Y0098885D02*
X0180435Y0098885D01*
X0218997Y0138229D02*
X0220465Y0138229D01*
X0219731Y0138229D02*
X0219731Y0142633D01*
X0218997Y0142633D02*
X0220465Y0142633D01*
X0222066Y0141899D02*
X0222066Y0138963D01*
X0222800Y0138229D01*
X0224268Y0138229D01*
X0225002Y0138963D01*
X0226670Y0138963D02*
X0227404Y0138229D01*
X0228872Y0138229D01*
X0229606Y0138963D01*
X0229606Y0139697D01*
X0228872Y0140431D01*
X0228138Y0140431D01*
X0228872Y0140431D02*
X0229606Y0141165D01*
X0229606Y0141899D01*
X0228872Y0142633D01*
X0227404Y0142633D01*
X0226670Y0141899D01*
X0225002Y0141899D02*
X0224268Y0142633D01*
X0222800Y0142633D01*
X0222066Y0141899D01*
X0218456Y0186679D02*
X0218456Y0190015D01*
X0218456Y0188347D02*
X0220124Y0190015D01*
X0220958Y0190015D01*
X0216636Y0189181D02*
X0216636Y0188347D01*
X0213300Y0188347D01*
X0213300Y0187513D02*
X0213300Y0189181D01*
X0214134Y0190015D01*
X0215802Y0190015D01*
X0216636Y0189181D01*
X0215802Y0186679D02*
X0214134Y0186679D01*
X0213300Y0187513D01*
X0211479Y0186679D02*
X0208977Y0186679D01*
X0208143Y0187513D01*
X0208143Y0189181D01*
X0208977Y0190015D01*
X0211479Y0190015D01*
X0211479Y0191683D02*
X0211479Y0186679D01*
X0206323Y0187513D02*
X0206323Y0189181D01*
X0205489Y0190015D01*
X0203821Y0190015D01*
X0202987Y0189181D01*
X0202987Y0187513D01*
X0203821Y0186679D01*
X0205489Y0186679D01*
X0206323Y0187513D01*
X0201167Y0186679D02*
X0198665Y0186679D01*
X0197830Y0187513D01*
X0197830Y0189181D01*
X0198665Y0190015D01*
X0201167Y0190015D01*
X0196010Y0189181D02*
X0196010Y0186679D01*
X0196010Y0189181D02*
X0195176Y0190015D01*
X0192674Y0190015D01*
X0192674Y0186679D01*
X0190854Y0186679D02*
X0187518Y0186679D01*
X0187518Y0191683D01*
X0190854Y0191683D01*
X0189186Y0189181D02*
X0187518Y0189181D01*
X0192557Y0196679D02*
X0195059Y0196679D01*
X0195893Y0197513D01*
X0195893Y0198347D01*
X0195059Y0199181D01*
X0192557Y0199181D01*
X0192557Y0196679D02*
X0192557Y0201683D01*
X0195059Y0201683D01*
X0195893Y0200849D01*
X0195893Y0200015D01*
X0195059Y0199181D01*
X0212557Y0199181D02*
X0215893Y0199181D01*
X0215893Y0200015D02*
X0214225Y0201683D01*
X0212557Y0200015D01*
X0212557Y0196679D01*
X0215893Y0196679D02*
X0215893Y0200015D01*
X0232557Y0199181D02*
X0235893Y0199181D01*
X0175893Y0199181D02*
X0172557Y0199181D01*
X0174225Y0200849D02*
X0174225Y0197513D01*
X0156501Y0198569D02*
X0153165Y0198569D01*
X0154833Y0196901D02*
X0154833Y0200237D01*
X0156206Y0191683D02*
X0156206Y0188347D01*
X0154538Y0186679D01*
X0152870Y0188347D01*
X0152870Y0191683D01*
X0151050Y0190849D02*
X0150216Y0191683D01*
X0148548Y0191683D01*
X0147714Y0190849D01*
X0147714Y0187513D01*
X0151050Y0190849D01*
X0151050Y0187513D01*
X0150216Y0186679D01*
X0148548Y0186679D01*
X0147714Y0187513D01*
X0145893Y0187513D02*
X0145059Y0186679D01*
X0143391Y0186679D01*
X0142557Y0187513D01*
X0144225Y0189181D02*
X0145059Y0189181D01*
X0145893Y0188347D01*
X0145893Y0187513D01*
X0145059Y0189181D02*
X0145893Y0190015D01*
X0145893Y0190849D01*
X0145059Y0191683D01*
X0143391Y0191683D01*
X0142557Y0190849D01*
X0140737Y0189181D02*
X0137401Y0189181D01*
X0135581Y0188347D02*
X0134747Y0189181D01*
X0132244Y0189181D01*
X0132244Y0187513D01*
X0133078Y0186679D01*
X0134747Y0186679D01*
X0135581Y0187513D01*
X0135581Y0188347D01*
X0133913Y0190849D02*
X0132244Y0189181D01*
X0133913Y0190849D02*
X0135581Y0191683D01*
X0135893Y0199181D02*
X0132557Y0199181D01*
X0115893Y0198347D02*
X0115893Y0197513D01*
X0115059Y0196679D01*
X0112557Y0196679D01*
X0112557Y0201683D01*
X0115059Y0201683D01*
X0115893Y0200849D01*
X0115893Y0200015D01*
X0115059Y0199181D01*
X0112557Y0199181D01*
X0115059Y0199181D02*
X0115893Y0198347D01*
X0116282Y0190849D02*
X0116282Y0187513D01*
X0117116Y0186679D01*
X0117116Y0190015D02*
X0115448Y0190015D01*
X0113628Y0190015D02*
X0113628Y0186679D01*
X0111126Y0186679D01*
X0110292Y0187513D01*
X0110292Y0190015D01*
X0108472Y0189181D02*
X0108472Y0187513D01*
X0107638Y0186679D01*
X0105135Y0186679D01*
X0105135Y0185011D02*
X0105135Y0190015D01*
X0107638Y0190015D01*
X0108472Y0189181D01*
X0103366Y0190015D02*
X0101698Y0190015D01*
X0102532Y0190849D02*
X0102532Y0187513D01*
X0103366Y0186679D01*
X0099878Y0186679D02*
X0099878Y0190015D01*
X0099878Y0186679D02*
X0097375Y0186679D01*
X0096541Y0187513D01*
X0096541Y0190015D01*
X0094721Y0190849D02*
X0094721Y0187513D01*
X0093887Y0186679D01*
X0092219Y0186679D01*
X0091385Y0187513D01*
X0091385Y0190849D01*
X0092219Y0191683D01*
X0093887Y0191683D01*
X0094721Y0190849D01*
X0095893Y0196679D02*
X0095893Y0200015D01*
X0094225Y0201683D01*
X0092557Y0200015D01*
X0092557Y0196679D01*
X0092557Y0199181D02*
X0095893Y0199181D01*
D11*
X0085249Y0093008D02*
X0085249Y0052850D01*
X0099422Y0052850D01*
X0099422Y0093008D01*
X0085249Y0093008D01*
X0086237Y0090252D02*
X0086239Y0090335D01*
X0086245Y0090419D01*
X0086255Y0090502D01*
X0086268Y0090584D01*
X0086286Y0090666D01*
X0086308Y0090746D01*
X0086333Y0090826D01*
X0086362Y0090904D01*
X0086394Y0090981D01*
X0086431Y0091057D01*
X0086470Y0091130D01*
X0086514Y0091201D01*
X0086560Y0091271D01*
X0086610Y0091338D01*
X0086663Y0091403D01*
X0086718Y0091465D01*
X0086777Y0091524D01*
X0086839Y0091581D01*
X0086903Y0091634D01*
X0086969Y0091685D01*
X0087038Y0091732D01*
X0087109Y0091776D01*
X0087182Y0091817D01*
X0087257Y0091854D01*
X0087333Y0091887D01*
X0087411Y0091917D01*
X0087491Y0091943D01*
X0087571Y0091966D01*
X0087652Y0091984D01*
X0087735Y0091999D01*
X0087817Y0092010D01*
X0087901Y0092017D01*
X0087984Y0092020D01*
X0088068Y0092019D01*
X0088151Y0092014D01*
X0088234Y0092005D01*
X0088317Y0091992D01*
X0088398Y0091976D01*
X0088479Y0091955D01*
X0088559Y0091931D01*
X0088638Y0091903D01*
X0088715Y0091871D01*
X0088791Y0091836D01*
X0088865Y0091797D01*
X0088937Y0091755D01*
X0089007Y0091709D01*
X0089074Y0091660D01*
X0089140Y0091608D01*
X0089202Y0091553D01*
X0089263Y0091495D01*
X0089320Y0091434D01*
X0089374Y0091371D01*
X0089425Y0091305D01*
X0089474Y0091236D01*
X0089518Y0091166D01*
X0089560Y0091093D01*
X0089598Y0091019D01*
X0089632Y0090943D01*
X0089663Y0090865D01*
X0089690Y0090786D01*
X0089714Y0090706D01*
X0089733Y0090625D01*
X0089749Y0090543D01*
X0089761Y0090460D01*
X0089769Y0090377D01*
X0089773Y0090294D01*
X0089773Y0090210D01*
X0089769Y0090127D01*
X0089761Y0090044D01*
X0089749Y0089961D01*
X0089733Y0089879D01*
X0089714Y0089798D01*
X0089690Y0089718D01*
X0089663Y0089639D01*
X0089632Y0089561D01*
X0089598Y0089485D01*
X0089560Y0089411D01*
X0089518Y0089338D01*
X0089474Y0089268D01*
X0089425Y0089199D01*
X0089374Y0089133D01*
X0089320Y0089070D01*
X0089263Y0089009D01*
X0089202Y0088951D01*
X0089140Y0088896D01*
X0089074Y0088844D01*
X0089007Y0088795D01*
X0088937Y0088749D01*
X0088865Y0088707D01*
X0088791Y0088668D01*
X0088715Y0088633D01*
X0088638Y0088601D01*
X0088559Y0088573D01*
X0088479Y0088549D01*
X0088398Y0088528D01*
X0088317Y0088512D01*
X0088234Y0088499D01*
X0088151Y0088490D01*
X0088068Y0088485D01*
X0087984Y0088484D01*
X0087901Y0088487D01*
X0087817Y0088494D01*
X0087735Y0088505D01*
X0087652Y0088520D01*
X0087571Y0088538D01*
X0087491Y0088561D01*
X0087411Y0088587D01*
X0087333Y0088617D01*
X0087257Y0088650D01*
X0087182Y0088687D01*
X0087109Y0088728D01*
X0087038Y0088772D01*
X0086969Y0088819D01*
X0086903Y0088870D01*
X0086839Y0088923D01*
X0086777Y0088980D01*
X0086718Y0089039D01*
X0086663Y0089101D01*
X0086610Y0089166D01*
X0086560Y0089233D01*
X0086514Y0089303D01*
X0086470Y0089374D01*
X0086431Y0089447D01*
X0086394Y0089523D01*
X0086362Y0089600D01*
X0086333Y0089678D01*
X0086308Y0089758D01*
X0086286Y0089838D01*
X0086268Y0089920D01*
X0086255Y0090002D01*
X0086245Y0090085D01*
X0086239Y0090169D01*
X0086237Y0090252D01*
X0059432Y0082781D02*
X0059432Y0070577D01*
X0052739Y0070577D01*
X0052739Y0082781D01*
X0059432Y0082781D01*
X0048585Y0074179D02*
X0043585Y0071679D01*
X0048585Y0069179D01*
X0048585Y0074179D01*
X0051085Y0066679D02*
X0039835Y0066679D01*
X0040585Y0066679D02*
X0026585Y0066679D01*
X0026585Y0116679D01*
X0040585Y0116679D01*
X0040585Y0066679D01*
X0051085Y0066679D02*
X0051085Y0116679D01*
X0039835Y0116679D01*
X0041467Y0123229D02*
X0070704Y0123229D01*
X0070704Y0192729D01*
X0041467Y0192729D01*
X0041467Y0123229D01*
X0064811Y0126929D02*
X0064813Y0127021D01*
X0064819Y0127112D01*
X0064829Y0127203D01*
X0064843Y0127294D01*
X0064861Y0127384D01*
X0064883Y0127473D01*
X0064908Y0127560D01*
X0064938Y0127647D01*
X0064971Y0127733D01*
X0065008Y0127816D01*
X0065048Y0127899D01*
X0065092Y0127979D01*
X0065140Y0128057D01*
X0065191Y0128134D01*
X0065245Y0128207D01*
X0065302Y0128279D01*
X0065363Y0128348D01*
X0065426Y0128414D01*
X0065492Y0128477D01*
X0065561Y0128538D01*
X0065633Y0128595D01*
X0065706Y0128649D01*
X0065783Y0128700D01*
X0065861Y0128748D01*
X0065941Y0128792D01*
X0066024Y0128832D01*
X0066107Y0128869D01*
X0066193Y0128902D01*
X0066280Y0128932D01*
X0066367Y0128957D01*
X0066456Y0128979D01*
X0066546Y0128997D01*
X0066637Y0129011D01*
X0066728Y0129021D01*
X0066819Y0129027D01*
X0066911Y0129029D01*
X0067003Y0129027D01*
X0067094Y0129021D01*
X0067185Y0129011D01*
X0067276Y0128997D01*
X0067366Y0128979D01*
X0067455Y0128957D01*
X0067542Y0128932D01*
X0067629Y0128902D01*
X0067715Y0128869D01*
X0067798Y0128832D01*
X0067881Y0128792D01*
X0067961Y0128748D01*
X0068039Y0128700D01*
X0068116Y0128649D01*
X0068189Y0128595D01*
X0068261Y0128538D01*
X0068330Y0128477D01*
X0068396Y0128414D01*
X0068459Y0128348D01*
X0068520Y0128279D01*
X0068577Y0128207D01*
X0068631Y0128134D01*
X0068682Y0128057D01*
X0068730Y0127979D01*
X0068774Y0127899D01*
X0068814Y0127816D01*
X0068851Y0127733D01*
X0068884Y0127647D01*
X0068914Y0127560D01*
X0068939Y0127473D01*
X0068961Y0127384D01*
X0068979Y0127294D01*
X0068993Y0127203D01*
X0069003Y0127112D01*
X0069009Y0127021D01*
X0069011Y0126929D01*
X0069009Y0126837D01*
X0069003Y0126746D01*
X0068993Y0126655D01*
X0068979Y0126564D01*
X0068961Y0126474D01*
X0068939Y0126385D01*
X0068914Y0126298D01*
X0068884Y0126211D01*
X0068851Y0126125D01*
X0068814Y0126042D01*
X0068774Y0125959D01*
X0068730Y0125879D01*
X0068682Y0125801D01*
X0068631Y0125724D01*
X0068577Y0125651D01*
X0068520Y0125579D01*
X0068459Y0125510D01*
X0068396Y0125444D01*
X0068330Y0125381D01*
X0068261Y0125320D01*
X0068189Y0125263D01*
X0068116Y0125209D01*
X0068039Y0125158D01*
X0067961Y0125110D01*
X0067881Y0125066D01*
X0067798Y0125026D01*
X0067715Y0124989D01*
X0067629Y0124956D01*
X0067542Y0124926D01*
X0067455Y0124901D01*
X0067366Y0124879D01*
X0067276Y0124861D01*
X0067185Y0124847D01*
X0067094Y0124837D01*
X0067003Y0124831D01*
X0066911Y0124829D01*
X0066819Y0124831D01*
X0066728Y0124837D01*
X0066637Y0124847D01*
X0066546Y0124861D01*
X0066456Y0124879D01*
X0066367Y0124901D01*
X0066280Y0124926D01*
X0066193Y0124956D01*
X0066107Y0124989D01*
X0066024Y0125026D01*
X0065941Y0125066D01*
X0065861Y0125110D01*
X0065783Y0125158D01*
X0065706Y0125209D01*
X0065633Y0125263D01*
X0065561Y0125320D01*
X0065492Y0125381D01*
X0065426Y0125444D01*
X0065363Y0125510D01*
X0065302Y0125579D01*
X0065245Y0125651D01*
X0065191Y0125724D01*
X0065140Y0125801D01*
X0065092Y0125879D01*
X0065048Y0125959D01*
X0065008Y0126042D01*
X0064971Y0126125D01*
X0064938Y0126211D01*
X0064908Y0126298D01*
X0064883Y0126385D01*
X0064861Y0126474D01*
X0064843Y0126564D01*
X0064829Y0126655D01*
X0064819Y0126746D01*
X0064813Y0126837D01*
X0064811Y0126929D01*
X0095239Y0136827D02*
X0101932Y0136827D01*
X0101932Y0149031D01*
X0095239Y0149031D01*
X0095239Y0136827D01*
X0102739Y0136827D02*
X0109432Y0136827D01*
X0109432Y0149031D01*
X0102739Y0149031D01*
X0102739Y0136827D01*
X0117483Y0139583D02*
X0117483Y0146276D01*
X0129688Y0146276D01*
X0129688Y0139583D01*
X0117483Y0139583D01*
X0119461Y0148087D02*
X0117493Y0150055D01*
X0119461Y0148087D02*
X0135209Y0148087D01*
X0137178Y0150055D01*
X0139855Y0146925D02*
X0133162Y0146925D01*
X0133162Y0134720D01*
X0139855Y0134720D01*
X0139855Y0146925D01*
X0146942Y0146787D02*
X0146942Y0155449D01*
X0165839Y0155449D01*
X0165839Y0146787D01*
X0146942Y0146787D01*
X0148467Y0145085D02*
X0148467Y0133274D01*
X0158704Y0133274D01*
X0158704Y0145085D01*
X0148467Y0145085D01*
X0146942Y0156472D02*
X0146942Y0165134D01*
X0165839Y0165134D01*
X0165839Y0156472D01*
X0146942Y0156472D01*
X0137178Y0165803D02*
X0135209Y0167772D01*
X0119461Y0167772D01*
X0117493Y0165803D01*
X0117483Y0169583D02*
X0129688Y0169583D01*
X0129688Y0176276D01*
X0117483Y0176276D01*
X0117483Y0169583D01*
X0101932Y0168077D02*
X0101932Y0180281D01*
X0095239Y0180281D01*
X0095239Y0168077D01*
X0101932Y0168077D01*
X0101932Y0167781D02*
X0095239Y0167781D01*
X0095239Y0155577D01*
X0101932Y0155577D01*
X0101932Y0167781D01*
X0093635Y0155331D02*
X0081036Y0155331D01*
X0081036Y0180528D01*
X0093635Y0180528D01*
X0093635Y0155331D01*
X0084835Y0184179D02*
X0084835Y0194179D01*
X0104835Y0194179D01*
X0104835Y0204179D01*
X0104835Y0194179D02*
X0144835Y0194179D01*
X0144835Y0204179D01*
X0144835Y0194179D02*
X0184835Y0194179D01*
X0184835Y0204179D01*
X0184835Y0194179D02*
X0204835Y0194179D01*
X0204835Y0204179D01*
X0204835Y0194179D02*
X0224835Y0194179D01*
X0224835Y0204179D01*
X0224835Y0194179D02*
X0244835Y0194179D01*
X0244835Y0184179D01*
X0164835Y0184179D01*
X0124835Y0184179D01*
X0124835Y0204179D01*
X0124835Y0184179D02*
X0084835Y0184179D01*
X0084835Y0194179D02*
X0084835Y0204179D01*
X0084835Y0203894D02*
X0084835Y0235390D01*
X0164835Y0235390D01*
X0164835Y0203894D01*
X0084835Y0203894D01*
X0031932Y0174031D02*
X0025239Y0174031D01*
X0025239Y0161827D01*
X0031932Y0161827D01*
X0031932Y0174031D01*
X0121489Y0102781D02*
X0121489Y0090577D01*
X0128182Y0090577D01*
X0128182Y0102781D01*
X0121489Y0102781D01*
X0128930Y0099041D02*
X0132473Y0099041D01*
X0132473Y0103372D01*
X0137198Y0103372D01*
X0137198Y0099041D01*
X0140741Y0099041D01*
X0140741Y0089986D01*
X0136410Y0089986D01*
X0136410Y0094317D01*
X0133261Y0094317D01*
X0133261Y0089986D01*
X0128930Y0089986D01*
X0128930Y0099041D01*
X0141430Y0099041D02*
X0141430Y0089986D01*
X0145761Y0089986D01*
X0145761Y0094317D01*
X0148910Y0094317D01*
X0148910Y0089986D01*
X0153241Y0089986D01*
X0153241Y0099041D01*
X0149698Y0099041D01*
X0149698Y0103372D01*
X0144973Y0103372D01*
X0144973Y0099041D01*
X0141430Y0099041D01*
X0153989Y0102781D02*
X0153989Y0090577D01*
X0160682Y0090577D01*
X0160682Y0102781D01*
X0153989Y0102781D01*
X0161489Y0102781D02*
X0161489Y0090577D01*
X0168182Y0090577D01*
X0168182Y0102781D01*
X0161489Y0102781D01*
X0168930Y0099041D02*
X0172473Y0099041D01*
X0172473Y0103372D01*
X0177198Y0103372D01*
X0177198Y0099041D01*
X0180741Y0099041D01*
X0180741Y0089986D01*
X0176410Y0089986D01*
X0176410Y0094317D01*
X0173261Y0094317D01*
X0173261Y0089986D01*
X0168930Y0089986D01*
X0168930Y0099041D01*
X0197749Y0093008D02*
X0211922Y0093008D01*
X0211922Y0052850D01*
X0197749Y0052850D01*
X0197749Y0093008D01*
X0178182Y0067781D02*
X0171489Y0067781D01*
X0171489Y0055577D01*
X0178182Y0055577D01*
X0178182Y0067781D01*
X0168182Y0067781D02*
X0161489Y0067781D01*
X0161489Y0055577D01*
X0168182Y0055577D01*
X0168182Y0067781D01*
X0158182Y0067781D02*
X0151489Y0067781D01*
X0151489Y0055577D01*
X0158182Y0055577D01*
X0158182Y0067781D01*
X0148182Y0067781D02*
X0141489Y0067781D01*
X0141489Y0055577D01*
X0148182Y0055577D01*
X0148182Y0067781D01*
X0138182Y0067781D02*
X0131489Y0067781D01*
X0131489Y0055577D01*
X0138182Y0055577D01*
X0138182Y0067781D01*
X0130741Y0068372D02*
X0130741Y0059317D01*
X0127198Y0059317D01*
X0127198Y0054986D01*
X0122473Y0054986D01*
X0122473Y0059317D01*
X0118930Y0059317D01*
X0118930Y0068372D01*
X0123261Y0068372D01*
X0123261Y0064041D01*
X0126410Y0064041D01*
X0126410Y0068372D01*
X0130741Y0068372D01*
X0139983Y0125833D02*
X0152188Y0125833D01*
X0152188Y0132526D01*
X0139983Y0132526D01*
X0139983Y0125833D01*
X0153733Y0125833D02*
X0165938Y0125833D01*
X0165938Y0132526D01*
X0153733Y0132526D01*
X0153733Y0125833D01*
X0167483Y0125833D02*
X0179688Y0125833D01*
X0179688Y0132526D01*
X0167483Y0132526D01*
X0167483Y0125833D01*
X0167483Y0133333D02*
X0179688Y0133333D01*
X0179688Y0140026D01*
X0167483Y0140026D01*
X0167483Y0133333D01*
X0167483Y0140833D02*
X0179688Y0140833D01*
X0179688Y0147526D01*
X0167483Y0147526D01*
X0167483Y0140833D01*
X0171410Y0163811D02*
X0171410Y0166811D01*
X0172910Y0165311D02*
X0169910Y0165311D01*
X0168497Y0174780D02*
X0161410Y0174780D01*
X0161410Y0177929D01*
X0158261Y0174780D01*
X0158261Y0181079D01*
X0161410Y0177929D01*
X0161410Y0181079D01*
X0168497Y0181079D01*
X0168497Y0174780D01*
X0161410Y0174780D02*
X0158261Y0174780D01*
X0151174Y0174780D01*
X0151174Y0181079D01*
X0158261Y0181079D01*
X0161410Y0181079D01*
X0164835Y0184179D02*
X0164835Y0204179D01*
X0164835Y0203894D02*
X0164835Y0235390D01*
X0244835Y0235390D01*
X0244835Y0203894D01*
X0164835Y0203894D01*
X0207483Y0178776D02*
X0207483Y0172083D01*
X0219688Y0172083D01*
X0219688Y0178776D01*
X0207483Y0178776D01*
X0207483Y0171276D02*
X0207483Y0164583D01*
X0219688Y0164583D01*
X0219688Y0171276D01*
X0207483Y0171276D01*
X0207483Y0163776D02*
X0207483Y0157083D01*
X0219688Y0157083D01*
X0219688Y0163776D01*
X0207483Y0163776D01*
X0223733Y0163776D02*
X0223733Y0157083D01*
X0235938Y0157083D01*
X0235938Y0163776D01*
X0223733Y0163776D01*
X0223733Y0164583D02*
X0223733Y0171276D01*
X0235938Y0171276D01*
X0235938Y0164583D01*
X0223733Y0164583D01*
X0223733Y0172083D02*
X0235938Y0172083D01*
X0235938Y0178776D01*
X0223733Y0178776D01*
X0223733Y0172083D01*
X0244835Y0194179D02*
X0244835Y0204179D01*
X0169087Y0165429D02*
X0169092Y0165815D01*
X0169106Y0166202D01*
X0169130Y0166587D01*
X0169163Y0166973D01*
X0169205Y0167357D01*
X0169257Y0167740D01*
X0169319Y0168121D01*
X0169390Y0168501D01*
X0169470Y0168879D01*
X0169559Y0169255D01*
X0169657Y0169629D01*
X0169765Y0170000D01*
X0169882Y0170369D01*
X0170008Y0170734D01*
X0170142Y0171097D01*
X0170286Y0171455D01*
X0170438Y0171811D01*
X0170599Y0172162D01*
X0170769Y0172509D01*
X0170947Y0172853D01*
X0171133Y0173191D01*
X0171327Y0173525D01*
X0171530Y0173854D01*
X0171741Y0174178D01*
X0171960Y0174497D01*
X0172186Y0174810D01*
X0172420Y0175118D01*
X0172662Y0175419D01*
X0172910Y0175715D01*
X0173167Y0176005D01*
X0173430Y0176288D01*
X0173699Y0176565D01*
X0173976Y0176834D01*
X0174259Y0177097D01*
X0174549Y0177354D01*
X0174845Y0177602D01*
X0175146Y0177844D01*
X0175454Y0178078D01*
X0175767Y0178304D01*
X0176086Y0178523D01*
X0176410Y0178734D01*
X0176739Y0178937D01*
X0177073Y0179131D01*
X0177411Y0179317D01*
X0177755Y0179495D01*
X0178102Y0179665D01*
X0178453Y0179826D01*
X0178809Y0179978D01*
X0179167Y0180122D01*
X0179530Y0180256D01*
X0179895Y0180382D01*
X0180264Y0180499D01*
X0180635Y0180607D01*
X0181009Y0180705D01*
X0181385Y0180794D01*
X0181763Y0180874D01*
X0182143Y0180945D01*
X0182524Y0181007D01*
X0182907Y0181059D01*
X0183291Y0181101D01*
X0183677Y0181134D01*
X0184062Y0181158D01*
X0184449Y0181172D01*
X0184835Y0181177D01*
X0185221Y0181172D01*
X0185608Y0181158D01*
X0185993Y0181134D01*
X0186379Y0181101D01*
X0186763Y0181059D01*
X0187146Y0181007D01*
X0187527Y0180945D01*
X0187907Y0180874D01*
X0188285Y0180794D01*
X0188661Y0180705D01*
X0189035Y0180607D01*
X0189406Y0180499D01*
X0189775Y0180382D01*
X0190140Y0180256D01*
X0190503Y0180122D01*
X0190861Y0179978D01*
X0191217Y0179826D01*
X0191568Y0179665D01*
X0191915Y0179495D01*
X0192259Y0179317D01*
X0192597Y0179131D01*
X0192931Y0178937D01*
X0193260Y0178734D01*
X0193584Y0178523D01*
X0193903Y0178304D01*
X0194216Y0178078D01*
X0194524Y0177844D01*
X0194825Y0177602D01*
X0195121Y0177354D01*
X0195411Y0177097D01*
X0195694Y0176834D01*
X0195971Y0176565D01*
X0196240Y0176288D01*
X0196503Y0176005D01*
X0196760Y0175715D01*
X0197008Y0175419D01*
X0197250Y0175118D01*
X0197484Y0174810D01*
X0197710Y0174497D01*
X0197929Y0174178D01*
X0198140Y0173854D01*
X0198343Y0173525D01*
X0198537Y0173191D01*
X0198723Y0172853D01*
X0198901Y0172509D01*
X0199071Y0172162D01*
X0199232Y0171811D01*
X0199384Y0171455D01*
X0199528Y0171097D01*
X0199662Y0170734D01*
X0199788Y0170369D01*
X0199905Y0170000D01*
X0200013Y0169629D01*
X0200111Y0169255D01*
X0200200Y0168879D01*
X0200280Y0168501D01*
X0200351Y0168121D01*
X0200413Y0167740D01*
X0200465Y0167357D01*
X0200507Y0166973D01*
X0200540Y0166587D01*
X0200564Y0166202D01*
X0200578Y0165815D01*
X0200583Y0165429D01*
X0200578Y0165043D01*
X0200564Y0164656D01*
X0200540Y0164271D01*
X0200507Y0163885D01*
X0200465Y0163501D01*
X0200413Y0163118D01*
X0200351Y0162737D01*
X0200280Y0162357D01*
X0200200Y0161979D01*
X0200111Y0161603D01*
X0200013Y0161229D01*
X0199905Y0160858D01*
X0199788Y0160489D01*
X0199662Y0160124D01*
X0199528Y0159761D01*
X0199384Y0159403D01*
X0199232Y0159047D01*
X0199071Y0158696D01*
X0198901Y0158349D01*
X0198723Y0158005D01*
X0198537Y0157667D01*
X0198343Y0157333D01*
X0198140Y0157004D01*
X0197929Y0156680D01*
X0197710Y0156361D01*
X0197484Y0156048D01*
X0197250Y0155740D01*
X0197008Y0155439D01*
X0196760Y0155143D01*
X0196503Y0154853D01*
X0196240Y0154570D01*
X0195971Y0154293D01*
X0195694Y0154024D01*
X0195411Y0153761D01*
X0195121Y0153504D01*
X0194825Y0153256D01*
X0194524Y0153014D01*
X0194216Y0152780D01*
X0193903Y0152554D01*
X0193584Y0152335D01*
X0193260Y0152124D01*
X0192931Y0151921D01*
X0192597Y0151727D01*
X0192259Y0151541D01*
X0191915Y0151363D01*
X0191568Y0151193D01*
X0191217Y0151032D01*
X0190861Y0150880D01*
X0190503Y0150736D01*
X0190140Y0150602D01*
X0189775Y0150476D01*
X0189406Y0150359D01*
X0189035Y0150251D01*
X0188661Y0150153D01*
X0188285Y0150064D01*
X0187907Y0149984D01*
X0187527Y0149913D01*
X0187146Y0149851D01*
X0186763Y0149799D01*
X0186379Y0149757D01*
X0185993Y0149724D01*
X0185608Y0149700D01*
X0185221Y0149686D01*
X0184835Y0149681D01*
X0184449Y0149686D01*
X0184062Y0149700D01*
X0183677Y0149724D01*
X0183291Y0149757D01*
X0182907Y0149799D01*
X0182524Y0149851D01*
X0182143Y0149913D01*
X0181763Y0149984D01*
X0181385Y0150064D01*
X0181009Y0150153D01*
X0180635Y0150251D01*
X0180264Y0150359D01*
X0179895Y0150476D01*
X0179530Y0150602D01*
X0179167Y0150736D01*
X0178809Y0150880D01*
X0178453Y0151032D01*
X0178102Y0151193D01*
X0177755Y0151363D01*
X0177411Y0151541D01*
X0177073Y0151727D01*
X0176739Y0151921D01*
X0176410Y0152124D01*
X0176086Y0152335D01*
X0175767Y0152554D01*
X0175454Y0152780D01*
X0175146Y0153014D01*
X0174845Y0153256D01*
X0174549Y0153504D01*
X0174259Y0153761D01*
X0173976Y0154024D01*
X0173699Y0154293D01*
X0173430Y0154570D01*
X0173167Y0154853D01*
X0172910Y0155143D01*
X0172662Y0155439D01*
X0172420Y0155740D01*
X0172186Y0156048D01*
X0171960Y0156361D01*
X0171741Y0156680D01*
X0171530Y0157004D01*
X0171327Y0157333D01*
X0171133Y0157667D01*
X0170947Y0158005D01*
X0170769Y0158349D01*
X0170599Y0158696D01*
X0170438Y0159047D01*
X0170286Y0159403D01*
X0170142Y0159761D01*
X0170008Y0160124D01*
X0169882Y0160489D01*
X0169765Y0160858D01*
X0169657Y0161229D01*
X0169559Y0161603D01*
X0169470Y0161979D01*
X0169390Y0162357D01*
X0169319Y0162737D01*
X0169257Y0163118D01*
X0169205Y0163501D01*
X0169163Y0163885D01*
X0169130Y0164271D01*
X0169106Y0164656D01*
X0169092Y0165043D01*
X0169087Y0165429D01*
X0207611Y0146925D02*
X0207611Y0133933D01*
X0242060Y0133933D01*
X0242060Y0146925D01*
X0207611Y0146925D01*
X0237442Y0144543D02*
X0237444Y0144626D01*
X0237450Y0144710D01*
X0237460Y0144793D01*
X0237473Y0144875D01*
X0237491Y0144957D01*
X0237513Y0145037D01*
X0237538Y0145117D01*
X0237567Y0145195D01*
X0237599Y0145272D01*
X0237636Y0145348D01*
X0237675Y0145421D01*
X0237719Y0145492D01*
X0237765Y0145562D01*
X0237815Y0145629D01*
X0237868Y0145694D01*
X0237923Y0145756D01*
X0237982Y0145815D01*
X0238044Y0145872D01*
X0238108Y0145925D01*
X0238174Y0145976D01*
X0238243Y0146023D01*
X0238314Y0146067D01*
X0238387Y0146108D01*
X0238462Y0146145D01*
X0238538Y0146178D01*
X0238616Y0146208D01*
X0238696Y0146234D01*
X0238776Y0146257D01*
X0238857Y0146275D01*
X0238940Y0146290D01*
X0239022Y0146301D01*
X0239106Y0146308D01*
X0239189Y0146311D01*
X0239273Y0146310D01*
X0239356Y0146305D01*
X0239439Y0146296D01*
X0239522Y0146283D01*
X0239603Y0146267D01*
X0239684Y0146246D01*
X0239764Y0146222D01*
X0239843Y0146194D01*
X0239920Y0146162D01*
X0239996Y0146127D01*
X0240070Y0146088D01*
X0240142Y0146046D01*
X0240212Y0146000D01*
X0240279Y0145951D01*
X0240345Y0145899D01*
X0240407Y0145844D01*
X0240468Y0145786D01*
X0240525Y0145725D01*
X0240579Y0145662D01*
X0240630Y0145596D01*
X0240679Y0145527D01*
X0240723Y0145457D01*
X0240765Y0145384D01*
X0240803Y0145310D01*
X0240837Y0145234D01*
X0240868Y0145156D01*
X0240895Y0145077D01*
X0240919Y0144997D01*
X0240938Y0144916D01*
X0240954Y0144834D01*
X0240966Y0144751D01*
X0240974Y0144668D01*
X0240978Y0144585D01*
X0240978Y0144501D01*
X0240974Y0144418D01*
X0240966Y0144335D01*
X0240954Y0144252D01*
X0240938Y0144170D01*
X0240919Y0144089D01*
X0240895Y0144009D01*
X0240868Y0143930D01*
X0240837Y0143852D01*
X0240803Y0143776D01*
X0240765Y0143702D01*
X0240723Y0143629D01*
X0240679Y0143559D01*
X0240630Y0143490D01*
X0240579Y0143424D01*
X0240525Y0143361D01*
X0240468Y0143300D01*
X0240407Y0143242D01*
X0240345Y0143187D01*
X0240279Y0143135D01*
X0240212Y0143086D01*
X0240142Y0143040D01*
X0240070Y0142998D01*
X0239996Y0142959D01*
X0239920Y0142924D01*
X0239843Y0142892D01*
X0239764Y0142864D01*
X0239684Y0142840D01*
X0239603Y0142819D01*
X0239522Y0142803D01*
X0239439Y0142790D01*
X0239356Y0142781D01*
X0239273Y0142776D01*
X0239189Y0142775D01*
X0239106Y0142778D01*
X0239022Y0142785D01*
X0238940Y0142796D01*
X0238857Y0142811D01*
X0238776Y0142829D01*
X0238696Y0142852D01*
X0238616Y0142878D01*
X0238538Y0142908D01*
X0238462Y0142941D01*
X0238387Y0142978D01*
X0238314Y0143019D01*
X0238243Y0143063D01*
X0238174Y0143110D01*
X0238108Y0143161D01*
X0238044Y0143214D01*
X0237982Y0143271D01*
X0237923Y0143330D01*
X0237868Y0143392D01*
X0237815Y0143457D01*
X0237765Y0143524D01*
X0237719Y0143594D01*
X0237675Y0143665D01*
X0237636Y0143738D01*
X0237599Y0143814D01*
X0237567Y0143891D01*
X0237538Y0143969D01*
X0237513Y0144049D01*
X0237491Y0144129D01*
X0237473Y0144211D01*
X0237460Y0144293D01*
X0237450Y0144376D01*
X0237444Y0144460D01*
X0237442Y0144543D01*
X0243989Y0139031D02*
X0250682Y0139031D01*
X0250682Y0126827D01*
X0243989Y0126827D01*
X0243989Y0139031D01*
X0207398Y0055606D02*
X0207400Y0055689D01*
X0207406Y0055773D01*
X0207416Y0055856D01*
X0207429Y0055938D01*
X0207447Y0056020D01*
X0207469Y0056100D01*
X0207494Y0056180D01*
X0207523Y0056258D01*
X0207555Y0056335D01*
X0207592Y0056411D01*
X0207631Y0056484D01*
X0207675Y0056555D01*
X0207721Y0056625D01*
X0207771Y0056692D01*
X0207824Y0056757D01*
X0207879Y0056819D01*
X0207938Y0056878D01*
X0208000Y0056935D01*
X0208064Y0056988D01*
X0208130Y0057039D01*
X0208199Y0057086D01*
X0208270Y0057130D01*
X0208343Y0057171D01*
X0208418Y0057208D01*
X0208494Y0057241D01*
X0208572Y0057271D01*
X0208652Y0057297D01*
X0208732Y0057320D01*
X0208813Y0057338D01*
X0208896Y0057353D01*
X0208978Y0057364D01*
X0209062Y0057371D01*
X0209145Y0057374D01*
X0209229Y0057373D01*
X0209312Y0057368D01*
X0209395Y0057359D01*
X0209478Y0057346D01*
X0209559Y0057330D01*
X0209640Y0057309D01*
X0209720Y0057285D01*
X0209799Y0057257D01*
X0209876Y0057225D01*
X0209952Y0057190D01*
X0210026Y0057151D01*
X0210098Y0057109D01*
X0210168Y0057063D01*
X0210235Y0057014D01*
X0210301Y0056962D01*
X0210363Y0056907D01*
X0210424Y0056849D01*
X0210481Y0056788D01*
X0210535Y0056725D01*
X0210586Y0056659D01*
X0210635Y0056590D01*
X0210679Y0056520D01*
X0210721Y0056447D01*
X0210759Y0056373D01*
X0210793Y0056297D01*
X0210824Y0056219D01*
X0210851Y0056140D01*
X0210875Y0056060D01*
X0210894Y0055979D01*
X0210910Y0055897D01*
X0210922Y0055814D01*
X0210930Y0055731D01*
X0210934Y0055648D01*
X0210934Y0055564D01*
X0210930Y0055481D01*
X0210922Y0055398D01*
X0210910Y0055315D01*
X0210894Y0055233D01*
X0210875Y0055152D01*
X0210851Y0055072D01*
X0210824Y0054993D01*
X0210793Y0054915D01*
X0210759Y0054839D01*
X0210721Y0054765D01*
X0210679Y0054692D01*
X0210635Y0054622D01*
X0210586Y0054553D01*
X0210535Y0054487D01*
X0210481Y0054424D01*
X0210424Y0054363D01*
X0210363Y0054305D01*
X0210301Y0054250D01*
X0210235Y0054198D01*
X0210168Y0054149D01*
X0210098Y0054103D01*
X0210026Y0054061D01*
X0209952Y0054022D01*
X0209876Y0053987D01*
X0209799Y0053955D01*
X0209720Y0053927D01*
X0209640Y0053903D01*
X0209559Y0053882D01*
X0209478Y0053866D01*
X0209395Y0053853D01*
X0209312Y0053844D01*
X0209229Y0053839D01*
X0209145Y0053838D01*
X0209062Y0053841D01*
X0208978Y0053848D01*
X0208896Y0053859D01*
X0208813Y0053874D01*
X0208732Y0053892D01*
X0208652Y0053915D01*
X0208572Y0053941D01*
X0208494Y0053971D01*
X0208418Y0054004D01*
X0208343Y0054041D01*
X0208270Y0054082D01*
X0208199Y0054126D01*
X0208130Y0054173D01*
X0208064Y0054224D01*
X0208000Y0054277D01*
X0207938Y0054334D01*
X0207879Y0054393D01*
X0207824Y0054455D01*
X0207771Y0054520D01*
X0207721Y0054587D01*
X0207675Y0054657D01*
X0207631Y0054728D01*
X0207592Y0054801D01*
X0207555Y0054877D01*
X0207523Y0054954D01*
X0207494Y0055032D01*
X0207469Y0055112D01*
X0207447Y0055192D01*
X0207429Y0055274D01*
X0207416Y0055356D01*
X0207406Y0055439D01*
X0207400Y0055523D01*
X0207398Y0055606D01*
D12*
X0255451Y0086079D02*
X0255451Y0089182D01*
X0256485Y0090216D01*
X0258553Y0090216D01*
X0259587Y0089182D01*
X0259587Y0086079D01*
X0259587Y0088147D02*
X0261656Y0090216D01*
X0261656Y0092524D02*
X0255451Y0092524D01*
X0255451Y0095627D01*
X0256485Y0096661D01*
X0258553Y0096661D01*
X0259587Y0095627D01*
X0259587Y0092524D01*
X0261656Y0098970D02*
X0255451Y0098970D01*
X0257519Y0101038D01*
X0255451Y0103107D01*
X0261656Y0103107D01*
X0269330Y0102033D02*
X0269330Y0098930D01*
X0270364Y0097896D01*
X0271398Y0098930D01*
X0271398Y0100998D01*
X0272433Y0102033D01*
X0273467Y0100998D01*
X0273467Y0097896D01*
X0272433Y0104341D02*
X0270364Y0104341D01*
X0269330Y0105375D01*
X0269330Y0107444D01*
X0270364Y0108478D01*
X0272433Y0108478D01*
X0273467Y0107444D01*
X0273467Y0105375D01*
X0272433Y0104341D01*
X0273467Y0110787D02*
X0273467Y0112855D01*
X0273467Y0111821D02*
X0267262Y0111821D01*
X0267262Y0110787D01*
X0270364Y0115084D02*
X0269330Y0116118D01*
X0269330Y0119221D01*
X0267262Y0119221D02*
X0273467Y0119221D01*
X0273467Y0116118D01*
X0272433Y0115084D01*
X0270364Y0115084D01*
X0270364Y0121529D02*
X0269330Y0122563D01*
X0269330Y0124632D01*
X0270364Y0125666D01*
X0271398Y0125666D01*
X0271398Y0121529D01*
X0270364Y0121529D02*
X0272433Y0121529D01*
X0273467Y0122563D01*
X0273467Y0124632D01*
X0273467Y0127975D02*
X0269330Y0127975D01*
X0269330Y0130043D02*
X0269330Y0131077D01*
X0269330Y0130043D02*
X0271398Y0127975D01*
X0269330Y0133346D02*
X0269330Y0136449D01*
X0270364Y0137483D01*
X0273467Y0137483D01*
X0272433Y0139791D02*
X0270364Y0139791D01*
X0269330Y0140826D01*
X0269330Y0142894D01*
X0270364Y0143928D01*
X0271398Y0143928D01*
X0271398Y0139791D01*
X0272433Y0139791D02*
X0273467Y0140826D01*
X0273467Y0142894D01*
X0273467Y0146237D02*
X0269330Y0146237D01*
X0271398Y0146237D02*
X0269330Y0148305D01*
X0269330Y0149340D01*
X0270364Y0151608D02*
X0269330Y0152642D01*
X0269330Y0155745D01*
X0267262Y0155745D02*
X0273467Y0155745D01*
X0273467Y0152642D01*
X0272433Y0151608D01*
X0270364Y0151608D01*
X0272433Y0158054D02*
X0272433Y0159088D01*
X0273467Y0159088D01*
X0273467Y0158054D01*
X0272433Y0158054D01*
X0272433Y0161276D02*
X0270364Y0161276D01*
X0269330Y0162311D01*
X0269330Y0165413D01*
X0270364Y0167722D02*
X0272433Y0167722D01*
X0273467Y0168756D01*
X0273467Y0170825D01*
X0272433Y0171859D01*
X0270364Y0171859D01*
X0269330Y0170825D01*
X0269330Y0168756D01*
X0270364Y0167722D01*
X0273467Y0165413D02*
X0273467Y0162311D01*
X0272433Y0161276D01*
X0261656Y0160202D02*
X0255451Y0160202D01*
X0255451Y0163305D01*
X0256485Y0164339D01*
X0258553Y0164339D01*
X0259587Y0163305D01*
X0259587Y0160202D01*
X0259587Y0162271D02*
X0261656Y0164339D01*
X0260622Y0166648D02*
X0258553Y0166648D01*
X0257519Y0167682D01*
X0257519Y0169750D01*
X0258553Y0170784D01*
X0259587Y0170784D01*
X0259587Y0166648D01*
X0260622Y0166648D02*
X0261656Y0167682D01*
X0261656Y0169750D01*
X0257519Y0173093D02*
X0261656Y0175162D01*
X0257519Y0177230D01*
X0257519Y0185984D02*
X0255451Y0188053D01*
X0257519Y0190121D01*
X0261656Y0190121D01*
X0258553Y0190121D02*
X0258553Y0185984D01*
X0257519Y0185984D02*
X0261656Y0185984D01*
X0270364Y0178304D02*
X0273467Y0178304D01*
X0273467Y0176236D02*
X0270364Y0176236D01*
X0269330Y0177270D01*
X0270364Y0178304D01*
X0270364Y0176236D02*
X0269330Y0175202D01*
X0269330Y0174167D01*
X0273467Y0174167D01*
X0258553Y0151448D02*
X0258553Y0147311D01*
X0257519Y0138597D02*
X0257519Y0137563D01*
X0259587Y0135494D01*
X0257519Y0135494D02*
X0261656Y0135494D01*
X0259587Y0133186D02*
X0258553Y0133186D01*
X0257519Y0132152D01*
X0257519Y0130083D01*
X0258553Y0129049D01*
X0260622Y0129049D01*
X0261656Y0130083D01*
X0261656Y0132152D01*
X0259587Y0133186D02*
X0259587Y0129049D01*
X0257519Y0126820D02*
X0257519Y0124752D01*
X0256485Y0125786D02*
X0260622Y0125786D01*
X0261656Y0126820D01*
X0259587Y0122443D02*
X0258553Y0122443D01*
X0257519Y0121409D01*
X0257519Y0119341D01*
X0258553Y0118306D01*
X0260622Y0118306D01*
X0261656Y0119341D01*
X0261656Y0121409D01*
X0259587Y0122443D02*
X0259587Y0118306D01*
X0261656Y0115998D02*
X0255451Y0115998D01*
X0257519Y0113929D01*
X0255451Y0111861D01*
X0261656Y0111861D01*
X0269330Y0133346D02*
X0273467Y0133346D01*
X0261656Y0086079D02*
X0255451Y0086079D01*
D13*
X0206985Y0077683D02*
X0206985Y0074814D01*
X0204116Y0077683D01*
X0203399Y0077683D01*
X0202682Y0076966D01*
X0202682Y0075531D01*
X0203399Y0074814D01*
X0203399Y0073079D02*
X0202682Y0072362D01*
X0202682Y0070927D01*
X0203399Y0070210D01*
X0206268Y0070210D01*
X0206985Y0070927D01*
X0206985Y0072362D01*
X0206268Y0073079D01*
X0206985Y0068575D02*
X0206985Y0067141D01*
X0206985Y0067858D02*
X0202682Y0067858D01*
X0202682Y0067141D02*
X0202682Y0068575D01*
X0094485Y0068575D02*
X0094485Y0067141D01*
X0094485Y0067858D02*
X0090182Y0067858D01*
X0090182Y0067141D02*
X0090182Y0068575D01*
X0090899Y0070210D02*
X0093768Y0070210D01*
X0094485Y0070927D01*
X0094485Y0072362D01*
X0093768Y0073079D01*
X0092334Y0074814D02*
X0092334Y0077683D01*
X0094485Y0076966D02*
X0090182Y0076966D01*
X0092334Y0074814D01*
X0090899Y0073079D02*
X0090182Y0072362D01*
X0090182Y0070927D01*
X0090899Y0070210D01*
X0058235Y0149641D02*
X0058235Y0151075D01*
X0058235Y0150358D02*
X0053932Y0150358D01*
X0053932Y0149641D02*
X0053932Y0151075D01*
X0054649Y0152710D02*
X0053932Y0153427D01*
X0053932Y0154862D01*
X0054649Y0155579D01*
X0053932Y0157314D02*
X0056084Y0157314D01*
X0055366Y0158748D01*
X0055366Y0159466D01*
X0056084Y0160183D01*
X0057518Y0160183D01*
X0058235Y0159466D01*
X0058235Y0158031D01*
X0057518Y0157314D01*
X0057518Y0155579D02*
X0058235Y0154862D01*
X0058235Y0153427D01*
X0057518Y0152710D01*
X0054649Y0152710D01*
X0053932Y0157314D02*
X0053932Y0160183D01*
X0083081Y0165779D02*
X0085951Y0170083D01*
X0087685Y0168648D02*
X0089120Y0170083D01*
X0089120Y0165779D01*
X0087685Y0165779D02*
X0090555Y0165779D01*
X0085951Y0165779D02*
X0083081Y0170083D01*
X0182682Y0170233D02*
X0183399Y0170950D01*
X0184116Y0170950D01*
X0184834Y0170233D01*
X0185551Y0170950D01*
X0186268Y0170950D01*
X0186985Y0170233D01*
X0186985Y0168798D01*
X0186268Y0168081D01*
X0186985Y0166346D02*
X0186985Y0163477D01*
X0186985Y0164912D02*
X0182682Y0164912D01*
X0184116Y0163477D01*
X0183399Y0161742D02*
X0182682Y0161025D01*
X0182682Y0159591D01*
X0183399Y0158873D01*
X0186268Y0158873D01*
X0186985Y0159591D01*
X0186985Y0161025D01*
X0186268Y0161742D01*
X0183399Y0168081D02*
X0182682Y0168798D01*
X0182682Y0170233D01*
X0184834Y0170233D02*
X0184834Y0169516D01*
M02*
