G75*
%MOIN*%
%OFA0B0*%
%FSLAX25Y25*%
%IPPOS*%
%LPD*%
%AMOC8*
5,1,8,0,0,1.08239X$1,22.5*
%
%ADD10C,0.00800*%
%ADD11R,0.05118X0.04331*%
%ADD12R,0.06890X0.02756*%
%ADD13R,0.02756X0.06890*%
%ADD14R,0.04331X0.05118*%
%ADD15R,0.03150X0.03937*%
%ADD16R,0.06693X0.02559*%
%ADD17R,0.09449X0.07480*%
%ADD18R,0.06496X0.01772*%
%ADD19R,0.06299X0.16535*%
%ADD20R,0.06299X0.07087*%
%ADD21R,0.04331X0.04331*%
D10*
X0022335Y0015019D02*
X0022335Y0207933D01*
X0022338Y0208218D01*
X0022349Y0208504D01*
X0022366Y0208789D01*
X0022390Y0209073D01*
X0022421Y0209357D01*
X0022459Y0209640D01*
X0022504Y0209921D01*
X0022555Y0210202D01*
X0022613Y0210482D01*
X0022678Y0210760D01*
X0022750Y0211036D01*
X0022828Y0211310D01*
X0022913Y0211583D01*
X0023005Y0211853D01*
X0023103Y0212121D01*
X0023207Y0212387D01*
X0023318Y0212650D01*
X0023435Y0212910D01*
X0023558Y0213168D01*
X0023688Y0213422D01*
X0023824Y0213673D01*
X0023965Y0213921D01*
X0024113Y0214165D01*
X0024266Y0214406D01*
X0024426Y0214642D01*
X0024591Y0214875D01*
X0024761Y0215104D01*
X0024937Y0215329D01*
X0025119Y0215549D01*
X0025305Y0215765D01*
X0025497Y0215976D01*
X0025694Y0216183D01*
X0025896Y0216385D01*
X0026103Y0216582D01*
X0026314Y0216774D01*
X0026530Y0216960D01*
X0026750Y0217142D01*
X0026975Y0217318D01*
X0027204Y0217488D01*
X0027437Y0217653D01*
X0027673Y0217813D01*
X0027914Y0217966D01*
X0028158Y0218114D01*
X0028406Y0218255D01*
X0028657Y0218391D01*
X0028911Y0218521D01*
X0029169Y0218644D01*
X0029429Y0218761D01*
X0029692Y0218872D01*
X0029958Y0218976D01*
X0030226Y0219074D01*
X0030496Y0219166D01*
X0030769Y0219251D01*
X0031043Y0219329D01*
X0031319Y0219401D01*
X0031597Y0219466D01*
X0031877Y0219524D01*
X0032158Y0219575D01*
X0032439Y0219620D01*
X0032722Y0219658D01*
X0033006Y0219689D01*
X0033290Y0219713D01*
X0033575Y0219730D01*
X0033861Y0219741D01*
X0034146Y0219744D01*
X0227060Y0219744D01*
X0227059Y0219744D02*
X0227323Y0219763D01*
X0227586Y0219776D01*
X0227850Y0219783D01*
X0228113Y0219783D01*
X0228377Y0219777D01*
X0228640Y0219765D01*
X0228904Y0219746D01*
X0229166Y0219721D01*
X0229428Y0219690D01*
X0229689Y0219652D01*
X0229949Y0219608D01*
X0230208Y0219558D01*
X0230466Y0219501D01*
X0230722Y0219438D01*
X0230976Y0219369D01*
X0231229Y0219294D01*
X0231480Y0219213D01*
X0231729Y0219126D01*
X0231976Y0219033D01*
X0232220Y0218934D01*
X0232462Y0218829D01*
X0232701Y0218718D01*
X0232938Y0218601D01*
X0233172Y0218479D01*
X0233402Y0218351D01*
X0233630Y0218218D01*
X0233854Y0218079D01*
X0234075Y0217935D01*
X0234292Y0217785D01*
X0234506Y0217631D01*
X0234716Y0217471D01*
X0234921Y0217306D01*
X0235123Y0217136D01*
X0235321Y0216962D01*
X0235514Y0216782D01*
X0235703Y0216598D01*
X0235888Y0216410D01*
X0236068Y0216217D01*
X0236243Y0216020D01*
X0236413Y0215818D01*
X0236579Y0215613D01*
X0236739Y0215404D01*
X0236894Y0215191D01*
X0237045Y0214974D01*
X0237189Y0214753D01*
X0237329Y0214530D01*
X0237463Y0214302D01*
X0237591Y0214072D01*
X0237714Y0213839D01*
X0237832Y0213602D01*
X0237943Y0213363D01*
X0238049Y0213122D01*
X0238149Y0212878D01*
X0238242Y0212631D01*
X0238330Y0212383D01*
X0238412Y0212132D01*
X0238488Y0211879D01*
X0238558Y0211625D01*
X0238621Y0211369D01*
X0238678Y0211111D01*
X0238729Y0210853D01*
X0238774Y0210593D01*
X0238813Y0210332D01*
X0238845Y0210070D01*
X0238871Y0209808D01*
X0238871Y0015019D01*
X0238868Y0014734D01*
X0238857Y0014448D01*
X0238840Y0014163D01*
X0238816Y0013879D01*
X0238785Y0013595D01*
X0238747Y0013312D01*
X0238702Y0013031D01*
X0238651Y0012750D01*
X0238593Y0012470D01*
X0238528Y0012192D01*
X0238456Y0011916D01*
X0238378Y0011642D01*
X0238293Y0011369D01*
X0238201Y0011099D01*
X0238103Y0010831D01*
X0237999Y0010565D01*
X0237888Y0010302D01*
X0237771Y0010042D01*
X0237648Y0009784D01*
X0237518Y0009530D01*
X0237382Y0009279D01*
X0237241Y0009031D01*
X0237093Y0008787D01*
X0236940Y0008546D01*
X0236780Y0008310D01*
X0236615Y0008077D01*
X0236445Y0007848D01*
X0236269Y0007623D01*
X0236087Y0007403D01*
X0235901Y0007187D01*
X0235709Y0006976D01*
X0235512Y0006769D01*
X0235310Y0006567D01*
X0235103Y0006370D01*
X0234892Y0006178D01*
X0234676Y0005992D01*
X0234456Y0005810D01*
X0234231Y0005634D01*
X0234002Y0005464D01*
X0233769Y0005299D01*
X0233533Y0005139D01*
X0233292Y0004986D01*
X0233048Y0004838D01*
X0232800Y0004697D01*
X0232549Y0004561D01*
X0232295Y0004431D01*
X0232037Y0004308D01*
X0231777Y0004191D01*
X0231514Y0004080D01*
X0231248Y0003976D01*
X0230980Y0003878D01*
X0230710Y0003786D01*
X0230437Y0003701D01*
X0230163Y0003623D01*
X0229887Y0003551D01*
X0229609Y0003486D01*
X0229329Y0003428D01*
X0229048Y0003377D01*
X0228767Y0003332D01*
X0228484Y0003294D01*
X0228200Y0003263D01*
X0227916Y0003239D01*
X0227631Y0003222D01*
X0227345Y0003211D01*
X0227060Y0003208D01*
X0037896Y0003208D01*
X0037560Y0003166D01*
X0037222Y0003132D01*
X0036884Y0003107D01*
X0036546Y0003090D01*
X0036207Y0003081D01*
X0035868Y0003081D01*
X0035529Y0003089D01*
X0035190Y0003105D01*
X0034852Y0003130D01*
X0034514Y0003162D01*
X0034178Y0003204D01*
X0033842Y0003253D01*
X0033508Y0003310D01*
X0033176Y0003376D01*
X0032845Y0003450D01*
X0032516Y0003532D01*
X0032189Y0003622D01*
X0031864Y0003720D01*
X0031542Y0003826D01*
X0031223Y0003940D01*
X0030907Y0004062D01*
X0030593Y0004191D01*
X0030283Y0004328D01*
X0029976Y0004473D01*
X0029673Y0004625D01*
X0029374Y0004784D01*
X0029079Y0004951D01*
X0028788Y0005125D01*
X0028501Y0005306D01*
X0028219Y0005494D01*
X0027942Y0005689D01*
X0027669Y0005891D01*
X0027402Y0006099D01*
X0027139Y0006314D01*
X0026882Y0006535D01*
X0026631Y0006762D01*
X0026385Y0006996D01*
X0026145Y0007235D01*
X0025911Y0007480D01*
X0025683Y0007731D01*
X0025461Y0007988D01*
X0025246Y0008250D01*
X0025037Y0008517D01*
X0024835Y0008789D01*
X0024639Y0009066D01*
X0024451Y0009347D01*
X0024269Y0009634D01*
X0024094Y0009924D01*
X0023927Y0010219D01*
X0023767Y0010518D01*
X0023614Y0010821D01*
X0023468Y0011127D01*
X0023331Y0011437D01*
X0023201Y0011750D01*
X0023078Y0012066D01*
X0022964Y0012385D01*
X0022857Y0012707D01*
X0022758Y0013031D01*
X0022667Y0013358D01*
X0022585Y0013687D01*
X0022510Y0014017D01*
X0022443Y0014350D01*
X0022385Y0014684D01*
X0022335Y0015019D01*
D11*
X0106085Y0082559D03*
X0106085Y0088858D03*
X0138585Y0088858D03*
X0138585Y0082559D03*
X0146085Y0082559D03*
X0146085Y0088858D03*
X0144835Y0053858D03*
X0144835Y0047559D03*
X0134835Y0047559D03*
X0134835Y0053858D03*
X0124835Y0053858D03*
X0124835Y0047559D03*
X0114835Y0047559D03*
X0114835Y0053858D03*
X0124835Y0016983D03*
X0124835Y0010684D03*
X0154835Y0047559D03*
X0154835Y0053858D03*
X0223585Y0085059D03*
X0223585Y0091358D03*
X0131509Y0127952D03*
X0131509Y0134252D03*
X0098585Y0131309D03*
X0098585Y0137608D03*
X0098585Y0143809D03*
X0098585Y0150108D03*
X0029835Y0144360D03*
X0029835Y0138061D03*
D12*
X0067463Y0079458D03*
X0067463Y0074458D03*
X0067463Y0069458D03*
X0067463Y0064458D03*
X0067463Y0059458D03*
X0067463Y0054458D03*
X0067463Y0049458D03*
X0067463Y0044458D03*
X0089707Y0044458D03*
X0089707Y0049458D03*
X0089707Y0054458D03*
X0089707Y0059458D03*
X0089707Y0064458D03*
X0089707Y0069458D03*
X0089707Y0074458D03*
X0089707Y0079458D03*
X0173713Y0079458D03*
X0173713Y0074458D03*
X0173713Y0069458D03*
X0173713Y0064458D03*
X0173713Y0059458D03*
X0173713Y0054458D03*
X0173713Y0049458D03*
X0173713Y0044458D03*
X0195957Y0044458D03*
X0195957Y0049458D03*
X0195957Y0054458D03*
X0195957Y0059458D03*
X0195957Y0064458D03*
X0195957Y0069458D03*
X0195957Y0074458D03*
X0195957Y0079458D03*
D13*
X0197335Y0090836D03*
X0192335Y0090836D03*
X0187335Y0090836D03*
X0202335Y0090836D03*
X0207335Y0090836D03*
X0212335Y0090836D03*
X0217335Y0090836D03*
X0217335Y0113080D03*
X0212335Y0113080D03*
X0207335Y0113080D03*
X0202335Y0113080D03*
X0197335Y0113080D03*
X0192335Y0113080D03*
X0187335Y0113080D03*
D14*
X0199186Y0121958D03*
X0205485Y0121958D03*
X0212936Y0121958D03*
X0219235Y0121958D03*
X0219235Y0129458D03*
X0212936Y0129458D03*
X0205485Y0129458D03*
X0199186Y0129458D03*
X0199186Y0136958D03*
X0205485Y0136958D03*
X0212936Y0136958D03*
X0219235Y0136958D03*
X0171735Y0134458D03*
X0165436Y0134458D03*
X0165436Y0126958D03*
X0171735Y0126958D03*
X0171735Y0119458D03*
X0165436Y0119458D03*
X0157985Y0119458D03*
X0151686Y0119458D03*
X0144235Y0119458D03*
X0137936Y0119458D03*
X0121735Y0133208D03*
X0115436Y0133208D03*
X0115436Y0161958D03*
X0121735Y0161958D03*
D15*
X0116085Y0089645D03*
X0112345Y0081771D03*
X0119826Y0081771D03*
X0124845Y0081771D03*
X0132326Y0081771D03*
X0128585Y0089645D03*
X0152345Y0081771D03*
X0159826Y0081771D03*
X0156085Y0089645D03*
X0108576Y0054645D03*
X0101095Y0054645D03*
X0104835Y0046771D03*
D16*
X0074904Y0098208D03*
X0074904Y0103208D03*
X0074904Y0108208D03*
X0074904Y0113208D03*
X0074904Y0118208D03*
X0074904Y0123208D03*
X0074904Y0128208D03*
X0074904Y0133208D03*
X0074904Y0138208D03*
X0074904Y0143208D03*
X0074904Y0148208D03*
X0074904Y0153208D03*
X0074904Y0158208D03*
X0074904Y0163208D03*
X0037267Y0163208D03*
X0037267Y0158208D03*
X0037267Y0153208D03*
X0037267Y0148208D03*
X0037267Y0143208D03*
X0037267Y0138208D03*
X0037267Y0133208D03*
X0037267Y0128208D03*
X0037267Y0123208D03*
X0037267Y0118208D03*
X0037267Y0113208D03*
X0037267Y0108208D03*
X0037267Y0103208D03*
X0037267Y0098208D03*
D17*
X0087335Y0132637D03*
X0087335Y0148779D03*
D18*
X0139924Y0133208D03*
X0139924Y0130708D03*
X0139924Y0128208D03*
X0139924Y0125708D03*
X0157247Y0125708D03*
X0157247Y0128208D03*
X0157247Y0130708D03*
X0157247Y0133208D03*
D19*
X0128241Y0148208D03*
X0116430Y0148208D03*
D20*
X0145879Y0151082D03*
X0145879Y0141397D03*
X0156902Y0141397D03*
X0156902Y0151082D03*
D21*
X0150544Y0189458D03*
X0139127Y0189458D03*
M02*
