G75*
%MOIN*%
%OFA0B0*%
%FSLAX25Y25*%
%IPPOS*%
%LPD*%
%AMOC8*
5,1,8,0,0,1.08239X$1,22.5*
%
%ADD10C,0.00800*%
%ADD11C,0.05906*%
%ADD12C,0.04800*%
%ADD13C,0.07677*%
%ADD14C,0.08661*%
%ADD15OC8,0.08661*%
%ADD16C,0.03562*%
%ADD17C,0.19685*%
%ADD18C,0.02400*%
%ADD19C,0.02775*%
%ADD20C,0.01200*%
D10*
X0034146Y0040429D02*
X0266430Y0040429D01*
X0266430Y0042429D02*
X0034146Y0042429D01*
X0032612Y0042550D01*
X0029692Y0043498D01*
X0027209Y0045303D01*
X0025405Y0047786D01*
X0024456Y0050705D01*
X0024335Y0052240D01*
X0024335Y0225469D01*
X0024456Y0227003D01*
X0025405Y0229923D01*
X0027209Y0232406D01*
X0029692Y0234210D01*
X0032612Y0235159D01*
X0034146Y0235280D01*
X0266430Y0235280D01*
X0267965Y0235159D01*
X0270884Y0234210D01*
X0273367Y0232406D01*
X0275172Y0229923D01*
X0276120Y0227003D01*
X0276241Y0225469D01*
X0276241Y0052240D01*
X0276120Y0050705D01*
X0275172Y0047786D01*
X0273367Y0045303D01*
X0270884Y0043498D01*
X0267965Y0042550D01*
X0266430Y0042429D01*
X0268810Y0042825D02*
X0031766Y0042825D01*
X0029521Y0043623D02*
X0123952Y0043623D01*
X0124493Y0043399D02*
X0123022Y0044008D01*
X0121897Y0045133D01*
X0121288Y0046604D01*
X0121288Y0052995D01*
X0121291Y0053001D01*
X0120392Y0052629D01*
X0111817Y0052629D01*
X0111751Y0052563D01*
X0110508Y0052048D01*
X0109163Y0052048D01*
X0107920Y0052563D01*
X0106969Y0053514D01*
X0106454Y0054757D01*
X0106454Y0056102D01*
X0106969Y0057344D01*
X0107920Y0058295D01*
X0109163Y0058810D01*
X0110508Y0058810D01*
X0111751Y0058295D01*
X0111817Y0058229D01*
X0118676Y0058229D01*
X0119962Y0059515D01*
X0120749Y0060303D01*
X0121778Y0060729D01*
X0180392Y0060729D01*
X0181421Y0060303D01*
X0187914Y0053810D01*
X0188008Y0053810D01*
X0189251Y0053295D01*
X0190202Y0052344D01*
X0190717Y0051102D01*
X0190717Y0049757D01*
X0190202Y0048514D01*
X0189251Y0047563D01*
X0188008Y0047048D01*
X0186663Y0047048D01*
X0185420Y0047563D01*
X0184469Y0048514D01*
X0183954Y0049757D01*
X0183954Y0049850D01*
X0178676Y0055129D01*
X0178015Y0055129D01*
X0178679Y0054465D01*
X0179288Y0052995D01*
X0179288Y0046604D01*
X0178679Y0045133D01*
X0177554Y0044008D01*
X0176084Y0043399D01*
X0174493Y0043399D01*
X0173022Y0044008D01*
X0171897Y0045133D01*
X0171288Y0046604D01*
X0171288Y0052995D01*
X0171897Y0054465D01*
X0172561Y0055129D01*
X0168015Y0055129D01*
X0168679Y0054465D01*
X0169288Y0052995D01*
X0169288Y0046604D01*
X0168679Y0045133D01*
X0167554Y0044008D01*
X0166084Y0043399D01*
X0164493Y0043399D01*
X0163022Y0044008D01*
X0161897Y0045133D01*
X0161288Y0046604D01*
X0161288Y0052995D01*
X0161897Y0054465D01*
X0162561Y0055129D01*
X0158015Y0055129D01*
X0158679Y0054465D01*
X0159288Y0052995D01*
X0159288Y0046604D01*
X0158679Y0045133D01*
X0157554Y0044008D01*
X0156084Y0043399D01*
X0154493Y0043399D01*
X0153022Y0044008D01*
X0151897Y0045133D01*
X0151288Y0046604D01*
X0151288Y0052995D01*
X0151897Y0054465D01*
X0152561Y0055129D01*
X0148015Y0055129D01*
X0148679Y0054465D01*
X0149288Y0052995D01*
X0149288Y0046604D01*
X0148679Y0045133D01*
X0147554Y0044008D01*
X0146084Y0043399D01*
X0144493Y0043399D01*
X0143022Y0044008D01*
X0141897Y0045133D01*
X0141288Y0046604D01*
X0141288Y0052995D01*
X0141897Y0054465D01*
X0142561Y0055129D01*
X0138015Y0055129D01*
X0138679Y0054465D01*
X0139288Y0052995D01*
X0139288Y0046604D01*
X0138679Y0045133D01*
X0137554Y0044008D01*
X0136084Y0043399D01*
X0134493Y0043399D01*
X0133022Y0044008D01*
X0131897Y0045133D01*
X0131288Y0046604D01*
X0131288Y0052995D01*
X0131897Y0054465D01*
X0132561Y0055129D01*
X0128015Y0055129D01*
X0128679Y0054465D01*
X0129288Y0052995D01*
X0129288Y0046604D01*
X0128679Y0045133D01*
X0127554Y0044008D01*
X0126084Y0043399D01*
X0124493Y0043399D01*
X0126625Y0043623D02*
X0133952Y0043623D01*
X0132609Y0044422D02*
X0127968Y0044422D01*
X0128715Y0045220D02*
X0131861Y0045220D01*
X0131530Y0046019D02*
X0129046Y0046019D01*
X0129288Y0046817D02*
X0131288Y0046817D01*
X0131288Y0047616D02*
X0129288Y0047616D01*
X0129288Y0048414D02*
X0131288Y0048414D01*
X0131288Y0049213D02*
X0129288Y0049213D01*
X0129288Y0050011D02*
X0131288Y0050011D01*
X0131288Y0050810D02*
X0129288Y0050810D01*
X0129288Y0051608D02*
X0131288Y0051608D01*
X0131288Y0052407D02*
X0129288Y0052407D01*
X0129201Y0053205D02*
X0131375Y0053205D01*
X0131706Y0054004D02*
X0128870Y0054004D01*
X0128342Y0054802D02*
X0132234Y0054802D01*
X0138342Y0054802D02*
X0142234Y0054802D01*
X0141706Y0054004D02*
X0138870Y0054004D01*
X0139201Y0053205D02*
X0141375Y0053205D01*
X0141288Y0052407D02*
X0139288Y0052407D01*
X0139288Y0051608D02*
X0141288Y0051608D01*
X0141288Y0050810D02*
X0139288Y0050810D01*
X0139288Y0050011D02*
X0141288Y0050011D01*
X0141288Y0049213D02*
X0139288Y0049213D01*
X0139288Y0048414D02*
X0141288Y0048414D01*
X0141288Y0047616D02*
X0139288Y0047616D01*
X0139288Y0046817D02*
X0141288Y0046817D01*
X0141530Y0046019D02*
X0139046Y0046019D01*
X0138715Y0045220D02*
X0141861Y0045220D01*
X0142609Y0044422D02*
X0137968Y0044422D01*
X0136625Y0043623D02*
X0143952Y0043623D01*
X0146625Y0043623D02*
X0153952Y0043623D01*
X0152609Y0044422D02*
X0147968Y0044422D01*
X0148715Y0045220D02*
X0151861Y0045220D01*
X0151530Y0046019D02*
X0149046Y0046019D01*
X0149288Y0046817D02*
X0151288Y0046817D01*
X0151288Y0047616D02*
X0149288Y0047616D01*
X0149288Y0048414D02*
X0151288Y0048414D01*
X0151288Y0049213D02*
X0149288Y0049213D01*
X0149288Y0050011D02*
X0151288Y0050011D01*
X0151288Y0050810D02*
X0149288Y0050810D01*
X0149288Y0051608D02*
X0151288Y0051608D01*
X0151288Y0052407D02*
X0149288Y0052407D01*
X0149201Y0053205D02*
X0151375Y0053205D01*
X0151706Y0054004D02*
X0148870Y0054004D01*
X0148342Y0054802D02*
X0152234Y0054802D01*
X0158342Y0054802D02*
X0162234Y0054802D01*
X0161706Y0054004D02*
X0158870Y0054004D01*
X0159201Y0053205D02*
X0161375Y0053205D01*
X0161288Y0052407D02*
X0159288Y0052407D01*
X0159288Y0051608D02*
X0161288Y0051608D01*
X0161288Y0050810D02*
X0159288Y0050810D01*
X0159288Y0050011D02*
X0161288Y0050011D01*
X0161288Y0049213D02*
X0159288Y0049213D01*
X0159288Y0048414D02*
X0161288Y0048414D01*
X0161288Y0047616D02*
X0159288Y0047616D01*
X0159288Y0046817D02*
X0161288Y0046817D01*
X0161530Y0046019D02*
X0159046Y0046019D01*
X0158715Y0045220D02*
X0161861Y0045220D01*
X0162609Y0044422D02*
X0157968Y0044422D01*
X0156625Y0043623D02*
X0163952Y0043623D01*
X0166625Y0043623D02*
X0173952Y0043623D01*
X0172609Y0044422D02*
X0167968Y0044422D01*
X0168715Y0045220D02*
X0171861Y0045220D01*
X0171530Y0046019D02*
X0169046Y0046019D01*
X0169288Y0046817D02*
X0171288Y0046817D01*
X0171288Y0047616D02*
X0169288Y0047616D01*
X0169288Y0048414D02*
X0171288Y0048414D01*
X0171288Y0049213D02*
X0169288Y0049213D01*
X0169288Y0050011D02*
X0171288Y0050011D01*
X0171288Y0050810D02*
X0169288Y0050810D01*
X0169288Y0051608D02*
X0171288Y0051608D01*
X0171288Y0052407D02*
X0169288Y0052407D01*
X0169201Y0053205D02*
X0171375Y0053205D01*
X0171706Y0054004D02*
X0168870Y0054004D01*
X0168342Y0054802D02*
X0172234Y0054802D01*
X0178342Y0054802D02*
X0179002Y0054802D01*
X0178870Y0054004D02*
X0179801Y0054004D01*
X0179201Y0053205D02*
X0180599Y0053205D01*
X0181398Y0052407D02*
X0179288Y0052407D01*
X0179288Y0051608D02*
X0182196Y0051608D01*
X0182995Y0050810D02*
X0179288Y0050810D01*
X0179288Y0050011D02*
X0183793Y0050011D01*
X0184180Y0049213D02*
X0179288Y0049213D01*
X0179288Y0048414D02*
X0184569Y0048414D01*
X0185367Y0047616D02*
X0179288Y0047616D01*
X0179288Y0046817D02*
X0274468Y0046817D01*
X0273888Y0046019D02*
X0179046Y0046019D01*
X0178715Y0045220D02*
X0273254Y0045220D01*
X0272155Y0044422D02*
X0177968Y0044422D01*
X0176625Y0043623D02*
X0271056Y0043623D01*
X0275048Y0047616D02*
X0189304Y0047616D01*
X0190102Y0048414D02*
X0275376Y0048414D01*
X0275635Y0049213D02*
X0190491Y0049213D01*
X0190717Y0050011D02*
X0275895Y0050011D01*
X0276128Y0050810D02*
X0190717Y0050810D01*
X0190507Y0051608D02*
X0276191Y0051608D01*
X0276241Y0052407D02*
X0190139Y0052407D01*
X0189341Y0053205D02*
X0276241Y0053205D01*
X0276241Y0054004D02*
X0187721Y0054004D01*
X0186922Y0054802D02*
X0276241Y0054802D01*
X0276241Y0055601D02*
X0186123Y0055601D01*
X0185325Y0056399D02*
X0276241Y0056399D01*
X0276241Y0057198D02*
X0184526Y0057198D01*
X0183728Y0057996D02*
X0276241Y0057996D01*
X0276241Y0058795D02*
X0182929Y0058795D01*
X0182131Y0059593D02*
X0276241Y0059593D01*
X0276241Y0060392D02*
X0181206Y0060392D01*
X0181663Y0064548D02*
X0183008Y0064548D01*
X0184251Y0065063D01*
X0185202Y0066014D01*
X0185717Y0067257D01*
X0185717Y0068602D01*
X0185202Y0069844D01*
X0185135Y0069911D01*
X0185135Y0074698D01*
X0185202Y0074764D01*
X0185717Y0076007D01*
X0185717Y0077352D01*
X0185202Y0078594D01*
X0185135Y0078661D01*
X0185135Y0083486D01*
X0184709Y0084515D01*
X0181967Y0087258D01*
X0181967Y0087352D01*
X0181452Y0088594D01*
X0180501Y0089545D01*
X0179258Y0090060D01*
X0177913Y0090060D01*
X0176670Y0089545D01*
X0175719Y0088594D01*
X0175204Y0087352D01*
X0175204Y0086007D01*
X0175719Y0084764D01*
X0176670Y0083813D01*
X0177913Y0083298D01*
X0178007Y0083298D01*
X0179535Y0081769D01*
X0179535Y0078661D01*
X0179469Y0078594D01*
X0178954Y0077352D01*
X0178954Y0076007D01*
X0179469Y0074764D01*
X0179535Y0074698D01*
X0179535Y0069911D01*
X0179469Y0069844D01*
X0178954Y0068602D01*
X0178954Y0067257D01*
X0179469Y0066014D01*
X0180420Y0065063D01*
X0181663Y0064548D01*
X0180300Y0065183D02*
X0024335Y0065183D01*
X0024335Y0065981D02*
X0179501Y0065981D01*
X0179152Y0066780D02*
X0130411Y0066780D01*
X0130278Y0066647D02*
X0131118Y0067487D01*
X0131573Y0068585D01*
X0131573Y0069773D01*
X0131118Y0070871D01*
X0130785Y0071204D01*
X0130785Y0080090D01*
X0121573Y0089303D01*
X0121573Y0089773D01*
X0121118Y0090871D01*
X0120278Y0091712D01*
X0119180Y0092167D01*
X0117991Y0092167D01*
X0116893Y0091712D01*
X0116053Y0090871D01*
X0115598Y0089773D01*
X0115598Y0088585D01*
X0116053Y0087487D01*
X0116893Y0086647D01*
X0117991Y0086192D01*
X0118462Y0086192D01*
X0126385Y0078268D01*
X0126385Y0071204D01*
X0126053Y0070871D01*
X0125598Y0069773D01*
X0125598Y0068585D01*
X0126053Y0067487D01*
X0126893Y0066647D01*
X0127991Y0066192D01*
X0129180Y0066192D01*
X0130278Y0066647D01*
X0131156Y0067579D02*
X0178954Y0067579D01*
X0178954Y0068377D02*
X0131487Y0068377D01*
X0131573Y0069176D02*
X0179192Y0069176D01*
X0179535Y0069974D02*
X0131490Y0069974D01*
X0131159Y0070773D02*
X0179535Y0070773D01*
X0179535Y0071571D02*
X0130785Y0071571D01*
X0130785Y0072370D02*
X0179535Y0072370D01*
X0179535Y0073168D02*
X0130785Y0073168D01*
X0130785Y0073967D02*
X0179535Y0073967D01*
X0179469Y0074765D02*
X0130785Y0074765D01*
X0130785Y0075564D02*
X0179138Y0075564D01*
X0178954Y0076362D02*
X0130785Y0076362D01*
X0130785Y0077161D02*
X0178954Y0077161D01*
X0179206Y0077959D02*
X0130785Y0077959D01*
X0130785Y0078758D02*
X0179535Y0078758D01*
X0179535Y0079556D02*
X0130785Y0079556D01*
X0130521Y0080355D02*
X0179535Y0080355D01*
X0179535Y0081153D02*
X0129723Y0081153D01*
X0128924Y0081952D02*
X0179353Y0081952D01*
X0178555Y0082750D02*
X0128126Y0082750D01*
X0127327Y0083549D02*
X0177308Y0083549D01*
X0176136Y0084347D02*
X0126529Y0084347D01*
X0125730Y0085146D02*
X0175561Y0085146D01*
X0175230Y0085944D02*
X0124932Y0085944D01*
X0124133Y0086743D02*
X0175204Y0086743D01*
X0175283Y0087541D02*
X0123335Y0087541D01*
X0122536Y0088340D02*
X0175614Y0088340D01*
X0176263Y0089138D02*
X0121737Y0089138D01*
X0121505Y0089937D02*
X0177615Y0089937D01*
X0179556Y0089937D02*
X0276241Y0089937D01*
X0276241Y0090735D02*
X0121174Y0090735D01*
X0120456Y0091534D02*
X0276241Y0091534D01*
X0276241Y0092332D02*
X0024335Y0092332D01*
X0024335Y0091534D02*
X0116715Y0091534D01*
X0115996Y0090735D02*
X0024335Y0090735D01*
X0024335Y0089937D02*
X0115666Y0089937D01*
X0115598Y0089138D02*
X0024335Y0089138D01*
X0024335Y0088340D02*
X0115700Y0088340D01*
X0116030Y0087541D02*
X0024335Y0087541D01*
X0024335Y0086743D02*
X0116797Y0086743D01*
X0118709Y0085944D02*
X0038138Y0085944D01*
X0037444Y0086232D02*
X0039117Y0085539D01*
X0040398Y0084258D01*
X0041091Y0082585D01*
X0041091Y0080774D01*
X0040398Y0079100D01*
X0039117Y0077819D01*
X0037444Y0077126D01*
X0029727Y0077126D01*
X0028054Y0077819D01*
X0026773Y0079100D01*
X0026080Y0080774D01*
X0026080Y0082585D01*
X0026773Y0084258D01*
X0028054Y0085539D01*
X0029727Y0086232D01*
X0037444Y0086232D01*
X0039510Y0085146D02*
X0119508Y0085146D01*
X0120306Y0084347D02*
X0040309Y0084347D01*
X0040692Y0083549D02*
X0121105Y0083549D01*
X0121903Y0082750D02*
X0041022Y0082750D01*
X0041091Y0081952D02*
X0122702Y0081952D01*
X0123500Y0081153D02*
X0041091Y0081153D01*
X0040917Y0080355D02*
X0124299Y0080355D01*
X0125097Y0079556D02*
X0040587Y0079556D01*
X0040055Y0078758D02*
X0125896Y0078758D01*
X0126385Y0077959D02*
X0039257Y0077959D01*
X0037527Y0077161D02*
X0126385Y0077161D01*
X0126385Y0076362D02*
X0024335Y0076362D01*
X0024335Y0075564D02*
X0028114Y0075564D01*
X0028054Y0075539D02*
X0026773Y0074258D01*
X0026080Y0072585D01*
X0026080Y0070774D01*
X0026773Y0069100D01*
X0028054Y0067819D01*
X0029727Y0067126D01*
X0037444Y0067126D01*
X0039117Y0067819D01*
X0040398Y0069100D01*
X0041091Y0070774D01*
X0041091Y0072585D01*
X0040398Y0074258D01*
X0039117Y0075539D01*
X0037444Y0076232D01*
X0029727Y0076232D01*
X0028054Y0075539D01*
X0027280Y0074765D02*
X0024335Y0074765D01*
X0024335Y0073967D02*
X0026652Y0073967D01*
X0026322Y0073168D02*
X0024335Y0073168D01*
X0024335Y0072370D02*
X0026080Y0072370D01*
X0026080Y0071571D02*
X0024335Y0071571D01*
X0024335Y0070773D02*
X0026080Y0070773D01*
X0026411Y0069974D02*
X0024335Y0069974D01*
X0024335Y0069176D02*
X0026742Y0069176D01*
X0027496Y0068377D02*
X0024335Y0068377D01*
X0024335Y0067579D02*
X0028635Y0067579D01*
X0024335Y0066780D02*
X0126760Y0066780D01*
X0126015Y0067579D02*
X0038535Y0067579D01*
X0039675Y0068377D02*
X0125684Y0068377D01*
X0125598Y0069176D02*
X0040429Y0069176D01*
X0040760Y0069974D02*
X0125681Y0069974D01*
X0126012Y0070773D02*
X0041091Y0070773D01*
X0041091Y0071571D02*
X0126385Y0071571D01*
X0126385Y0072370D02*
X0041091Y0072370D01*
X0040849Y0073168D02*
X0126385Y0073168D01*
X0126385Y0073967D02*
X0040519Y0073967D01*
X0039891Y0074765D02*
X0126385Y0074765D01*
X0126385Y0075564D02*
X0039057Y0075564D01*
X0029644Y0077161D02*
X0024335Y0077161D01*
X0024335Y0077959D02*
X0027914Y0077959D01*
X0027116Y0078758D02*
X0024335Y0078758D01*
X0024335Y0079556D02*
X0026584Y0079556D01*
X0026253Y0080355D02*
X0024335Y0080355D01*
X0024335Y0081153D02*
X0026080Y0081153D01*
X0026080Y0081952D02*
X0024335Y0081952D01*
X0024335Y0082750D02*
X0026148Y0082750D01*
X0026479Y0083549D02*
X0024335Y0083549D01*
X0024335Y0084347D02*
X0026862Y0084347D01*
X0027661Y0085146D02*
X0024335Y0085146D01*
X0024335Y0085944D02*
X0029033Y0085944D01*
X0024335Y0093131D02*
X0276241Y0093131D01*
X0276241Y0093929D02*
X0140617Y0093929D01*
X0140501Y0093813D02*
X0141452Y0094764D01*
X0141967Y0096007D01*
X0141967Y0097352D01*
X0141452Y0098594D01*
X0140501Y0099545D01*
X0139258Y0100060D01*
X0139164Y0100060D01*
X0135959Y0103265D01*
X0135825Y0103399D01*
X0136084Y0103399D01*
X0137554Y0104008D01*
X0138679Y0105133D01*
X0139288Y0106604D01*
X0139288Y0112995D01*
X0138679Y0114465D01*
X0137554Y0115590D01*
X0136084Y0116199D01*
X0134493Y0116199D01*
X0133022Y0115590D01*
X0131897Y0114465D01*
X0131288Y0112995D01*
X0131288Y0106604D01*
X0131897Y0105133D01*
X0132551Y0104479D01*
X0128025Y0104479D01*
X0128679Y0105133D01*
X0129288Y0106604D01*
X0129288Y0112995D01*
X0128679Y0114465D01*
X0127554Y0115590D01*
X0126178Y0116160D01*
X0126997Y0116979D01*
X0147811Y0116979D01*
X0148143Y0116647D01*
X0149241Y0116192D01*
X0150430Y0116192D01*
X0151528Y0116647D01*
X0152368Y0117487D01*
X0152823Y0118585D01*
X0152823Y0119773D01*
X0152368Y0120871D01*
X0151528Y0121712D01*
X0150430Y0122167D01*
X0149241Y0122167D01*
X0148954Y0122047D01*
X0149073Y0122335D01*
X0149073Y0123523D01*
X0148618Y0124621D01*
X0147778Y0125462D01*
X0146680Y0125917D01*
X0145491Y0125917D01*
X0144393Y0125462D01*
X0144061Y0125129D01*
X0125174Y0125129D01*
X0123885Y0123840D01*
X0114712Y0114667D01*
X0114283Y0114667D01*
X0118921Y0119305D01*
X0118921Y0119305D01*
X0119709Y0120093D01*
X0120135Y0121122D01*
X0120135Y0124698D01*
X0120202Y0124764D01*
X0120717Y0126007D01*
X0120717Y0127352D01*
X0120202Y0128594D01*
X0119251Y0129545D01*
X0118008Y0130060D01*
X0116663Y0130060D01*
X0115420Y0129545D01*
X0114469Y0128594D01*
X0113954Y0127352D01*
X0113954Y0126007D01*
X0114469Y0124764D01*
X0114535Y0124698D01*
X0114535Y0122839D01*
X0109535Y0117839D01*
X0109535Y0129654D01*
X0109868Y0129987D01*
X0110323Y0131085D01*
X0110323Y0132273D01*
X0109868Y0133371D01*
X0109028Y0134212D01*
X0107930Y0134667D01*
X0106741Y0134667D01*
X0105643Y0134212D01*
X0105460Y0134029D01*
X0105278Y0134212D01*
X0104180Y0134667D01*
X0102991Y0134667D01*
X0101893Y0134212D01*
X0101053Y0133371D01*
X0100598Y0132273D01*
X0100598Y0131085D01*
X0101053Y0129987D01*
X0101385Y0129654D01*
X0101385Y0106204D01*
X0101053Y0105871D01*
X0100598Y0104773D01*
X0100598Y0103585D01*
X0101053Y0102487D01*
X0101893Y0101647D01*
X0102991Y0101192D01*
X0104180Y0101192D01*
X0105278Y0101647D01*
X0105460Y0101829D01*
X0105643Y0101647D01*
X0106741Y0101192D01*
X0107930Y0101192D01*
X0109028Y0101647D01*
X0109868Y0102487D01*
X0109927Y0102628D01*
X0113249Y0099305D01*
X0114278Y0098879D01*
X0132426Y0098879D01*
X0135204Y0096100D01*
X0135204Y0096007D01*
X0135719Y0094764D01*
X0136670Y0093813D01*
X0137913Y0093298D01*
X0139258Y0093298D01*
X0140501Y0093813D01*
X0141416Y0094728D02*
X0276241Y0094728D01*
X0276241Y0095526D02*
X0141768Y0095526D01*
X0141967Y0096325D02*
X0276241Y0096325D01*
X0276241Y0097123D02*
X0141967Y0097123D01*
X0141730Y0097922D02*
X0276241Y0097922D01*
X0276241Y0098720D02*
X0141326Y0098720D01*
X0140527Y0099519D02*
X0276241Y0099519D01*
X0276241Y0100317D02*
X0138907Y0100317D01*
X0138108Y0101116D02*
X0276241Y0101116D01*
X0276241Y0101915D02*
X0137310Y0101915D01*
X0136511Y0102713D02*
X0276241Y0102713D01*
X0276241Y0103512D02*
X0176355Y0103512D01*
X0176084Y0103399D02*
X0177554Y0104008D01*
X0178679Y0105133D01*
X0179288Y0106604D01*
X0179288Y0112995D01*
X0178679Y0114465D01*
X0177554Y0115590D01*
X0176084Y0116199D01*
X0174493Y0116199D01*
X0173022Y0115590D01*
X0171897Y0114465D01*
X0171288Y0112995D01*
X0171288Y0106604D01*
X0171897Y0105133D01*
X0173022Y0104008D01*
X0174493Y0103399D01*
X0176084Y0103399D01*
X0174221Y0103512D02*
X0166355Y0103512D01*
X0166084Y0103399D02*
X0167554Y0104008D01*
X0168679Y0105133D01*
X0169288Y0106604D01*
X0169288Y0112995D01*
X0168679Y0114465D01*
X0167554Y0115590D01*
X0166084Y0116199D01*
X0164493Y0116199D01*
X0163022Y0115590D01*
X0161897Y0114465D01*
X0161288Y0112995D01*
X0161288Y0106604D01*
X0161897Y0105133D01*
X0163022Y0104008D01*
X0164493Y0103399D01*
X0166084Y0103399D01*
X0164221Y0103512D02*
X0156355Y0103512D01*
X0156084Y0103399D02*
X0157554Y0104008D01*
X0158679Y0105133D01*
X0159288Y0106604D01*
X0159288Y0112995D01*
X0158679Y0114465D01*
X0157554Y0115590D01*
X0156084Y0116199D01*
X0154493Y0116199D01*
X0153022Y0115590D01*
X0151897Y0114465D01*
X0151288Y0112995D01*
X0151288Y0106604D01*
X0151897Y0105133D01*
X0153022Y0104008D01*
X0154493Y0103399D01*
X0156084Y0103399D01*
X0154221Y0103512D02*
X0146355Y0103512D01*
X0146084Y0103399D02*
X0147554Y0104008D01*
X0148679Y0105133D01*
X0149288Y0106604D01*
X0149288Y0112995D01*
X0148679Y0114465D01*
X0147554Y0115590D01*
X0146084Y0116199D01*
X0144493Y0116199D01*
X0143022Y0115590D01*
X0141897Y0114465D01*
X0141288Y0112995D01*
X0141288Y0106604D01*
X0141897Y0105133D01*
X0143022Y0104008D01*
X0144493Y0103399D01*
X0146084Y0103399D01*
X0144221Y0103512D02*
X0136355Y0103512D01*
X0137856Y0104310D02*
X0142720Y0104310D01*
X0141922Y0105109D02*
X0138654Y0105109D01*
X0139000Y0105907D02*
X0141577Y0105907D01*
X0141288Y0106706D02*
X0139288Y0106706D01*
X0139288Y0107504D02*
X0141288Y0107504D01*
X0141288Y0108303D02*
X0139288Y0108303D01*
X0139288Y0109101D02*
X0141288Y0109101D01*
X0141288Y0109900D02*
X0139288Y0109900D01*
X0139288Y0110698D02*
X0141288Y0110698D01*
X0141288Y0111497D02*
X0139288Y0111497D01*
X0139288Y0112295D02*
X0141288Y0112295D01*
X0141329Y0113094D02*
X0139247Y0113094D01*
X0138916Y0113892D02*
X0141660Y0113892D01*
X0142123Y0114691D02*
X0138454Y0114691D01*
X0137655Y0115489D02*
X0142921Y0115489D01*
X0147655Y0115489D02*
X0152921Y0115489D01*
X0152123Y0114691D02*
X0148454Y0114691D01*
X0148916Y0113892D02*
X0151660Y0113892D01*
X0151329Y0113094D02*
X0149247Y0113094D01*
X0149288Y0112295D02*
X0151288Y0112295D01*
X0151288Y0111497D02*
X0149288Y0111497D01*
X0149288Y0110698D02*
X0151288Y0110698D01*
X0151288Y0109900D02*
X0149288Y0109900D01*
X0149288Y0109101D02*
X0151288Y0109101D01*
X0151288Y0108303D02*
X0149288Y0108303D01*
X0149288Y0107504D02*
X0151288Y0107504D01*
X0151288Y0106706D02*
X0149288Y0106706D01*
X0149000Y0105907D02*
X0151577Y0105907D01*
X0151922Y0105109D02*
X0148654Y0105109D01*
X0147856Y0104310D02*
X0152720Y0104310D01*
X0157856Y0104310D02*
X0162720Y0104310D01*
X0161922Y0105109D02*
X0158654Y0105109D01*
X0159000Y0105907D02*
X0161577Y0105907D01*
X0161288Y0106706D02*
X0159288Y0106706D01*
X0159288Y0107504D02*
X0161288Y0107504D01*
X0161288Y0108303D02*
X0159288Y0108303D01*
X0159288Y0109101D02*
X0161288Y0109101D01*
X0161288Y0109900D02*
X0159288Y0109900D01*
X0159288Y0110698D02*
X0161288Y0110698D01*
X0161288Y0111497D02*
X0159288Y0111497D01*
X0159288Y0112295D02*
X0161288Y0112295D01*
X0161329Y0113094D02*
X0159247Y0113094D01*
X0158916Y0113892D02*
X0161660Y0113892D01*
X0162123Y0114691D02*
X0158454Y0114691D01*
X0157655Y0115489D02*
X0162921Y0115489D01*
X0167655Y0115489D02*
X0172921Y0115489D01*
X0172123Y0114691D02*
X0168454Y0114691D01*
X0168916Y0113892D02*
X0171660Y0113892D01*
X0171329Y0113094D02*
X0169247Y0113094D01*
X0169288Y0112295D02*
X0171288Y0112295D01*
X0171288Y0111497D02*
X0169288Y0111497D01*
X0169288Y0110698D02*
X0171288Y0110698D01*
X0171288Y0109900D02*
X0169288Y0109900D01*
X0169288Y0109101D02*
X0171288Y0109101D01*
X0171288Y0108303D02*
X0169288Y0108303D01*
X0169288Y0107504D02*
X0171288Y0107504D01*
X0171288Y0106706D02*
X0169288Y0106706D01*
X0169000Y0105907D02*
X0171577Y0105907D01*
X0171922Y0105109D02*
X0168654Y0105109D01*
X0167856Y0104310D02*
X0172720Y0104310D01*
X0177856Y0104310D02*
X0276241Y0104310D01*
X0276241Y0105109D02*
X0178654Y0105109D01*
X0179000Y0105907D02*
X0276241Y0105907D01*
X0276241Y0106706D02*
X0179288Y0106706D01*
X0179288Y0107504D02*
X0186812Y0107504D01*
X0186670Y0107563D02*
X0187913Y0107048D01*
X0189258Y0107048D01*
X0190501Y0107563D01*
X0191452Y0108514D01*
X0191967Y0109757D01*
X0191967Y0111102D01*
X0191452Y0112344D01*
X0191385Y0112411D01*
X0191385Y0124698D01*
X0191452Y0124764D01*
X0191967Y0126007D01*
X0191967Y0127352D01*
X0191452Y0128594D01*
X0190501Y0129545D01*
X0189258Y0130060D01*
X0187913Y0130060D01*
X0186670Y0129545D01*
X0185719Y0128594D01*
X0185204Y0127352D01*
X0185204Y0126007D01*
X0185719Y0124764D01*
X0185785Y0124698D01*
X0185785Y0112411D01*
X0185719Y0112344D01*
X0185204Y0111102D01*
X0185204Y0109757D01*
X0185719Y0108514D01*
X0186670Y0107563D01*
X0185930Y0108303D02*
X0179288Y0108303D01*
X0179288Y0109101D02*
X0185476Y0109101D01*
X0185204Y0109900D02*
X0179288Y0109900D01*
X0179288Y0110698D02*
X0185204Y0110698D01*
X0185368Y0111497D02*
X0179288Y0111497D01*
X0179288Y0112295D02*
X0185699Y0112295D01*
X0185785Y0113094D02*
X0179247Y0113094D01*
X0178916Y0113892D02*
X0185785Y0113892D01*
X0185785Y0114691D02*
X0178454Y0114691D01*
X0177655Y0115489D02*
X0185785Y0115489D01*
X0185785Y0116288D02*
X0150661Y0116288D01*
X0151967Y0117086D02*
X0185785Y0117086D01*
X0185785Y0117885D02*
X0152533Y0117885D01*
X0152823Y0118683D02*
X0185785Y0118683D01*
X0185785Y0119482D02*
X0152823Y0119482D01*
X0152613Y0120280D02*
X0185785Y0120280D01*
X0185785Y0121079D02*
X0152161Y0121079D01*
X0151128Y0121877D02*
X0185785Y0121877D01*
X0185785Y0122676D02*
X0149073Y0122676D01*
X0149073Y0123474D02*
X0185785Y0123474D01*
X0185785Y0124273D02*
X0148762Y0124273D01*
X0148168Y0125071D02*
X0185592Y0125071D01*
X0185261Y0125870D02*
X0146792Y0125870D01*
X0145378Y0125870D02*
X0120660Y0125870D01*
X0120717Y0126668D02*
X0185204Y0126668D01*
X0185252Y0127467D02*
X0120669Y0127467D01*
X0120338Y0128265D02*
X0185583Y0128265D01*
X0186189Y0129064D02*
X0119732Y0129064D01*
X0118486Y0129862D02*
X0187435Y0129862D01*
X0189736Y0129862D02*
X0276241Y0129862D01*
X0276241Y0129064D02*
X0190982Y0129064D01*
X0191588Y0128265D02*
X0276241Y0128265D01*
X0276241Y0127467D02*
X0191919Y0127467D01*
X0191967Y0126668D02*
X0276241Y0126668D01*
X0276241Y0125870D02*
X0191910Y0125870D01*
X0191579Y0125071D02*
X0276241Y0125071D01*
X0276241Y0124273D02*
X0191385Y0124273D01*
X0191385Y0123474D02*
X0276241Y0123474D01*
X0276241Y0122676D02*
X0191385Y0122676D01*
X0191385Y0121877D02*
X0276241Y0121877D01*
X0276241Y0121079D02*
X0191385Y0121079D01*
X0191385Y0120280D02*
X0276241Y0120280D01*
X0276241Y0119482D02*
X0191385Y0119482D01*
X0191385Y0118683D02*
X0276241Y0118683D01*
X0276241Y0117885D02*
X0191385Y0117885D01*
X0191385Y0117086D02*
X0276241Y0117086D01*
X0276241Y0116288D02*
X0191385Y0116288D01*
X0191385Y0115489D02*
X0276241Y0115489D01*
X0276241Y0114691D02*
X0191385Y0114691D01*
X0191385Y0113892D02*
X0276241Y0113892D01*
X0276241Y0113094D02*
X0191385Y0113094D01*
X0191472Y0112295D02*
X0276241Y0112295D01*
X0276241Y0111497D02*
X0191803Y0111497D01*
X0191967Y0110698D02*
X0276241Y0110698D01*
X0276241Y0109900D02*
X0191967Y0109900D01*
X0191695Y0109101D02*
X0276241Y0109101D01*
X0276241Y0108303D02*
X0191240Y0108303D01*
X0190359Y0107504D02*
X0276241Y0107504D01*
X0276241Y0089138D02*
X0180908Y0089138D01*
X0181557Y0088340D02*
X0276241Y0088340D01*
X0276241Y0087541D02*
X0181888Y0087541D01*
X0182482Y0086743D02*
X0276241Y0086743D01*
X0276241Y0085944D02*
X0183280Y0085944D01*
X0184079Y0085146D02*
X0276241Y0085146D01*
X0276241Y0084347D02*
X0184779Y0084347D01*
X0185109Y0083549D02*
X0276241Y0083549D01*
X0276241Y0082750D02*
X0185135Y0082750D01*
X0185135Y0081952D02*
X0276241Y0081952D01*
X0276241Y0081153D02*
X0185135Y0081153D01*
X0185135Y0080355D02*
X0276241Y0080355D01*
X0276241Y0079556D02*
X0185135Y0079556D01*
X0185135Y0078758D02*
X0276241Y0078758D01*
X0276241Y0077959D02*
X0185465Y0077959D01*
X0185717Y0077161D02*
X0276241Y0077161D01*
X0276241Y0076362D02*
X0185717Y0076362D01*
X0185533Y0075564D02*
X0276241Y0075564D01*
X0276241Y0074765D02*
X0185202Y0074765D01*
X0185135Y0073967D02*
X0276241Y0073967D01*
X0276241Y0073168D02*
X0185135Y0073168D01*
X0185135Y0072370D02*
X0276241Y0072370D01*
X0276241Y0071571D02*
X0185135Y0071571D01*
X0185135Y0070773D02*
X0276241Y0070773D01*
X0276241Y0069974D02*
X0185135Y0069974D01*
X0185479Y0069176D02*
X0276241Y0069176D01*
X0276241Y0068377D02*
X0185717Y0068377D01*
X0185717Y0067579D02*
X0276241Y0067579D01*
X0276241Y0066780D02*
X0185519Y0066780D01*
X0185169Y0065981D02*
X0276241Y0065981D01*
X0276241Y0065183D02*
X0184371Y0065183D01*
X0136554Y0093929D02*
X0024335Y0093929D01*
X0024335Y0094728D02*
X0135755Y0094728D01*
X0135403Y0095526D02*
X0024335Y0095526D01*
X0024335Y0096325D02*
X0134980Y0096325D01*
X0134181Y0097123D02*
X0024335Y0097123D01*
X0024335Y0097922D02*
X0027951Y0097922D01*
X0028054Y0097819D02*
X0029727Y0097126D01*
X0037444Y0097126D01*
X0039117Y0097819D01*
X0040398Y0099100D01*
X0041091Y0100774D01*
X0041091Y0102585D01*
X0040398Y0104258D01*
X0039117Y0105539D01*
X0037444Y0106232D01*
X0029727Y0106232D01*
X0028054Y0105539D01*
X0026773Y0104258D01*
X0026080Y0102585D01*
X0026080Y0100774D01*
X0026773Y0099100D01*
X0028054Y0097819D01*
X0027153Y0098720D02*
X0024335Y0098720D01*
X0024335Y0099519D02*
X0026600Y0099519D01*
X0026269Y0100317D02*
X0024335Y0100317D01*
X0024335Y0101116D02*
X0026080Y0101116D01*
X0026080Y0101915D02*
X0024335Y0101915D01*
X0024335Y0102713D02*
X0026133Y0102713D01*
X0026464Y0103512D02*
X0024335Y0103512D01*
X0024335Y0104310D02*
X0026825Y0104310D01*
X0027624Y0105109D02*
X0024335Y0105109D01*
X0024335Y0105907D02*
X0028943Y0105907D01*
X0029727Y0107126D02*
X0037444Y0107126D01*
X0039117Y0107819D01*
X0040398Y0109100D01*
X0041091Y0110774D01*
X0041091Y0112585D01*
X0040398Y0114258D01*
X0039117Y0115539D01*
X0037444Y0116232D01*
X0029727Y0116232D01*
X0028054Y0115539D01*
X0026773Y0114258D01*
X0026080Y0112585D01*
X0026080Y0110774D01*
X0026773Y0109100D01*
X0028054Y0107819D01*
X0029727Y0107126D01*
X0028815Y0107504D02*
X0024335Y0107504D01*
X0024335Y0106706D02*
X0101385Y0106706D01*
X0101385Y0107504D02*
X0038356Y0107504D01*
X0039600Y0108303D02*
X0101385Y0108303D01*
X0101385Y0109101D02*
X0071418Y0109101D01*
X0071528Y0109147D02*
X0070430Y0108692D01*
X0069241Y0108692D01*
X0068143Y0109147D01*
X0067811Y0109479D01*
X0049360Y0109479D01*
X0049028Y0109147D01*
X0047930Y0108692D01*
X0046741Y0108692D01*
X0045643Y0109147D01*
X0044803Y0109987D01*
X0044348Y0111085D01*
X0044348Y0112273D01*
X0044803Y0113371D01*
X0044986Y0113554D01*
X0044803Y0113737D01*
X0044348Y0114835D01*
X0044348Y0116023D01*
X0044467Y0116311D01*
X0044180Y0116192D01*
X0042991Y0116192D01*
X0041893Y0116647D01*
X0041053Y0117487D01*
X0040598Y0118585D01*
X0040598Y0119773D01*
X0041053Y0120871D01*
X0041893Y0121712D01*
X0042991Y0122167D01*
X0044180Y0122167D01*
X0045278Y0121712D01*
X0045610Y0121379D01*
X0070311Y0121379D01*
X0070643Y0121712D01*
X0071741Y0122167D01*
X0072930Y0122167D01*
X0074028Y0121712D01*
X0074868Y0120871D01*
X0075323Y0119773D01*
X0075323Y0118585D01*
X0074868Y0117487D01*
X0074685Y0117304D01*
X0074868Y0117121D01*
X0075323Y0116023D01*
X0075323Y0114835D01*
X0074868Y0113737D01*
X0074028Y0112897D01*
X0072930Y0112442D01*
X0072753Y0112442D01*
X0072823Y0112273D01*
X0072823Y0111085D01*
X0072368Y0109987D01*
X0071528Y0109147D01*
X0072281Y0109900D02*
X0101385Y0109900D01*
X0101385Y0110698D02*
X0072663Y0110698D01*
X0072823Y0111497D02*
X0101385Y0111497D01*
X0101385Y0112295D02*
X0072814Y0112295D01*
X0074225Y0113094D02*
X0101385Y0113094D01*
X0101385Y0113892D02*
X0074932Y0113892D01*
X0075263Y0114691D02*
X0101385Y0114691D01*
X0101385Y0115489D02*
X0075323Y0115489D01*
X0075213Y0116288D02*
X0101385Y0116288D01*
X0101385Y0117086D02*
X0074883Y0117086D01*
X0075033Y0117885D02*
X0101385Y0117885D01*
X0101385Y0118683D02*
X0075323Y0118683D01*
X0075323Y0119482D02*
X0101385Y0119482D01*
X0101385Y0120280D02*
X0075113Y0120280D01*
X0074661Y0121079D02*
X0101385Y0121079D01*
X0101385Y0121877D02*
X0073628Y0121877D01*
X0071043Y0121877D02*
X0044878Y0121877D01*
X0042293Y0121877D02*
X0024335Y0121877D01*
X0024335Y0121079D02*
X0041260Y0121079D01*
X0040808Y0120280D02*
X0024335Y0120280D01*
X0024335Y0119482D02*
X0040598Y0119482D01*
X0040598Y0118683D02*
X0024335Y0118683D01*
X0024335Y0117885D02*
X0040888Y0117885D01*
X0041453Y0117086D02*
X0024335Y0117086D01*
X0024335Y0116288D02*
X0042759Y0116288D01*
X0044411Y0116288D02*
X0044458Y0116288D01*
X0044348Y0115489D02*
X0039167Y0115489D01*
X0039965Y0114691D02*
X0044408Y0114691D01*
X0044738Y0113892D02*
X0040549Y0113892D01*
X0040880Y0113094D02*
X0044688Y0113094D01*
X0044357Y0112295D02*
X0041091Y0112295D01*
X0041091Y0111497D02*
X0044348Y0111497D01*
X0044508Y0110698D02*
X0041060Y0110698D01*
X0040729Y0109900D02*
X0044890Y0109900D01*
X0045753Y0109101D02*
X0040398Y0109101D01*
X0038228Y0105907D02*
X0101089Y0105907D01*
X0100737Y0105109D02*
X0039547Y0105109D01*
X0040346Y0104310D02*
X0100598Y0104310D01*
X0100628Y0103512D02*
X0040707Y0103512D01*
X0041038Y0102713D02*
X0100959Y0102713D01*
X0101625Y0101915D02*
X0041091Y0101915D01*
X0041091Y0101116D02*
X0111439Y0101116D01*
X0112237Y0100317D02*
X0040902Y0100317D01*
X0040571Y0099519D02*
X0113036Y0099519D01*
X0110640Y0101915D02*
X0109296Y0101915D01*
X0114307Y0114691D02*
X0114736Y0114691D01*
X0115105Y0115489D02*
X0115534Y0115489D01*
X0115904Y0116288D02*
X0116333Y0116288D01*
X0116702Y0117086D02*
X0117131Y0117086D01*
X0117501Y0117885D02*
X0117930Y0117885D01*
X0118299Y0118683D02*
X0118728Y0118683D01*
X0119098Y0119482D02*
X0119527Y0119482D01*
X0119787Y0120280D02*
X0120325Y0120280D01*
X0120117Y0121079D02*
X0121124Y0121079D01*
X0121922Y0121877D02*
X0120135Y0121877D01*
X0120135Y0122676D02*
X0122721Y0122676D01*
X0123519Y0123474D02*
X0120135Y0123474D01*
X0120135Y0124273D02*
X0124318Y0124273D01*
X0125116Y0125071D02*
X0120329Y0125071D01*
X0114535Y0124273D02*
X0109535Y0124273D01*
X0109535Y0125071D02*
X0114342Y0125071D01*
X0114011Y0125870D02*
X0109535Y0125870D01*
X0109535Y0126668D02*
X0113954Y0126668D01*
X0114002Y0127467D02*
X0109535Y0127467D01*
X0109535Y0128265D02*
X0114333Y0128265D01*
X0114939Y0129064D02*
X0109535Y0129064D01*
X0109744Y0129862D02*
X0116185Y0129862D01*
X0110323Y0131459D02*
X0276241Y0131459D01*
X0276241Y0130661D02*
X0110147Y0130661D01*
X0110323Y0132258D02*
X0276241Y0132258D01*
X0276241Y0133056D02*
X0109998Y0133056D01*
X0109384Y0133855D02*
X0276241Y0133855D01*
X0276241Y0134653D02*
X0107961Y0134653D01*
X0106710Y0134653D02*
X0104211Y0134653D01*
X0102960Y0134653D02*
X0024335Y0134653D01*
X0024335Y0133855D02*
X0101536Y0133855D01*
X0100922Y0133056D02*
X0024335Y0133056D01*
X0024335Y0132258D02*
X0100598Y0132258D01*
X0100598Y0131459D02*
X0024335Y0131459D01*
X0024335Y0130661D02*
X0100774Y0130661D01*
X0101177Y0129862D02*
X0024335Y0129862D01*
X0024335Y0129064D02*
X0101385Y0129064D01*
X0101385Y0128265D02*
X0024335Y0128265D01*
X0024335Y0127467D02*
X0101385Y0127467D01*
X0101385Y0126668D02*
X0024335Y0126668D01*
X0024335Y0125870D02*
X0101385Y0125870D01*
X0101385Y0125071D02*
X0024335Y0125071D01*
X0024335Y0124273D02*
X0101385Y0124273D01*
X0101385Y0123474D02*
X0024335Y0123474D01*
X0024335Y0122676D02*
X0101385Y0122676D01*
X0109535Y0122676D02*
X0114372Y0122676D01*
X0114535Y0123474D02*
X0109535Y0123474D01*
X0109535Y0121877D02*
X0113574Y0121877D01*
X0112775Y0121079D02*
X0109535Y0121079D01*
X0109535Y0120280D02*
X0111977Y0120280D01*
X0111178Y0119482D02*
X0109535Y0119482D01*
X0109535Y0118683D02*
X0110380Y0118683D01*
X0109581Y0117885D02*
X0109535Y0117885D01*
X0126305Y0116288D02*
X0149009Y0116288D01*
X0132921Y0115489D02*
X0127655Y0115489D01*
X0128454Y0114691D02*
X0132123Y0114691D01*
X0131660Y0113892D02*
X0128916Y0113892D01*
X0129247Y0113094D02*
X0131329Y0113094D01*
X0131288Y0112295D02*
X0129288Y0112295D01*
X0129288Y0111497D02*
X0131288Y0111497D01*
X0131288Y0110698D02*
X0129288Y0110698D01*
X0129288Y0109900D02*
X0131288Y0109900D01*
X0131288Y0109101D02*
X0129288Y0109101D01*
X0129288Y0108303D02*
X0131288Y0108303D01*
X0131288Y0107504D02*
X0129288Y0107504D01*
X0129288Y0106706D02*
X0131288Y0106706D01*
X0131577Y0105907D02*
X0129000Y0105907D01*
X0128654Y0105109D02*
X0131922Y0105109D01*
X0132584Y0098720D02*
X0040018Y0098720D01*
X0039220Y0097922D02*
X0133383Y0097922D01*
X0120964Y0060392D02*
X0024335Y0060392D01*
X0024335Y0061190D02*
X0276241Y0061190D01*
X0276241Y0061989D02*
X0024335Y0061989D01*
X0024335Y0062787D02*
X0276241Y0062787D01*
X0276241Y0063586D02*
X0024335Y0063586D01*
X0024335Y0064384D02*
X0276241Y0064384D01*
X0278241Y0052240D02*
X0278241Y0225469D01*
X0276224Y0225684D02*
X0220136Y0225684D01*
X0220274Y0225350D02*
X0219446Y0227348D01*
X0217916Y0228878D01*
X0215917Y0229706D01*
X0213754Y0229706D01*
X0211755Y0228878D01*
X0210225Y0227348D01*
X0209397Y0225350D01*
X0209397Y0215509D01*
X0210225Y0213510D01*
X0211755Y0211980D01*
X0213754Y0211152D01*
X0215917Y0211152D01*
X0217916Y0211980D01*
X0219446Y0213510D01*
X0220274Y0215509D01*
X0220274Y0225350D01*
X0220274Y0224885D02*
X0276241Y0224885D01*
X0276241Y0224087D02*
X0220274Y0224087D01*
X0220274Y0223288D02*
X0276241Y0223288D01*
X0276241Y0222490D02*
X0220274Y0222490D01*
X0220274Y0221691D02*
X0276241Y0221691D01*
X0276241Y0220893D02*
X0220274Y0220893D01*
X0220274Y0220094D02*
X0276241Y0220094D01*
X0276241Y0219296D02*
X0220274Y0219296D01*
X0220274Y0218497D02*
X0276241Y0218497D01*
X0276241Y0217699D02*
X0220274Y0217699D01*
X0220274Y0216900D02*
X0276241Y0216900D01*
X0276241Y0216102D02*
X0220274Y0216102D01*
X0220189Y0215303D02*
X0276241Y0215303D01*
X0276241Y0214505D02*
X0219858Y0214505D01*
X0219527Y0213706D02*
X0276241Y0213706D01*
X0276241Y0212908D02*
X0218844Y0212908D01*
X0218045Y0212109D02*
X0276241Y0212109D01*
X0276241Y0211311D02*
X0216300Y0211311D01*
X0213371Y0211311D02*
X0196300Y0211311D01*
X0195917Y0211152D02*
X0197916Y0211980D01*
X0199446Y0213510D01*
X0200274Y0215509D01*
X0200274Y0225350D01*
X0199446Y0227348D01*
X0197916Y0228878D01*
X0195917Y0229706D01*
X0193754Y0229706D01*
X0191755Y0228878D01*
X0190225Y0227348D01*
X0189397Y0225350D01*
X0189397Y0215509D01*
X0190225Y0213510D01*
X0191755Y0211980D01*
X0193754Y0211152D01*
X0195917Y0211152D01*
X0198045Y0212109D02*
X0211626Y0212109D01*
X0210827Y0212908D02*
X0198844Y0212908D01*
X0199527Y0213706D02*
X0210144Y0213706D01*
X0209813Y0214505D02*
X0199858Y0214505D01*
X0200189Y0215303D02*
X0209482Y0215303D01*
X0209397Y0216102D02*
X0200274Y0216102D01*
X0200274Y0216900D02*
X0209397Y0216900D01*
X0209397Y0217699D02*
X0200274Y0217699D01*
X0200274Y0218497D02*
X0209397Y0218497D01*
X0209397Y0219296D02*
X0200274Y0219296D01*
X0200274Y0220094D02*
X0209397Y0220094D01*
X0209397Y0220893D02*
X0200274Y0220893D01*
X0200274Y0221691D02*
X0209397Y0221691D01*
X0209397Y0222490D02*
X0200274Y0222490D01*
X0200274Y0223288D02*
X0209397Y0223288D01*
X0209397Y0224087D02*
X0200274Y0224087D01*
X0200274Y0224885D02*
X0209397Y0224885D01*
X0209535Y0225684D02*
X0200136Y0225684D01*
X0199805Y0226482D02*
X0209866Y0226482D01*
X0210197Y0227281D02*
X0199474Y0227281D01*
X0198715Y0228079D02*
X0210956Y0228079D01*
X0211754Y0228878D02*
X0197917Y0228878D01*
X0195990Y0229676D02*
X0213681Y0229676D01*
X0215990Y0229676D02*
X0275252Y0229676D01*
X0275511Y0228878D02*
X0217917Y0228878D01*
X0218715Y0228079D02*
X0275771Y0228079D01*
X0276030Y0227281D02*
X0219474Y0227281D01*
X0219805Y0226482D02*
X0276161Y0226482D01*
X0274770Y0230475D02*
X0145000Y0230475D01*
X0145798Y0229676D02*
X0153681Y0229676D01*
X0153754Y0229706D02*
X0151755Y0228878D01*
X0150225Y0227348D01*
X0149467Y0225518D01*
X0149467Y0226102D01*
X0148952Y0227344D01*
X0148001Y0228295D01*
X0146758Y0228810D01*
X0146664Y0228810D01*
X0143459Y0232015D01*
X0143459Y0232015D01*
X0142671Y0232803D01*
X0141642Y0233229D01*
X0111778Y0233229D01*
X0110749Y0232803D01*
X0106757Y0228810D01*
X0106663Y0228810D01*
X0105420Y0228295D01*
X0104469Y0227344D01*
X0103954Y0226102D01*
X0103954Y0224757D01*
X0104469Y0223514D01*
X0105420Y0222563D01*
X0106663Y0222048D01*
X0108008Y0222048D01*
X0109251Y0222563D01*
X0109397Y0222709D01*
X0109397Y0215509D01*
X0110225Y0213510D01*
X0111755Y0211980D01*
X0113754Y0211152D01*
X0115917Y0211152D01*
X0117916Y0211980D01*
X0119446Y0213510D01*
X0120274Y0215509D01*
X0120274Y0225350D01*
X0119446Y0227348D01*
X0119165Y0227629D01*
X0139926Y0227629D01*
X0142704Y0224850D01*
X0142704Y0224757D01*
X0143219Y0223514D01*
X0144170Y0222563D01*
X0145413Y0222048D01*
X0146758Y0222048D01*
X0148001Y0222563D01*
X0148952Y0223514D01*
X0149397Y0224588D01*
X0149397Y0215509D01*
X0150225Y0213510D01*
X0151755Y0211980D01*
X0153754Y0211152D01*
X0155917Y0211152D01*
X0157916Y0211980D01*
X0159446Y0213510D01*
X0160274Y0215509D01*
X0160274Y0225350D01*
X0159446Y0227348D01*
X0157916Y0228878D01*
X0155917Y0229706D01*
X0153754Y0229706D01*
X0151754Y0228878D02*
X0146597Y0228878D01*
X0148217Y0228079D02*
X0150956Y0228079D01*
X0150197Y0227281D02*
X0148978Y0227281D01*
X0149309Y0226482D02*
X0149866Y0226482D01*
X0149535Y0225684D02*
X0149467Y0225684D01*
X0149397Y0224087D02*
X0149189Y0224087D01*
X0149397Y0223288D02*
X0148726Y0223288D01*
X0149397Y0222490D02*
X0147824Y0222490D01*
X0149397Y0221691D02*
X0120274Y0221691D01*
X0120274Y0220893D02*
X0149397Y0220893D01*
X0149397Y0220094D02*
X0120274Y0220094D01*
X0120274Y0219296D02*
X0149397Y0219296D01*
X0149397Y0218497D02*
X0120274Y0218497D01*
X0120274Y0217699D02*
X0149397Y0217699D01*
X0149397Y0216900D02*
X0120274Y0216900D01*
X0120274Y0216102D02*
X0149397Y0216102D01*
X0149482Y0215303D02*
X0120189Y0215303D01*
X0119858Y0214505D02*
X0149813Y0214505D01*
X0150144Y0213706D02*
X0119527Y0213706D01*
X0118844Y0212908D02*
X0150827Y0212908D01*
X0151626Y0212109D02*
X0118045Y0212109D01*
X0116300Y0211311D02*
X0153371Y0211311D01*
X0156300Y0211311D02*
X0173371Y0211311D01*
X0173754Y0211152D02*
X0171755Y0211980D01*
X0170225Y0213510D01*
X0169397Y0215509D01*
X0169397Y0225350D01*
X0170225Y0227348D01*
X0171755Y0228878D01*
X0173754Y0229706D01*
X0175917Y0229706D01*
X0177916Y0228878D01*
X0179446Y0227348D01*
X0180274Y0225350D01*
X0180274Y0215509D01*
X0179446Y0213510D01*
X0177916Y0211980D01*
X0175917Y0211152D01*
X0173754Y0211152D01*
X0171626Y0212109D02*
X0158045Y0212109D01*
X0158844Y0212908D02*
X0170827Y0212908D01*
X0170144Y0213706D02*
X0159527Y0213706D01*
X0159858Y0214505D02*
X0169813Y0214505D01*
X0169482Y0215303D02*
X0160189Y0215303D01*
X0160274Y0216102D02*
X0169397Y0216102D01*
X0169397Y0216900D02*
X0160274Y0216900D01*
X0160274Y0217699D02*
X0169397Y0217699D01*
X0169397Y0218497D02*
X0160274Y0218497D01*
X0160274Y0219296D02*
X0169397Y0219296D01*
X0169397Y0220094D02*
X0160274Y0220094D01*
X0160274Y0220893D02*
X0169397Y0220893D01*
X0169397Y0221691D02*
X0160274Y0221691D01*
X0160274Y0222490D02*
X0169397Y0222490D01*
X0169397Y0223288D02*
X0160274Y0223288D01*
X0160274Y0224087D02*
X0169397Y0224087D01*
X0169397Y0224885D02*
X0160274Y0224885D01*
X0160136Y0225684D02*
X0169535Y0225684D01*
X0169866Y0226482D02*
X0159805Y0226482D01*
X0159474Y0227281D02*
X0170197Y0227281D01*
X0170956Y0228079D02*
X0158715Y0228079D01*
X0157917Y0228878D02*
X0171754Y0228878D01*
X0173681Y0229676D02*
X0155990Y0229676D01*
X0144201Y0231273D02*
X0274190Y0231273D01*
X0273610Y0232072D02*
X0143402Y0232072D01*
X0142509Y0232870D02*
X0272728Y0232870D01*
X0271629Y0233669D02*
X0028947Y0233669D01*
X0027848Y0232870D02*
X0110912Y0232870D01*
X0110018Y0232072D02*
X0026966Y0232072D01*
X0026386Y0231273D02*
X0109220Y0231273D01*
X0108421Y0230475D02*
X0025806Y0230475D01*
X0025325Y0229676D02*
X0093681Y0229676D01*
X0093754Y0229706D02*
X0091755Y0228878D01*
X0090225Y0227348D01*
X0089397Y0225350D01*
X0089397Y0215509D01*
X0090225Y0213510D01*
X0091755Y0211980D01*
X0093754Y0211152D01*
X0095917Y0211152D01*
X0097916Y0211980D01*
X0099446Y0213510D01*
X0100274Y0215509D01*
X0100274Y0225350D01*
X0099446Y0227348D01*
X0097916Y0228878D01*
X0095917Y0229706D01*
X0093754Y0229706D01*
X0091754Y0228878D02*
X0025065Y0228878D01*
X0024806Y0228079D02*
X0090956Y0228079D01*
X0090197Y0227281D02*
X0024546Y0227281D01*
X0024415Y0226482D02*
X0089866Y0226482D01*
X0089535Y0225684D02*
X0024352Y0225684D01*
X0024335Y0224885D02*
X0089397Y0224885D01*
X0089397Y0224087D02*
X0024335Y0224087D01*
X0024335Y0223288D02*
X0089397Y0223288D01*
X0089397Y0222490D02*
X0024335Y0222490D01*
X0024335Y0221691D02*
X0089397Y0221691D01*
X0089397Y0220893D02*
X0024335Y0220893D01*
X0024335Y0220094D02*
X0089397Y0220094D01*
X0089397Y0219296D02*
X0024335Y0219296D01*
X0024335Y0218497D02*
X0089397Y0218497D01*
X0089397Y0217699D02*
X0024335Y0217699D01*
X0024335Y0216900D02*
X0089397Y0216900D01*
X0089397Y0216102D02*
X0024335Y0216102D01*
X0024335Y0215303D02*
X0089482Y0215303D01*
X0089813Y0214505D02*
X0024335Y0214505D01*
X0024335Y0213706D02*
X0090144Y0213706D01*
X0090827Y0212908D02*
X0024335Y0212908D01*
X0024335Y0212109D02*
X0091626Y0212109D01*
X0093371Y0211311D02*
X0024335Y0211311D01*
X0024335Y0210512D02*
X0276241Y0210512D01*
X0276241Y0209714D02*
X0024335Y0209714D01*
X0024335Y0208915D02*
X0276241Y0208915D01*
X0276241Y0208117D02*
X0024335Y0208117D01*
X0024335Y0207318D02*
X0276241Y0207318D01*
X0276241Y0206519D02*
X0024335Y0206519D01*
X0024335Y0205721D02*
X0276241Y0205721D01*
X0276241Y0204922D02*
X0024335Y0204922D01*
X0024335Y0204124D02*
X0276241Y0204124D01*
X0276241Y0203325D02*
X0024335Y0203325D01*
X0024335Y0202527D02*
X0276241Y0202527D01*
X0276241Y0201728D02*
X0024335Y0201728D01*
X0024335Y0200930D02*
X0276241Y0200930D01*
X0276241Y0200131D02*
X0024335Y0200131D01*
X0024335Y0199333D02*
X0276241Y0199333D01*
X0276241Y0198534D02*
X0024335Y0198534D01*
X0024335Y0197736D02*
X0276241Y0197736D01*
X0276241Y0196937D02*
X0024335Y0196937D01*
X0024335Y0196139D02*
X0276241Y0196139D01*
X0276241Y0195340D02*
X0024335Y0195340D01*
X0024335Y0194542D02*
X0276241Y0194542D01*
X0276241Y0193743D02*
X0024335Y0193743D01*
X0024335Y0192945D02*
X0276241Y0192945D01*
X0276241Y0192146D02*
X0024335Y0192146D01*
X0024335Y0191348D02*
X0276241Y0191348D01*
X0276241Y0190549D02*
X0024335Y0190549D01*
X0024335Y0189751D02*
X0276241Y0189751D01*
X0276241Y0188952D02*
X0024335Y0188952D01*
X0024335Y0188154D02*
X0276241Y0188154D01*
X0276241Y0187355D02*
X0024335Y0187355D01*
X0024335Y0186557D02*
X0276241Y0186557D01*
X0276241Y0185758D02*
X0024335Y0185758D01*
X0024335Y0184960D02*
X0276241Y0184960D01*
X0276241Y0184161D02*
X0024335Y0184161D01*
X0024335Y0183363D02*
X0276241Y0183363D01*
X0276241Y0182564D02*
X0024335Y0182564D01*
X0024335Y0181766D02*
X0276241Y0181766D01*
X0276241Y0180967D02*
X0024335Y0180967D01*
X0024335Y0180169D02*
X0276241Y0180169D01*
X0276241Y0179370D02*
X0024335Y0179370D01*
X0024335Y0178572D02*
X0219837Y0178572D01*
X0220413Y0178810D02*
X0219170Y0178295D01*
X0218219Y0177344D01*
X0217704Y0176102D01*
X0217704Y0174757D01*
X0218219Y0173514D01*
X0219170Y0172563D01*
X0220413Y0172048D01*
X0221758Y0172048D01*
X0223001Y0172563D01*
X0223067Y0172629D01*
X0235354Y0172629D01*
X0235420Y0172563D01*
X0236663Y0172048D01*
X0238008Y0172048D01*
X0239251Y0172563D01*
X0240202Y0173514D01*
X0240717Y0174757D01*
X0240717Y0176102D01*
X0240202Y0177344D01*
X0239251Y0178295D01*
X0238008Y0178810D01*
X0236663Y0178810D01*
X0235420Y0178295D01*
X0235354Y0178229D01*
X0223067Y0178229D01*
X0223001Y0178295D01*
X0221758Y0178810D01*
X0220413Y0178810D01*
X0222334Y0178572D02*
X0236087Y0178572D01*
X0238584Y0178572D02*
X0276241Y0178572D01*
X0276241Y0177773D02*
X0239773Y0177773D01*
X0240355Y0176975D02*
X0276241Y0176975D01*
X0276241Y0176176D02*
X0240686Y0176176D01*
X0240717Y0175378D02*
X0276241Y0175378D01*
X0276241Y0174579D02*
X0240643Y0174579D01*
X0240312Y0173781D02*
X0276241Y0173781D01*
X0276241Y0172982D02*
X0239670Y0172982D01*
X0238335Y0172184D02*
X0276241Y0172184D01*
X0276241Y0171385D02*
X0024335Y0171385D01*
X0024335Y0172184D02*
X0220086Y0172184D01*
X0218751Y0172982D02*
X0024335Y0172982D01*
X0024335Y0173781D02*
X0218109Y0173781D01*
X0217778Y0174579D02*
X0024335Y0174579D01*
X0024335Y0175378D02*
X0217704Y0175378D01*
X0217735Y0176176D02*
X0024335Y0176176D01*
X0024335Y0176975D02*
X0218066Y0176975D01*
X0218648Y0177773D02*
X0024335Y0177773D01*
X0024335Y0170586D02*
X0174899Y0170586D01*
X0174586Y0170457D02*
X0172918Y0168789D01*
X0172015Y0166609D01*
X0172015Y0164249D01*
X0172918Y0162070D01*
X0174586Y0160401D01*
X0176766Y0159498D01*
X0179125Y0159498D01*
X0181305Y0160401D01*
X0182973Y0162070D01*
X0183876Y0164249D01*
X0183876Y0166609D01*
X0182973Y0168789D01*
X0181305Y0170457D01*
X0179125Y0171360D01*
X0176766Y0171360D01*
X0174586Y0170457D01*
X0173917Y0169788D02*
X0024335Y0169788D01*
X0024335Y0168989D02*
X0173119Y0168989D01*
X0172670Y0168191D02*
X0024335Y0168191D01*
X0024335Y0167392D02*
X0172340Y0167392D01*
X0172015Y0166594D02*
X0024335Y0166594D01*
X0024335Y0165795D02*
X0172015Y0165795D01*
X0172015Y0164997D02*
X0024335Y0164997D01*
X0024335Y0164198D02*
X0172036Y0164198D01*
X0172367Y0163400D02*
X0024335Y0163400D01*
X0024335Y0162601D02*
X0172698Y0162601D01*
X0173185Y0161803D02*
X0024335Y0161803D01*
X0024335Y0161004D02*
X0173983Y0161004D01*
X0175058Y0160206D02*
X0024335Y0160206D01*
X0024335Y0159407D02*
X0276241Y0159407D01*
X0276241Y0158609D02*
X0024335Y0158609D01*
X0024335Y0157810D02*
X0276241Y0157810D01*
X0276241Y0157012D02*
X0024335Y0157012D01*
X0024335Y0156213D02*
X0276241Y0156213D01*
X0276241Y0155415D02*
X0024335Y0155415D01*
X0024335Y0154616D02*
X0276241Y0154616D01*
X0276241Y0153818D02*
X0024335Y0153818D01*
X0024335Y0153019D02*
X0276241Y0153019D01*
X0276241Y0152221D02*
X0024335Y0152221D01*
X0024335Y0151422D02*
X0276241Y0151422D01*
X0276241Y0150624D02*
X0024335Y0150624D01*
X0024335Y0149825D02*
X0276241Y0149825D01*
X0276241Y0149027D02*
X0024335Y0149027D01*
X0024335Y0148228D02*
X0276241Y0148228D01*
X0276241Y0147430D02*
X0024335Y0147430D01*
X0024335Y0146631D02*
X0276241Y0146631D01*
X0276241Y0145833D02*
X0024335Y0145833D01*
X0024335Y0145034D02*
X0052850Y0145034D01*
X0052913Y0145060D02*
X0051670Y0144545D01*
X0050719Y0143594D01*
X0050204Y0142352D01*
X0050204Y0141007D01*
X0050719Y0139764D01*
X0051670Y0138813D01*
X0052913Y0138298D01*
X0054258Y0138298D01*
X0055501Y0138813D01*
X0055567Y0138879D01*
X0082854Y0138879D01*
X0082920Y0138813D01*
X0084163Y0138298D01*
X0085508Y0138298D01*
X0086751Y0138813D01*
X0087702Y0139764D01*
X0088217Y0141007D01*
X0088217Y0142352D01*
X0087702Y0143594D01*
X0086751Y0144545D01*
X0085508Y0145060D01*
X0084163Y0145060D01*
X0082920Y0144545D01*
X0082854Y0144479D01*
X0055567Y0144479D01*
X0055501Y0144545D01*
X0054258Y0145060D01*
X0052913Y0145060D01*
X0054321Y0145034D02*
X0084100Y0145034D01*
X0085571Y0145034D02*
X0276241Y0145034D01*
X0276241Y0144236D02*
X0087061Y0144236D01*
X0087767Y0143437D02*
X0276241Y0143437D01*
X0276241Y0142639D02*
X0088098Y0142639D01*
X0088217Y0141840D02*
X0276241Y0141840D01*
X0276241Y0141042D02*
X0088217Y0141042D01*
X0087900Y0140243D02*
X0276241Y0140243D01*
X0276241Y0139445D02*
X0087382Y0139445D01*
X0086348Y0138646D02*
X0276241Y0138646D01*
X0276241Y0137848D02*
X0024335Y0137848D01*
X0024335Y0138646D02*
X0052073Y0138646D01*
X0051038Y0139445D02*
X0024335Y0139445D01*
X0024335Y0140243D02*
X0050521Y0140243D01*
X0050204Y0141042D02*
X0024335Y0141042D01*
X0024335Y0141840D02*
X0050204Y0141840D01*
X0050323Y0142639D02*
X0024335Y0142639D01*
X0024335Y0143437D02*
X0050654Y0143437D01*
X0051360Y0144236D02*
X0024335Y0144236D01*
X0024335Y0137049D02*
X0276241Y0137049D01*
X0276241Y0136250D02*
X0024335Y0136250D01*
X0024335Y0135452D02*
X0276241Y0135452D01*
X0276241Y0160206D02*
X0180833Y0160206D01*
X0181908Y0161004D02*
X0276241Y0161004D01*
X0276241Y0161803D02*
X0182707Y0161803D01*
X0183194Y0162601D02*
X0276241Y0162601D01*
X0276241Y0163400D02*
X0183524Y0163400D01*
X0183855Y0164198D02*
X0276241Y0164198D01*
X0276241Y0164997D02*
X0183876Y0164997D01*
X0183876Y0165795D02*
X0276241Y0165795D01*
X0276241Y0166594D02*
X0183876Y0166594D01*
X0183552Y0167392D02*
X0276241Y0167392D01*
X0276241Y0168191D02*
X0183221Y0168191D01*
X0182773Y0168989D02*
X0276241Y0168989D01*
X0276241Y0169788D02*
X0181974Y0169788D01*
X0180992Y0170586D02*
X0276241Y0170586D01*
X0236336Y0172184D02*
X0222085Y0172184D01*
X0193371Y0211311D02*
X0176300Y0211311D01*
X0178045Y0212109D02*
X0191626Y0212109D01*
X0190827Y0212908D02*
X0178844Y0212908D01*
X0179527Y0213706D02*
X0190144Y0213706D01*
X0189813Y0214505D02*
X0179858Y0214505D01*
X0180189Y0215303D02*
X0189482Y0215303D01*
X0189397Y0216102D02*
X0180274Y0216102D01*
X0180274Y0216900D02*
X0189397Y0216900D01*
X0189397Y0217699D02*
X0180274Y0217699D01*
X0180274Y0218497D02*
X0189397Y0218497D01*
X0189397Y0219296D02*
X0180274Y0219296D01*
X0180274Y0220094D02*
X0189397Y0220094D01*
X0189397Y0220893D02*
X0180274Y0220893D01*
X0180274Y0221691D02*
X0189397Y0221691D01*
X0189397Y0222490D02*
X0180274Y0222490D01*
X0180274Y0223288D02*
X0189397Y0223288D01*
X0189397Y0224087D02*
X0180274Y0224087D01*
X0180274Y0224885D02*
X0189397Y0224885D01*
X0189535Y0225684D02*
X0180136Y0225684D01*
X0179805Y0226482D02*
X0189866Y0226482D01*
X0190197Y0227281D02*
X0179474Y0227281D01*
X0178715Y0228079D02*
X0190956Y0228079D01*
X0191754Y0228878D02*
X0177917Y0228878D01*
X0175990Y0229676D02*
X0193681Y0229676D01*
X0144347Y0222490D02*
X0120274Y0222490D01*
X0120274Y0223288D02*
X0143445Y0223288D01*
X0142982Y0224087D02*
X0120274Y0224087D01*
X0120274Y0224885D02*
X0142670Y0224885D01*
X0141871Y0225684D02*
X0120136Y0225684D01*
X0119805Y0226482D02*
X0141072Y0226482D01*
X0140274Y0227281D02*
X0119474Y0227281D01*
X0109397Y0222490D02*
X0109074Y0222490D01*
X0109397Y0221691D02*
X0100274Y0221691D01*
X0100274Y0220893D02*
X0109397Y0220893D01*
X0109397Y0220094D02*
X0100274Y0220094D01*
X0100274Y0219296D02*
X0109397Y0219296D01*
X0109397Y0218497D02*
X0100274Y0218497D01*
X0100274Y0217699D02*
X0109397Y0217699D01*
X0109397Y0216900D02*
X0100274Y0216900D01*
X0100274Y0216102D02*
X0109397Y0216102D01*
X0109482Y0215303D02*
X0100189Y0215303D01*
X0099858Y0214505D02*
X0109813Y0214505D01*
X0110144Y0213706D02*
X0099527Y0213706D01*
X0098844Y0212908D02*
X0110827Y0212908D01*
X0111626Y0212109D02*
X0098045Y0212109D01*
X0096300Y0211311D02*
X0113371Y0211311D01*
X0105597Y0222490D02*
X0100274Y0222490D01*
X0100274Y0223288D02*
X0104695Y0223288D01*
X0104232Y0224087D02*
X0100274Y0224087D01*
X0100274Y0224885D02*
X0103954Y0224885D01*
X0103954Y0225684D02*
X0100136Y0225684D01*
X0099805Y0226482D02*
X0104112Y0226482D01*
X0104443Y0227281D02*
X0099474Y0227281D01*
X0098715Y0228079D02*
X0105204Y0228079D01*
X0106824Y0228878D02*
X0097917Y0228878D01*
X0095990Y0229676D02*
X0107623Y0229676D01*
X0034146Y0237280D02*
X0033861Y0237277D01*
X0033575Y0237266D01*
X0033290Y0237249D01*
X0033006Y0237225D01*
X0032722Y0237194D01*
X0032439Y0237156D01*
X0032158Y0237111D01*
X0031877Y0237060D01*
X0031597Y0237002D01*
X0031319Y0236937D01*
X0031043Y0236865D01*
X0030769Y0236787D01*
X0030496Y0236702D01*
X0030226Y0236610D01*
X0029958Y0236512D01*
X0029692Y0236408D01*
X0029429Y0236297D01*
X0029169Y0236180D01*
X0028911Y0236057D01*
X0028657Y0235927D01*
X0028406Y0235791D01*
X0028158Y0235650D01*
X0027914Y0235502D01*
X0027673Y0235349D01*
X0027437Y0235189D01*
X0027204Y0235024D01*
X0026975Y0234854D01*
X0026750Y0234678D01*
X0026530Y0234496D01*
X0026314Y0234310D01*
X0026103Y0234118D01*
X0025896Y0233921D01*
X0025694Y0233719D01*
X0025497Y0233512D01*
X0025305Y0233301D01*
X0025119Y0233085D01*
X0024937Y0232865D01*
X0024761Y0232640D01*
X0024591Y0232411D01*
X0024426Y0232178D01*
X0024266Y0231942D01*
X0024113Y0231701D01*
X0023965Y0231457D01*
X0023824Y0231209D01*
X0023688Y0230958D01*
X0023558Y0230704D01*
X0023435Y0230446D01*
X0023318Y0230186D01*
X0023207Y0229923D01*
X0023103Y0229657D01*
X0023005Y0229389D01*
X0022913Y0229119D01*
X0022828Y0228846D01*
X0022750Y0228572D01*
X0022678Y0228296D01*
X0022613Y0228018D01*
X0022555Y0227738D01*
X0022504Y0227457D01*
X0022459Y0227176D01*
X0022421Y0226893D01*
X0022390Y0226609D01*
X0022366Y0226325D01*
X0022349Y0226040D01*
X0022338Y0225754D01*
X0022335Y0225469D01*
X0022335Y0052240D01*
X0024335Y0052407D02*
X0108297Y0052407D01*
X0107278Y0053205D02*
X0024335Y0053205D01*
X0024335Y0054004D02*
X0106766Y0054004D01*
X0106454Y0054802D02*
X0024335Y0054802D01*
X0024335Y0055601D02*
X0106454Y0055601D01*
X0106578Y0056399D02*
X0024335Y0056399D01*
X0024335Y0057198D02*
X0106908Y0057198D01*
X0107621Y0057996D02*
X0024335Y0057996D01*
X0024335Y0058795D02*
X0109126Y0058795D01*
X0110545Y0058795D02*
X0119241Y0058795D01*
X0120040Y0059593D02*
X0024335Y0059593D01*
X0024385Y0051608D02*
X0121288Y0051608D01*
X0121288Y0050810D02*
X0024448Y0050810D01*
X0024682Y0050011D02*
X0121288Y0050011D01*
X0121288Y0049213D02*
X0024941Y0049213D01*
X0025201Y0048414D02*
X0121288Y0048414D01*
X0121288Y0047616D02*
X0025528Y0047616D01*
X0026109Y0046817D02*
X0121288Y0046817D01*
X0121530Y0046019D02*
X0026689Y0046019D01*
X0027323Y0045220D02*
X0121861Y0045220D01*
X0122609Y0044422D02*
X0028422Y0044422D01*
X0034146Y0040429D02*
X0033861Y0040432D01*
X0033575Y0040443D01*
X0033290Y0040460D01*
X0033006Y0040484D01*
X0032722Y0040515D01*
X0032439Y0040553D01*
X0032158Y0040598D01*
X0031877Y0040649D01*
X0031597Y0040707D01*
X0031319Y0040772D01*
X0031043Y0040844D01*
X0030769Y0040922D01*
X0030496Y0041007D01*
X0030226Y0041099D01*
X0029958Y0041197D01*
X0029692Y0041301D01*
X0029429Y0041412D01*
X0029169Y0041529D01*
X0028911Y0041652D01*
X0028657Y0041782D01*
X0028406Y0041918D01*
X0028158Y0042059D01*
X0027914Y0042207D01*
X0027673Y0042360D01*
X0027437Y0042520D01*
X0027204Y0042685D01*
X0026975Y0042855D01*
X0026750Y0043031D01*
X0026530Y0043213D01*
X0026314Y0043399D01*
X0026103Y0043591D01*
X0025896Y0043788D01*
X0025694Y0043990D01*
X0025497Y0044197D01*
X0025305Y0044408D01*
X0025119Y0044624D01*
X0024937Y0044844D01*
X0024761Y0045069D01*
X0024591Y0045298D01*
X0024426Y0045531D01*
X0024266Y0045767D01*
X0024113Y0046008D01*
X0023965Y0046252D01*
X0023824Y0046500D01*
X0023688Y0046751D01*
X0023558Y0047005D01*
X0023435Y0047263D01*
X0023318Y0047523D01*
X0023207Y0047786D01*
X0023103Y0048052D01*
X0023005Y0048320D01*
X0022913Y0048590D01*
X0022828Y0048863D01*
X0022750Y0049137D01*
X0022678Y0049413D01*
X0022613Y0049691D01*
X0022555Y0049971D01*
X0022504Y0050252D01*
X0022459Y0050533D01*
X0022421Y0050816D01*
X0022390Y0051100D01*
X0022366Y0051384D01*
X0022349Y0051669D01*
X0022338Y0051955D01*
X0022335Y0052240D01*
X0024335Y0108303D02*
X0027571Y0108303D01*
X0026773Y0109101D02*
X0024335Y0109101D01*
X0024335Y0109900D02*
X0026442Y0109900D01*
X0026111Y0110698D02*
X0024335Y0110698D01*
X0024335Y0111497D02*
X0026080Y0111497D01*
X0026080Y0112295D02*
X0024335Y0112295D01*
X0024335Y0113094D02*
X0026291Y0113094D01*
X0026621Y0113892D02*
X0024335Y0113892D01*
X0024335Y0114691D02*
X0027206Y0114691D01*
X0028004Y0115489D02*
X0024335Y0115489D01*
X0048918Y0109101D02*
X0068253Y0109101D01*
X0055098Y0138646D02*
X0083323Y0138646D01*
X0111374Y0052407D02*
X0121288Y0052407D01*
X0266430Y0040429D02*
X0266715Y0040432D01*
X0267001Y0040443D01*
X0267286Y0040460D01*
X0267570Y0040484D01*
X0267854Y0040515D01*
X0268137Y0040553D01*
X0268418Y0040598D01*
X0268699Y0040649D01*
X0268979Y0040707D01*
X0269257Y0040772D01*
X0269533Y0040844D01*
X0269807Y0040922D01*
X0270080Y0041007D01*
X0270350Y0041099D01*
X0270618Y0041197D01*
X0270884Y0041301D01*
X0271147Y0041412D01*
X0271407Y0041529D01*
X0271665Y0041652D01*
X0271919Y0041782D01*
X0272170Y0041918D01*
X0272418Y0042059D01*
X0272662Y0042207D01*
X0272903Y0042360D01*
X0273139Y0042520D01*
X0273372Y0042685D01*
X0273601Y0042855D01*
X0273826Y0043031D01*
X0274046Y0043213D01*
X0274262Y0043399D01*
X0274473Y0043591D01*
X0274680Y0043788D01*
X0274882Y0043990D01*
X0275079Y0044197D01*
X0275271Y0044408D01*
X0275457Y0044624D01*
X0275639Y0044844D01*
X0275815Y0045069D01*
X0275985Y0045298D01*
X0276150Y0045531D01*
X0276310Y0045767D01*
X0276463Y0046008D01*
X0276611Y0046252D01*
X0276752Y0046500D01*
X0276888Y0046751D01*
X0277018Y0047005D01*
X0277141Y0047263D01*
X0277258Y0047523D01*
X0277369Y0047786D01*
X0277473Y0048052D01*
X0277571Y0048320D01*
X0277663Y0048590D01*
X0277748Y0048863D01*
X0277826Y0049137D01*
X0277898Y0049413D01*
X0277963Y0049691D01*
X0278021Y0049971D01*
X0278072Y0050252D01*
X0278117Y0050533D01*
X0278155Y0050816D01*
X0278186Y0051100D01*
X0278210Y0051384D01*
X0278227Y0051669D01*
X0278238Y0051955D01*
X0278241Y0052240D01*
X0278241Y0225469D02*
X0278238Y0225754D01*
X0278227Y0226040D01*
X0278210Y0226325D01*
X0278186Y0226609D01*
X0278155Y0226893D01*
X0278117Y0227176D01*
X0278072Y0227457D01*
X0278021Y0227738D01*
X0277963Y0228018D01*
X0277898Y0228296D01*
X0277826Y0228572D01*
X0277748Y0228846D01*
X0277663Y0229119D01*
X0277571Y0229389D01*
X0277473Y0229657D01*
X0277369Y0229923D01*
X0277258Y0230186D01*
X0277141Y0230446D01*
X0277018Y0230704D01*
X0276888Y0230958D01*
X0276752Y0231209D01*
X0276611Y0231457D01*
X0276463Y0231701D01*
X0276310Y0231942D01*
X0276150Y0232178D01*
X0275985Y0232411D01*
X0275815Y0232640D01*
X0275639Y0232865D01*
X0275457Y0233085D01*
X0275271Y0233301D01*
X0275079Y0233512D01*
X0274882Y0233719D01*
X0274680Y0233921D01*
X0274473Y0234118D01*
X0274262Y0234310D01*
X0274046Y0234496D01*
X0273826Y0234678D01*
X0273601Y0234854D01*
X0273372Y0235024D01*
X0273139Y0235189D01*
X0272903Y0235349D01*
X0272662Y0235502D01*
X0272418Y0235650D01*
X0272170Y0235791D01*
X0271919Y0235927D01*
X0271665Y0236057D01*
X0271407Y0236180D01*
X0271147Y0236297D01*
X0270884Y0236408D01*
X0270618Y0236512D01*
X0270350Y0236610D01*
X0270080Y0236702D01*
X0269807Y0236787D01*
X0269533Y0236865D01*
X0269257Y0236937D01*
X0268979Y0237002D01*
X0268699Y0237060D01*
X0268418Y0237111D01*
X0268137Y0237156D01*
X0267854Y0237194D01*
X0267570Y0237225D01*
X0267286Y0237249D01*
X0267001Y0237266D01*
X0266715Y0237277D01*
X0266430Y0237280D01*
X0034146Y0237280D01*
X0033973Y0235266D02*
X0266603Y0235266D01*
X0270092Y0234467D02*
X0030484Y0234467D01*
D11*
X0030633Y0111679D02*
X0036538Y0111679D01*
X0036538Y0101679D02*
X0030633Y0101679D01*
X0030633Y0091679D02*
X0036538Y0091679D01*
X0036538Y0081679D02*
X0030633Y0081679D01*
X0030633Y0071679D02*
X0036538Y0071679D01*
D12*
X0125288Y0052199D02*
X0125288Y0047399D01*
X0135288Y0047399D02*
X0135288Y0052199D01*
X0145288Y0052199D02*
X0145288Y0047399D01*
X0155288Y0047399D02*
X0155288Y0052199D01*
X0165288Y0052199D02*
X0165288Y0047399D01*
X0175288Y0047399D02*
X0175288Y0052199D01*
X0175288Y0107399D02*
X0175288Y0112199D01*
X0165288Y0112199D02*
X0165288Y0107399D01*
X0155288Y0107399D02*
X0155288Y0112199D01*
X0145288Y0112199D02*
X0145288Y0107399D01*
X0135288Y0107399D02*
X0135288Y0112199D01*
X0125288Y0112199D02*
X0125288Y0107399D01*
D13*
X0134835Y0216591D02*
X0134835Y0224268D01*
X0114835Y0224268D02*
X0114835Y0216591D01*
X0094835Y0216591D02*
X0094835Y0224268D01*
X0154835Y0224268D02*
X0154835Y0216591D01*
X0174835Y0216591D02*
X0174835Y0224268D01*
X0194835Y0224268D02*
X0194835Y0216591D01*
X0214835Y0216591D02*
X0214835Y0224268D01*
X0234835Y0224268D02*
X0234835Y0216591D01*
D14*
X0177946Y0165429D03*
D15*
X0191725Y0165429D03*
D16*
X0203585Y0156679D03*
X0203585Y0150429D03*
X0203585Y0144179D03*
X0214835Y0136679D03*
X0224835Y0136679D03*
X0244835Y0142929D03*
X0248585Y0142929D03*
X0222335Y0159179D03*
X0222335Y0162929D03*
X0221085Y0175429D03*
X0237335Y0175429D03*
X0182335Y0146679D03*
X0182335Y0141679D03*
X0182335Y0136679D03*
X0182335Y0131679D03*
X0182335Y0126679D03*
X0188585Y0126679D03*
X0188585Y0110429D03*
X0208585Y0096679D03*
X0208585Y0090429D03*
X0214835Y0096679D03*
X0182335Y0076679D03*
X0178585Y0086679D03*
X0182335Y0067929D03*
X0187335Y0050429D03*
X0138585Y0096679D03*
X0117335Y0126679D03*
X0123585Y0127929D03*
X0126085Y0137304D03*
X0130460Y0137304D03*
X0137335Y0132304D03*
X0152335Y0135429D03*
X0154835Y0139179D03*
X0152335Y0142929D03*
X0144835Y0147929D03*
X0144835Y0152929D03*
X0144835Y0157929D03*
X0144835Y0162929D03*
X0137335Y0172929D03*
X0132335Y0170429D03*
X0132335Y0175429D03*
X0127335Y0154179D03*
X0127335Y0149179D03*
X0093585Y0167929D03*
X0088585Y0167929D03*
X0079210Y0160429D03*
X0067335Y0160429D03*
X0067335Y0155429D03*
X0067335Y0165429D03*
X0044835Y0167929D03*
X0044835Y0171679D03*
X0030278Y0176738D03*
X0026528Y0176738D03*
X0053585Y0141679D03*
X0083585Y0149179D03*
X0084835Y0141679D03*
X0091085Y0056679D03*
X0087335Y0054179D03*
X0074835Y0055429D03*
X0109835Y0055429D03*
X0107335Y0225429D03*
X0146085Y0225429D03*
D17*
X0034146Y0225469D03*
X0034146Y0052240D03*
X0266430Y0052240D03*
X0266430Y0225469D03*
D18*
X0237335Y0175429D02*
X0221085Y0175429D01*
X0188585Y0126679D02*
X0188585Y0110429D01*
X0178585Y0086679D02*
X0182335Y0082929D01*
X0182335Y0076679D01*
X0182335Y0067929D01*
X0179835Y0057929D02*
X0187335Y0050429D01*
X0179835Y0057929D02*
X0122335Y0057929D01*
X0119835Y0055429D01*
X0109835Y0055429D01*
X0138585Y0096679D02*
X0133585Y0101679D01*
X0114835Y0101679D01*
X0111085Y0105429D01*
X0111085Y0115429D01*
X0117335Y0121679D01*
X0117335Y0126679D01*
X0084835Y0141679D02*
X0053585Y0141679D01*
X0107335Y0225429D02*
X0112335Y0230429D01*
X0141085Y0230429D01*
X0146085Y0225429D01*
D19*
X0107335Y0131679D03*
X0103585Y0131679D03*
X0114835Y0111679D03*
X0114835Y0107929D03*
X0107335Y0104179D03*
X0103585Y0104179D03*
X0118585Y0089179D03*
X0128585Y0069179D03*
X0069835Y0111679D03*
X0072335Y0115429D03*
X0072335Y0119179D03*
X0047335Y0115429D03*
X0043585Y0119179D03*
X0047335Y0111679D03*
X0146085Y0122929D03*
X0149835Y0119179D03*
D20*
X0126085Y0119179D01*
X0118585Y0111679D01*
X0118585Y0110429D01*
X0116085Y0107929D01*
X0114835Y0107929D01*
X0114835Y0111679D02*
X0126085Y0122929D01*
X0146085Y0122929D01*
X0107335Y0131679D02*
X0107335Y0104179D01*
X0103585Y0104179D02*
X0103585Y0131679D01*
X0072335Y0119179D02*
X0043585Y0119179D01*
X0047335Y0115429D02*
X0072335Y0115429D01*
X0069835Y0111679D02*
X0047335Y0111679D01*
X0118585Y0089179D02*
X0128585Y0079179D01*
X0128585Y0069179D01*
M02*
