G75*
%MOIN*%
%OFA0B0*%
%FSLAX25Y25*%
%IPPOS*%
%LPD*%
%AMOC8*
5,1,8,0,0,1.08239X$1,22.5*
%
%ADD10C,0.00800*%
%ADD11C,0.06306*%
%ADD12C,0.05200*%
%ADD13C,0.08077*%
%ADD14C,0.09061*%
%ADD15OC8,0.09061*%
%ADD16C,0.20085*%
D10*
X0034146Y0040429D02*
X0266430Y0040429D01*
X0266715Y0040432D01*
X0267001Y0040443D01*
X0267286Y0040460D01*
X0267570Y0040484D01*
X0267854Y0040515D01*
X0268137Y0040553D01*
X0268418Y0040598D01*
X0268699Y0040649D01*
X0268979Y0040707D01*
X0269257Y0040772D01*
X0269533Y0040844D01*
X0269807Y0040922D01*
X0270080Y0041007D01*
X0270350Y0041099D01*
X0270618Y0041197D01*
X0270884Y0041301D01*
X0271147Y0041412D01*
X0271407Y0041529D01*
X0271665Y0041652D01*
X0271919Y0041782D01*
X0272170Y0041918D01*
X0272418Y0042059D01*
X0272662Y0042207D01*
X0272903Y0042360D01*
X0273139Y0042520D01*
X0273372Y0042685D01*
X0273601Y0042855D01*
X0273826Y0043031D01*
X0274046Y0043213D01*
X0274262Y0043399D01*
X0274473Y0043591D01*
X0274680Y0043788D01*
X0274882Y0043990D01*
X0275079Y0044197D01*
X0275271Y0044408D01*
X0275457Y0044624D01*
X0275639Y0044844D01*
X0275815Y0045069D01*
X0275985Y0045298D01*
X0276150Y0045531D01*
X0276310Y0045767D01*
X0276463Y0046008D01*
X0276611Y0046252D01*
X0276752Y0046500D01*
X0276888Y0046751D01*
X0277018Y0047005D01*
X0277141Y0047263D01*
X0277258Y0047523D01*
X0277369Y0047786D01*
X0277473Y0048052D01*
X0277571Y0048320D01*
X0277663Y0048590D01*
X0277748Y0048863D01*
X0277826Y0049137D01*
X0277898Y0049413D01*
X0277963Y0049691D01*
X0278021Y0049971D01*
X0278072Y0050252D01*
X0278117Y0050533D01*
X0278155Y0050816D01*
X0278186Y0051100D01*
X0278210Y0051384D01*
X0278227Y0051669D01*
X0278238Y0051955D01*
X0278241Y0052240D01*
X0278241Y0225469D01*
X0278238Y0225754D01*
X0278227Y0226040D01*
X0278210Y0226325D01*
X0278186Y0226609D01*
X0278155Y0226893D01*
X0278117Y0227176D01*
X0278072Y0227457D01*
X0278021Y0227738D01*
X0277963Y0228018D01*
X0277898Y0228296D01*
X0277826Y0228572D01*
X0277748Y0228846D01*
X0277663Y0229119D01*
X0277571Y0229389D01*
X0277473Y0229657D01*
X0277369Y0229923D01*
X0277258Y0230186D01*
X0277141Y0230446D01*
X0277018Y0230704D01*
X0276888Y0230958D01*
X0276752Y0231209D01*
X0276611Y0231457D01*
X0276463Y0231701D01*
X0276310Y0231942D01*
X0276150Y0232178D01*
X0275985Y0232411D01*
X0275815Y0232640D01*
X0275639Y0232865D01*
X0275457Y0233085D01*
X0275271Y0233301D01*
X0275079Y0233512D01*
X0274882Y0233719D01*
X0274680Y0233921D01*
X0274473Y0234118D01*
X0274262Y0234310D01*
X0274046Y0234496D01*
X0273826Y0234678D01*
X0273601Y0234854D01*
X0273372Y0235024D01*
X0273139Y0235189D01*
X0272903Y0235349D01*
X0272662Y0235502D01*
X0272418Y0235650D01*
X0272170Y0235791D01*
X0271919Y0235927D01*
X0271665Y0236057D01*
X0271407Y0236180D01*
X0271147Y0236297D01*
X0270884Y0236408D01*
X0270618Y0236512D01*
X0270350Y0236610D01*
X0270080Y0236702D01*
X0269807Y0236787D01*
X0269533Y0236865D01*
X0269257Y0236937D01*
X0268979Y0237002D01*
X0268699Y0237060D01*
X0268418Y0237111D01*
X0268137Y0237156D01*
X0267854Y0237194D01*
X0267570Y0237225D01*
X0267286Y0237249D01*
X0267001Y0237266D01*
X0266715Y0237277D01*
X0266430Y0237280D01*
X0034146Y0237280D01*
X0033861Y0237277D01*
X0033575Y0237266D01*
X0033290Y0237249D01*
X0033006Y0237225D01*
X0032722Y0237194D01*
X0032439Y0237156D01*
X0032158Y0237111D01*
X0031877Y0237060D01*
X0031597Y0237002D01*
X0031319Y0236937D01*
X0031043Y0236865D01*
X0030769Y0236787D01*
X0030496Y0236702D01*
X0030226Y0236610D01*
X0029958Y0236512D01*
X0029692Y0236408D01*
X0029429Y0236297D01*
X0029169Y0236180D01*
X0028911Y0236057D01*
X0028657Y0235927D01*
X0028406Y0235791D01*
X0028158Y0235650D01*
X0027914Y0235502D01*
X0027673Y0235349D01*
X0027437Y0235189D01*
X0027204Y0235024D01*
X0026975Y0234854D01*
X0026750Y0234678D01*
X0026530Y0234496D01*
X0026314Y0234310D01*
X0026103Y0234118D01*
X0025896Y0233921D01*
X0025694Y0233719D01*
X0025497Y0233512D01*
X0025305Y0233301D01*
X0025119Y0233085D01*
X0024937Y0232865D01*
X0024761Y0232640D01*
X0024591Y0232411D01*
X0024426Y0232178D01*
X0024266Y0231942D01*
X0024113Y0231701D01*
X0023965Y0231457D01*
X0023824Y0231209D01*
X0023688Y0230958D01*
X0023558Y0230704D01*
X0023435Y0230446D01*
X0023318Y0230186D01*
X0023207Y0229923D01*
X0023103Y0229657D01*
X0023005Y0229389D01*
X0022913Y0229119D01*
X0022828Y0228846D01*
X0022750Y0228572D01*
X0022678Y0228296D01*
X0022613Y0228018D01*
X0022555Y0227738D01*
X0022504Y0227457D01*
X0022459Y0227176D01*
X0022421Y0226893D01*
X0022390Y0226609D01*
X0022366Y0226325D01*
X0022349Y0226040D01*
X0022338Y0225754D01*
X0022335Y0225469D01*
X0022335Y0052240D01*
X0022338Y0051955D01*
X0022349Y0051669D01*
X0022366Y0051384D01*
X0022390Y0051100D01*
X0022421Y0050816D01*
X0022459Y0050533D01*
X0022504Y0050252D01*
X0022555Y0049971D01*
X0022613Y0049691D01*
X0022678Y0049413D01*
X0022750Y0049137D01*
X0022828Y0048863D01*
X0022913Y0048590D01*
X0023005Y0048320D01*
X0023103Y0048052D01*
X0023207Y0047786D01*
X0023318Y0047523D01*
X0023435Y0047263D01*
X0023558Y0047005D01*
X0023688Y0046751D01*
X0023824Y0046500D01*
X0023965Y0046252D01*
X0024113Y0046008D01*
X0024266Y0045767D01*
X0024426Y0045531D01*
X0024591Y0045298D01*
X0024761Y0045069D01*
X0024937Y0044844D01*
X0025119Y0044624D01*
X0025305Y0044408D01*
X0025497Y0044197D01*
X0025694Y0043990D01*
X0025896Y0043788D01*
X0026103Y0043591D01*
X0026314Y0043399D01*
X0026530Y0043213D01*
X0026750Y0043031D01*
X0026975Y0042855D01*
X0027204Y0042685D01*
X0027437Y0042520D01*
X0027673Y0042360D01*
X0027914Y0042207D01*
X0028158Y0042059D01*
X0028406Y0041918D01*
X0028657Y0041782D01*
X0028911Y0041652D01*
X0029169Y0041529D01*
X0029429Y0041412D01*
X0029692Y0041301D01*
X0029958Y0041197D01*
X0030226Y0041099D01*
X0030496Y0041007D01*
X0030769Y0040922D01*
X0031043Y0040844D01*
X0031319Y0040772D01*
X0031597Y0040707D01*
X0031877Y0040649D01*
X0032158Y0040598D01*
X0032439Y0040553D01*
X0032722Y0040515D01*
X0033006Y0040484D01*
X0033290Y0040460D01*
X0033575Y0040443D01*
X0033861Y0040432D01*
X0034146Y0040429D01*
D11*
X0036538Y0071679D02*
X0030633Y0071679D01*
X0030633Y0081679D02*
X0036538Y0081679D01*
X0036538Y0091679D02*
X0030633Y0091679D01*
X0030633Y0101679D02*
X0036538Y0101679D01*
X0036538Y0111679D02*
X0030633Y0111679D01*
D12*
X0125288Y0112199D02*
X0125288Y0107399D01*
X0135288Y0107399D02*
X0135288Y0112199D01*
X0145288Y0112199D02*
X0145288Y0107399D01*
X0155288Y0107399D02*
X0155288Y0112199D01*
X0165288Y0112199D02*
X0165288Y0107399D01*
X0175288Y0107399D02*
X0175288Y0112199D01*
X0175288Y0052199D02*
X0175288Y0047399D01*
X0165288Y0047399D02*
X0165288Y0052199D01*
X0155288Y0052199D02*
X0155288Y0047399D01*
X0145288Y0047399D02*
X0145288Y0052199D01*
X0135288Y0052199D02*
X0135288Y0047399D01*
X0125288Y0047399D02*
X0125288Y0052199D01*
D13*
X0134835Y0216591D02*
X0134835Y0224268D01*
X0114835Y0224268D02*
X0114835Y0216591D01*
X0094835Y0216591D02*
X0094835Y0224268D01*
X0154835Y0224268D02*
X0154835Y0216591D01*
X0174835Y0216591D02*
X0174835Y0224268D01*
X0194835Y0224268D02*
X0194835Y0216591D01*
X0214835Y0216591D02*
X0214835Y0224268D01*
X0234835Y0224268D02*
X0234835Y0216591D01*
D14*
X0177946Y0165429D03*
D15*
X0191725Y0165429D03*
D16*
X0266430Y0225469D03*
X0266430Y0052240D03*
X0034146Y0052240D03*
X0034146Y0225469D03*
M02*
