G75*
%MOIN*%
%OFA0B0*%
%FSLAX25Y25*%
%IPPOS*%
%LPD*%
%AMOC8*
5,1,8,0,0,1.08239X$1,22.5*
%
%ADD10C,0.00800*%
%ADD11R,0.05118X0.04331*%
%ADD12R,0.06890X0.02756*%
%ADD13R,0.02756X0.06890*%
%ADD14R,0.04331X0.05118*%
%ADD15C,0.05906*%
%ADD16C,0.04800*%
%ADD17R,0.03150X0.03937*%
%ADD18C,0.07677*%
%ADD19R,0.06693X0.02559*%
%ADD20R,0.09449X0.07480*%
%ADD21R,0.06496X0.01772*%
%ADD22R,0.09843X0.15748*%
%ADD23R,0.06299X0.07087*%
%ADD24R,0.04331X0.04331*%
%ADD25C,0.08661*%
%ADD26OC8,0.08661*%
%ADD27C,0.03562*%
%ADD28C,0.19685*%
%ADD29C,0.03200*%
%ADD30C,0.02400*%
%ADD31C,0.00400*%
%ADD32C,0.02100*%
%ADD33C,0.01200*%
%ADD34C,0.02775*%
%ADD35C,0.01600*%
D10*
X0034146Y0040429D02*
X0266430Y0040429D01*
X0266430Y0042429D02*
X0181833Y0042429D01*
X0183559Y0044155D01*
X0183921Y0044305D01*
X0184709Y0045093D01*
X0185135Y0046122D01*
X0185135Y0047848D01*
X0185420Y0047563D01*
X0186663Y0047048D01*
X0188008Y0047048D01*
X0189251Y0047563D01*
X0189317Y0047629D01*
X0199142Y0047629D01*
X0200171Y0048055D01*
X0202671Y0050555D01*
X0203459Y0051343D01*
X0203885Y0052372D01*
X0203885Y0088486D01*
X0203459Y0089515D01*
X0200959Y0092015D01*
X0200171Y0092803D01*
X0199142Y0093229D01*
X0197999Y0093229D01*
X0197821Y0093407D01*
X0189606Y0093407D01*
X0189428Y0093229D01*
X0187635Y0093229D01*
X0187635Y0105519D01*
X0189164Y0107048D01*
X0189258Y0107048D01*
X0190501Y0107563D01*
X0191452Y0108514D01*
X0191967Y0109757D01*
X0191967Y0111102D01*
X0191452Y0112344D01*
X0191167Y0112629D01*
X0194142Y0112629D01*
X0195171Y0113055D01*
X0202245Y0120129D01*
X0237892Y0120129D01*
X0238921Y0120555D01*
X0241421Y0123055D01*
X0242209Y0123843D01*
X0242635Y0124872D01*
X0242635Y0125022D01*
X0242813Y0125199D01*
X0242813Y0126980D01*
X0243176Y0126980D01*
X0243176Y0126951D01*
X0244114Y0126014D01*
X0250557Y0126014D01*
X0251494Y0126951D01*
X0251494Y0126980D01*
X0252243Y0126980D01*
X0253272Y0127406D01*
X0255135Y0129269D01*
X0255135Y0117590D01*
X0225174Y0087629D01*
X0220843Y0087629D01*
X0220065Y0088407D01*
X0211850Y0088407D01*
X0210913Y0087470D01*
X0210913Y0083388D01*
X0211372Y0082929D01*
X0210913Y0082470D01*
X0210913Y0078388D01*
X0211372Y0077929D01*
X0210913Y0077470D01*
X0210913Y0073388D01*
X0211850Y0072451D01*
X0220065Y0072451D01*
X0220843Y0073229D01*
X0226997Y0073229D01*
X0263247Y0109479D01*
X0264535Y0110768D01*
X0264535Y0165090D01*
X0229535Y0200090D01*
X0229535Y0230090D01*
X0224346Y0235280D01*
X0266430Y0235280D01*
X0267965Y0235159D01*
X0270884Y0234210D01*
X0273367Y0232406D01*
X0275172Y0229923D01*
X0276120Y0227003D01*
X0276241Y0225469D01*
X0276241Y0052240D01*
X0276120Y0050705D01*
X0275172Y0047786D01*
X0273367Y0045303D01*
X0270884Y0043498D01*
X0267965Y0042550D01*
X0266430Y0042429D01*
X0268810Y0042825D02*
X0182229Y0042825D01*
X0183027Y0043623D02*
X0271056Y0043623D01*
X0272155Y0044422D02*
X0184038Y0044422D01*
X0184762Y0045220D02*
X0273254Y0045220D01*
X0273888Y0046019D02*
X0185093Y0046019D01*
X0185135Y0046817D02*
X0274468Y0046817D01*
X0275048Y0047616D02*
X0189304Y0047616D01*
X0185367Y0047616D02*
X0185135Y0047616D01*
X0200530Y0048414D02*
X0275376Y0048414D01*
X0275635Y0049213D02*
X0201329Y0049213D01*
X0202127Y0050011D02*
X0275895Y0050011D01*
X0276128Y0050810D02*
X0202926Y0050810D01*
X0203569Y0051608D02*
X0276191Y0051608D01*
X0276241Y0052407D02*
X0203885Y0052407D01*
X0203885Y0053205D02*
X0276241Y0053205D01*
X0276241Y0054004D02*
X0203885Y0054004D01*
X0203885Y0054802D02*
X0276241Y0054802D01*
X0276241Y0055601D02*
X0203885Y0055601D01*
X0203885Y0056399D02*
X0276241Y0056399D01*
X0276241Y0057198D02*
X0203885Y0057198D01*
X0203885Y0057996D02*
X0276241Y0057996D01*
X0276241Y0058795D02*
X0203885Y0058795D01*
X0203885Y0059593D02*
X0276241Y0059593D01*
X0276241Y0060392D02*
X0203885Y0060392D01*
X0203885Y0061190D02*
X0276241Y0061190D01*
X0276241Y0061989D02*
X0203885Y0061989D01*
X0203885Y0062787D02*
X0276241Y0062787D01*
X0276241Y0063586D02*
X0203885Y0063586D01*
X0203885Y0064384D02*
X0276241Y0064384D01*
X0276241Y0065183D02*
X0203885Y0065183D01*
X0203885Y0065981D02*
X0276241Y0065981D01*
X0276241Y0066780D02*
X0203885Y0066780D01*
X0203885Y0067579D02*
X0276241Y0067579D01*
X0276241Y0068377D02*
X0203885Y0068377D01*
X0203885Y0069176D02*
X0276241Y0069176D01*
X0276241Y0069974D02*
X0203885Y0069974D01*
X0203885Y0070773D02*
X0276241Y0070773D01*
X0276241Y0071571D02*
X0203885Y0071571D01*
X0203885Y0072370D02*
X0276241Y0072370D01*
X0276241Y0073168D02*
X0220782Y0073168D01*
X0227734Y0073967D02*
X0276241Y0073967D01*
X0276241Y0074765D02*
X0228533Y0074765D01*
X0229331Y0075564D02*
X0276241Y0075564D01*
X0276241Y0076362D02*
X0230130Y0076362D01*
X0230928Y0077161D02*
X0276241Y0077161D01*
X0276241Y0077959D02*
X0231727Y0077959D01*
X0232525Y0078758D02*
X0276241Y0078758D01*
X0276241Y0079556D02*
X0233324Y0079556D01*
X0234122Y0080355D02*
X0276241Y0080355D01*
X0276241Y0081153D02*
X0234921Y0081153D01*
X0235719Y0081952D02*
X0276241Y0081952D01*
X0276241Y0082750D02*
X0236518Y0082750D01*
X0237316Y0083549D02*
X0276241Y0083549D01*
X0276241Y0084347D02*
X0238115Y0084347D01*
X0238913Y0085146D02*
X0276241Y0085146D01*
X0276241Y0085944D02*
X0239712Y0085944D01*
X0240510Y0086743D02*
X0276241Y0086743D01*
X0276241Y0087541D02*
X0241309Y0087541D01*
X0242107Y0088340D02*
X0276241Y0088340D01*
X0276241Y0089138D02*
X0242906Y0089138D01*
X0243704Y0089937D02*
X0276241Y0089937D01*
X0276241Y0090735D02*
X0244503Y0090735D01*
X0245301Y0091534D02*
X0276241Y0091534D01*
X0276241Y0092332D02*
X0246100Y0092332D01*
X0246898Y0093131D02*
X0276241Y0093131D01*
X0276241Y0093929D02*
X0247697Y0093929D01*
X0248495Y0094728D02*
X0276241Y0094728D01*
X0276241Y0095526D02*
X0249294Y0095526D01*
X0250092Y0096325D02*
X0276241Y0096325D01*
X0276241Y0097123D02*
X0250891Y0097123D01*
X0251690Y0097922D02*
X0276241Y0097922D01*
X0276241Y0098720D02*
X0252488Y0098720D01*
X0253287Y0099519D02*
X0276241Y0099519D01*
X0276241Y0100317D02*
X0254085Y0100317D01*
X0254884Y0101116D02*
X0276241Y0101116D01*
X0276241Y0101915D02*
X0255682Y0101915D01*
X0256481Y0102713D02*
X0276241Y0102713D01*
X0276241Y0103512D02*
X0257279Y0103512D01*
X0258078Y0104310D02*
X0276241Y0104310D01*
X0276241Y0105109D02*
X0258876Y0105109D01*
X0259675Y0105907D02*
X0276241Y0105907D01*
X0276241Y0106706D02*
X0260473Y0106706D01*
X0261272Y0107504D02*
X0276241Y0107504D01*
X0276241Y0108303D02*
X0262070Y0108303D01*
X0262869Y0109101D02*
X0276241Y0109101D01*
X0276241Y0109900D02*
X0263667Y0109900D01*
X0264466Y0110698D02*
X0276241Y0110698D01*
X0276241Y0111497D02*
X0264535Y0111497D01*
X0264535Y0112295D02*
X0276241Y0112295D01*
X0276241Y0113094D02*
X0264535Y0113094D01*
X0264535Y0113892D02*
X0276241Y0113892D01*
X0276241Y0114691D02*
X0264535Y0114691D01*
X0264535Y0115489D02*
X0276241Y0115489D01*
X0276241Y0116288D02*
X0264535Y0116288D01*
X0264535Y0117086D02*
X0276241Y0117086D01*
X0276241Y0117885D02*
X0264535Y0117885D01*
X0264535Y0118683D02*
X0276241Y0118683D01*
X0276241Y0119482D02*
X0264535Y0119482D01*
X0264535Y0120280D02*
X0276241Y0120280D01*
X0276241Y0121079D02*
X0264535Y0121079D01*
X0264535Y0121877D02*
X0276241Y0121877D01*
X0276241Y0122676D02*
X0264535Y0122676D01*
X0264535Y0123474D02*
X0276241Y0123474D01*
X0276241Y0124273D02*
X0264535Y0124273D01*
X0264535Y0125071D02*
X0276241Y0125071D01*
X0276241Y0125870D02*
X0264535Y0125870D01*
X0264535Y0126668D02*
X0276241Y0126668D01*
X0276241Y0127467D02*
X0264535Y0127467D01*
X0264535Y0128265D02*
X0276241Y0128265D01*
X0276241Y0129064D02*
X0264535Y0129064D01*
X0264535Y0129862D02*
X0276241Y0129862D01*
X0276241Y0130661D02*
X0264535Y0130661D01*
X0264535Y0131459D02*
X0276241Y0131459D01*
X0276241Y0132258D02*
X0264535Y0132258D01*
X0264535Y0133056D02*
X0276241Y0133056D01*
X0276241Y0133855D02*
X0264535Y0133855D01*
X0264535Y0134653D02*
X0276241Y0134653D01*
X0276241Y0135452D02*
X0264535Y0135452D01*
X0264535Y0136250D02*
X0276241Y0136250D01*
X0276241Y0137049D02*
X0264535Y0137049D01*
X0264535Y0137848D02*
X0276241Y0137848D01*
X0276241Y0138646D02*
X0264535Y0138646D01*
X0264535Y0139445D02*
X0276241Y0139445D01*
X0276241Y0140243D02*
X0264535Y0140243D01*
X0264535Y0141042D02*
X0276241Y0141042D01*
X0276241Y0141840D02*
X0264535Y0141840D01*
X0264535Y0142639D02*
X0276241Y0142639D01*
X0276241Y0143437D02*
X0264535Y0143437D01*
X0264535Y0144236D02*
X0276241Y0144236D01*
X0276241Y0145034D02*
X0264535Y0145034D01*
X0264535Y0145833D02*
X0276241Y0145833D01*
X0276241Y0146631D02*
X0264535Y0146631D01*
X0264535Y0147430D02*
X0276241Y0147430D01*
X0276241Y0148228D02*
X0264535Y0148228D01*
X0264535Y0149027D02*
X0276241Y0149027D01*
X0276241Y0149825D02*
X0264535Y0149825D01*
X0264535Y0150624D02*
X0276241Y0150624D01*
X0276241Y0151422D02*
X0264535Y0151422D01*
X0264535Y0152221D02*
X0276241Y0152221D01*
X0276241Y0153019D02*
X0264535Y0153019D01*
X0264535Y0153818D02*
X0276241Y0153818D01*
X0276241Y0154616D02*
X0264535Y0154616D01*
X0264535Y0155415D02*
X0276241Y0155415D01*
X0276241Y0156213D02*
X0264535Y0156213D01*
X0264535Y0157012D02*
X0276241Y0157012D01*
X0276241Y0157810D02*
X0264535Y0157810D01*
X0264535Y0158609D02*
X0276241Y0158609D01*
X0276241Y0159407D02*
X0264535Y0159407D01*
X0264535Y0160206D02*
X0276241Y0160206D01*
X0276241Y0161004D02*
X0264535Y0161004D01*
X0264535Y0161803D02*
X0276241Y0161803D01*
X0276241Y0162601D02*
X0264535Y0162601D01*
X0264535Y0163400D02*
X0276241Y0163400D01*
X0276241Y0164198D02*
X0264535Y0164198D01*
X0264535Y0164997D02*
X0276241Y0164997D01*
X0276241Y0165795D02*
X0263830Y0165795D01*
X0263032Y0166594D02*
X0276241Y0166594D01*
X0276241Y0167392D02*
X0262233Y0167392D01*
X0261435Y0168191D02*
X0276241Y0168191D01*
X0276241Y0168989D02*
X0260636Y0168989D01*
X0259838Y0169788D02*
X0276241Y0169788D01*
X0276241Y0170586D02*
X0259039Y0170586D01*
X0258241Y0171385D02*
X0276241Y0171385D01*
X0276241Y0172184D02*
X0257442Y0172184D01*
X0256644Y0172982D02*
X0276241Y0172982D01*
X0276241Y0173781D02*
X0255845Y0173781D01*
X0255047Y0174579D02*
X0276241Y0174579D01*
X0276241Y0175378D02*
X0254248Y0175378D01*
X0253450Y0176176D02*
X0276241Y0176176D01*
X0276241Y0176975D02*
X0252651Y0176975D01*
X0251853Y0177773D02*
X0276241Y0177773D01*
X0276241Y0178572D02*
X0251054Y0178572D01*
X0250256Y0179370D02*
X0276241Y0179370D01*
X0276241Y0180169D02*
X0249457Y0180169D01*
X0248659Y0180967D02*
X0276241Y0180967D01*
X0276241Y0181766D02*
X0247860Y0181766D01*
X0247062Y0182564D02*
X0276241Y0182564D01*
X0276241Y0183363D02*
X0246263Y0183363D01*
X0245465Y0184161D02*
X0276241Y0184161D01*
X0276241Y0184960D02*
X0244666Y0184960D01*
X0243868Y0185758D02*
X0276241Y0185758D01*
X0276241Y0186557D02*
X0243069Y0186557D01*
X0242271Y0187355D02*
X0276241Y0187355D01*
X0276241Y0188154D02*
X0241472Y0188154D01*
X0240674Y0188952D02*
X0276241Y0188952D01*
X0276241Y0189751D02*
X0239875Y0189751D01*
X0239077Y0190549D02*
X0276241Y0190549D01*
X0276241Y0191348D02*
X0238278Y0191348D01*
X0237480Y0192146D02*
X0276241Y0192146D01*
X0276241Y0192945D02*
X0236681Y0192945D01*
X0235883Y0193743D02*
X0276241Y0193743D01*
X0276241Y0194542D02*
X0235084Y0194542D01*
X0234285Y0195340D02*
X0276241Y0195340D01*
X0276241Y0196139D02*
X0233487Y0196139D01*
X0232688Y0196937D02*
X0276241Y0196937D01*
X0276241Y0197736D02*
X0231890Y0197736D01*
X0231091Y0198534D02*
X0276241Y0198534D01*
X0276241Y0199333D02*
X0230293Y0199333D01*
X0229535Y0200131D02*
X0276241Y0200131D01*
X0276241Y0200930D02*
X0229535Y0200930D01*
X0229535Y0201728D02*
X0276241Y0201728D01*
X0276241Y0202527D02*
X0229535Y0202527D01*
X0229535Y0203325D02*
X0276241Y0203325D01*
X0276241Y0204124D02*
X0229535Y0204124D01*
X0229535Y0204922D02*
X0276241Y0204922D01*
X0276241Y0205721D02*
X0229535Y0205721D01*
X0229535Y0206519D02*
X0276241Y0206519D01*
X0276241Y0207318D02*
X0229535Y0207318D01*
X0229535Y0208117D02*
X0276241Y0208117D01*
X0276241Y0208915D02*
X0229535Y0208915D01*
X0229535Y0209714D02*
X0276241Y0209714D01*
X0276241Y0210512D02*
X0229535Y0210512D01*
X0229535Y0211311D02*
X0276241Y0211311D01*
X0276241Y0212109D02*
X0229535Y0212109D01*
X0229535Y0212908D02*
X0276241Y0212908D01*
X0276241Y0213706D02*
X0229535Y0213706D01*
X0229535Y0214505D02*
X0276241Y0214505D01*
X0276241Y0215303D02*
X0229535Y0215303D01*
X0229535Y0216102D02*
X0276241Y0216102D01*
X0276241Y0216900D02*
X0229535Y0216900D01*
X0229535Y0217699D02*
X0276241Y0217699D01*
X0276241Y0218497D02*
X0229535Y0218497D01*
X0229535Y0219296D02*
X0276241Y0219296D01*
X0276241Y0220094D02*
X0229535Y0220094D01*
X0229535Y0220893D02*
X0276241Y0220893D01*
X0276241Y0221691D02*
X0229535Y0221691D01*
X0229535Y0222490D02*
X0276241Y0222490D01*
X0276241Y0223288D02*
X0229535Y0223288D01*
X0229535Y0224087D02*
X0276241Y0224087D01*
X0276241Y0224885D02*
X0229535Y0224885D01*
X0229535Y0225684D02*
X0276224Y0225684D01*
X0276161Y0226482D02*
X0229535Y0226482D01*
X0229535Y0227281D02*
X0276030Y0227281D01*
X0275771Y0228079D02*
X0229535Y0228079D01*
X0229535Y0228878D02*
X0275511Y0228878D01*
X0275252Y0229676D02*
X0229535Y0229676D01*
X0229151Y0230475D02*
X0274770Y0230475D01*
X0274190Y0231273D02*
X0228352Y0231273D01*
X0227554Y0232072D02*
X0273610Y0232072D01*
X0272728Y0232870D02*
X0226755Y0232870D01*
X0225957Y0233669D02*
X0271629Y0233669D01*
X0270092Y0234467D02*
X0225158Y0234467D01*
X0224360Y0235266D02*
X0266603Y0235266D01*
X0266430Y0237280D02*
X0034146Y0237280D01*
X0034146Y0235280D02*
X0085325Y0235280D01*
X0081424Y0231379D01*
X0080135Y0230090D01*
X0080135Y0208840D01*
X0067674Y0196379D01*
X0066385Y0195090D01*
X0066385Y0180768D01*
X0067635Y0179518D01*
X0068924Y0178229D01*
X0070216Y0178229D01*
X0070516Y0177929D01*
X0070216Y0177629D01*
X0067674Y0177629D01*
X0066385Y0176340D01*
X0062035Y0171990D01*
X0062035Y0186340D01*
X0060747Y0187629D01*
X0055747Y0192629D01*
X0041955Y0192629D01*
X0041276Y0193309D01*
X0033257Y0193309D01*
X0032320Y0192371D01*
X0032320Y0188487D01*
X0032878Y0187929D01*
X0032320Y0187371D01*
X0032320Y0183487D01*
X0032878Y0182929D01*
X0032320Y0182371D01*
X0032320Y0178487D01*
X0032878Y0177929D01*
X0032320Y0177371D01*
X0032320Y0173487D01*
X0033257Y0172550D01*
X0041276Y0172550D01*
X0041955Y0173229D01*
X0047674Y0173229D01*
X0050135Y0170768D01*
X0050135Y0160339D01*
X0042671Y0167803D01*
X0041642Y0168229D01*
X0041355Y0168229D01*
X0041276Y0168309D01*
X0033257Y0168309D01*
X0033178Y0168229D01*
X0032123Y0168229D01*
X0031807Y0168545D01*
X0025364Y0168545D01*
X0024426Y0167608D01*
X0024426Y0161951D01*
X0025364Y0161014D01*
X0031807Y0161014D01*
X0032320Y0161527D01*
X0032320Y0158487D01*
X0032878Y0157929D01*
X0032320Y0157371D01*
X0032320Y0153487D01*
X0032878Y0152929D01*
X0032320Y0152371D01*
X0032320Y0148487D01*
X0032878Y0147929D01*
X0032320Y0147371D01*
X0032320Y0143487D01*
X0032878Y0142929D01*
X0032320Y0142371D01*
X0032320Y0138487D01*
X0032878Y0137929D01*
X0032320Y0137371D01*
X0032320Y0133487D01*
X0032878Y0132929D01*
X0032578Y0132629D01*
X0031424Y0132629D01*
X0027635Y0128840D01*
X0027635Y0119518D01*
X0028924Y0118229D01*
X0030921Y0116232D01*
X0029727Y0116232D01*
X0028054Y0115539D01*
X0026773Y0114258D01*
X0026080Y0112585D01*
X0026080Y0110774D01*
X0026773Y0109100D01*
X0028054Y0107819D01*
X0029727Y0107126D01*
X0037444Y0107126D01*
X0038885Y0107724D01*
X0038885Y0105635D01*
X0037444Y0106232D01*
X0029727Y0106232D01*
X0028054Y0105539D01*
X0026773Y0104258D01*
X0026080Y0102585D01*
X0026080Y0100774D01*
X0026773Y0099100D01*
X0028054Y0097819D01*
X0029727Y0097126D01*
X0037444Y0097126D01*
X0039117Y0097819D01*
X0040398Y0099100D01*
X0040555Y0099479D01*
X0040747Y0099479D01*
X0041997Y0100729D01*
X0043285Y0102018D01*
X0043285Y0115090D01*
X0035826Y0122550D01*
X0040135Y0122550D01*
X0040135Y0119518D01*
X0040598Y0119055D01*
X0040598Y0118585D01*
X0041053Y0117487D01*
X0041893Y0116647D01*
X0042991Y0116192D01*
X0044180Y0116192D01*
X0044467Y0116311D01*
X0044348Y0116023D01*
X0044348Y0114835D01*
X0044803Y0113737D01*
X0044986Y0113554D01*
X0044803Y0113371D01*
X0044348Y0112273D01*
X0044348Y0111085D01*
X0044803Y0109987D01*
X0045135Y0109654D01*
X0045135Y0095090D01*
X0038924Y0088879D01*
X0026424Y0088879D01*
X0025135Y0087590D01*
X0024335Y0086790D01*
X0024335Y0225469D01*
X0024456Y0227003D01*
X0025405Y0229923D01*
X0027209Y0232406D01*
X0029692Y0234210D01*
X0032612Y0235159D01*
X0034146Y0235280D01*
X0033973Y0235266D02*
X0085311Y0235266D01*
X0084512Y0234467D02*
X0030484Y0234467D01*
X0028947Y0233669D02*
X0083714Y0233669D01*
X0082915Y0232870D02*
X0027848Y0232870D01*
X0026966Y0232072D02*
X0082117Y0232072D01*
X0081318Y0231273D02*
X0026386Y0231273D01*
X0025806Y0230475D02*
X0080520Y0230475D01*
X0080135Y0229676D02*
X0025325Y0229676D01*
X0025065Y0228878D02*
X0080135Y0228878D01*
X0080135Y0228079D02*
X0024806Y0228079D01*
X0024546Y0227281D02*
X0080135Y0227281D01*
X0080135Y0226482D02*
X0024415Y0226482D01*
X0024352Y0225684D02*
X0080135Y0225684D01*
X0080135Y0224885D02*
X0024335Y0224885D01*
X0024335Y0224087D02*
X0080135Y0224087D01*
X0080135Y0223288D02*
X0024335Y0223288D01*
X0024335Y0222490D02*
X0080135Y0222490D01*
X0080135Y0221691D02*
X0024335Y0221691D01*
X0024335Y0220893D02*
X0080135Y0220893D01*
X0080135Y0220094D02*
X0024335Y0220094D01*
X0024335Y0219296D02*
X0080135Y0219296D01*
X0080135Y0218497D02*
X0024335Y0218497D01*
X0024335Y0217699D02*
X0080135Y0217699D01*
X0080135Y0216900D02*
X0024335Y0216900D01*
X0024335Y0216102D02*
X0080135Y0216102D01*
X0080135Y0215303D02*
X0024335Y0215303D01*
X0024335Y0214505D02*
X0080135Y0214505D01*
X0080135Y0213706D02*
X0024335Y0213706D01*
X0024335Y0212908D02*
X0080135Y0212908D01*
X0080135Y0212109D02*
X0024335Y0212109D01*
X0024335Y0211311D02*
X0080135Y0211311D01*
X0080135Y0210512D02*
X0024335Y0210512D01*
X0024335Y0209714D02*
X0080135Y0209714D01*
X0080135Y0208915D02*
X0024335Y0208915D01*
X0024335Y0208117D02*
X0079412Y0208117D01*
X0078613Y0207318D02*
X0024335Y0207318D01*
X0024335Y0206519D02*
X0077815Y0206519D01*
X0077016Y0205721D02*
X0024335Y0205721D01*
X0024335Y0204922D02*
X0076217Y0204922D01*
X0075419Y0204124D02*
X0024335Y0204124D01*
X0024335Y0203325D02*
X0074620Y0203325D01*
X0073822Y0202527D02*
X0024335Y0202527D01*
X0024335Y0201728D02*
X0073023Y0201728D01*
X0072225Y0200930D02*
X0024335Y0200930D01*
X0024335Y0200131D02*
X0071426Y0200131D01*
X0070628Y0199333D02*
X0024335Y0199333D01*
X0024335Y0198534D02*
X0069829Y0198534D01*
X0069031Y0197736D02*
X0024335Y0197736D01*
X0024335Y0196937D02*
X0068232Y0196937D01*
X0067434Y0196139D02*
X0024335Y0196139D01*
X0024335Y0195340D02*
X0066635Y0195340D01*
X0066385Y0194542D02*
X0024335Y0194542D01*
X0024335Y0193743D02*
X0066385Y0193743D01*
X0066385Y0192945D02*
X0041640Y0192945D01*
X0032893Y0192945D02*
X0024335Y0192945D01*
X0024335Y0192146D02*
X0032320Y0192146D01*
X0032320Y0191348D02*
X0024335Y0191348D01*
X0024335Y0190549D02*
X0032320Y0190549D01*
X0032320Y0189751D02*
X0024335Y0189751D01*
X0024335Y0188952D02*
X0032320Y0188952D01*
X0032653Y0188154D02*
X0024335Y0188154D01*
X0024335Y0187355D02*
X0032320Y0187355D01*
X0032320Y0186557D02*
X0024335Y0186557D01*
X0024335Y0185758D02*
X0032320Y0185758D01*
X0032320Y0184960D02*
X0024335Y0184960D01*
X0024335Y0184161D02*
X0032320Y0184161D01*
X0032444Y0183363D02*
X0024335Y0183363D01*
X0024335Y0182564D02*
X0032513Y0182564D01*
X0032320Y0181766D02*
X0024335Y0181766D01*
X0024335Y0180967D02*
X0032320Y0180967D01*
X0032320Y0180169D02*
X0024335Y0180169D01*
X0024335Y0179370D02*
X0032320Y0179370D01*
X0032320Y0178572D02*
X0024335Y0178572D01*
X0024335Y0177773D02*
X0032722Y0177773D01*
X0032320Y0176975D02*
X0024335Y0176975D01*
X0024335Y0176176D02*
X0032320Y0176176D01*
X0032320Y0175378D02*
X0024335Y0175378D01*
X0024335Y0174579D02*
X0032320Y0174579D01*
X0032320Y0173781D02*
X0024335Y0173781D01*
X0024335Y0172982D02*
X0032825Y0172982D01*
X0024335Y0172184D02*
X0048720Y0172184D01*
X0047921Y0172982D02*
X0041708Y0172982D01*
X0041735Y0168191D02*
X0050135Y0168191D01*
X0050135Y0168989D02*
X0024335Y0168989D01*
X0024335Y0168191D02*
X0025010Y0168191D01*
X0024426Y0167392D02*
X0024335Y0167392D01*
X0024335Y0166594D02*
X0024426Y0166594D01*
X0024426Y0165795D02*
X0024335Y0165795D01*
X0024335Y0164997D02*
X0024426Y0164997D01*
X0024426Y0164198D02*
X0024335Y0164198D01*
X0024335Y0163400D02*
X0024426Y0163400D01*
X0024426Y0162601D02*
X0024335Y0162601D01*
X0024335Y0161803D02*
X0024575Y0161803D01*
X0024335Y0161004D02*
X0032320Y0161004D01*
X0032320Y0160206D02*
X0024335Y0160206D01*
X0024335Y0159407D02*
X0032320Y0159407D01*
X0032320Y0158609D02*
X0024335Y0158609D01*
X0024335Y0157810D02*
X0032759Y0157810D01*
X0032320Y0157012D02*
X0024335Y0157012D01*
X0024335Y0156213D02*
X0032320Y0156213D01*
X0032320Y0155415D02*
X0024335Y0155415D01*
X0024335Y0154616D02*
X0032320Y0154616D01*
X0032320Y0153818D02*
X0024335Y0153818D01*
X0024335Y0153019D02*
X0032788Y0153019D01*
X0032320Y0152221D02*
X0024335Y0152221D01*
X0024335Y0151422D02*
X0032320Y0151422D01*
X0032320Y0150624D02*
X0024335Y0150624D01*
X0024335Y0149825D02*
X0032320Y0149825D01*
X0032320Y0149027D02*
X0024335Y0149027D01*
X0024335Y0148228D02*
X0032579Y0148228D01*
X0032378Y0147430D02*
X0024335Y0147430D01*
X0024335Y0146631D02*
X0032320Y0146631D01*
X0032320Y0145833D02*
X0024335Y0145833D01*
X0024335Y0145034D02*
X0032320Y0145034D01*
X0032320Y0144236D02*
X0024335Y0144236D01*
X0024335Y0143437D02*
X0032370Y0143437D01*
X0032587Y0142639D02*
X0024335Y0142639D01*
X0024335Y0141840D02*
X0032320Y0141840D01*
X0032320Y0141042D02*
X0024335Y0141042D01*
X0024335Y0140243D02*
X0032320Y0140243D01*
X0032320Y0139445D02*
X0024335Y0139445D01*
X0024335Y0138646D02*
X0032320Y0138646D01*
X0032796Y0137848D02*
X0024335Y0137848D01*
X0024335Y0137049D02*
X0032320Y0137049D01*
X0032320Y0136250D02*
X0024335Y0136250D01*
X0024335Y0135452D02*
X0032320Y0135452D01*
X0032320Y0134653D02*
X0024335Y0134653D01*
X0024335Y0133855D02*
X0032320Y0133855D01*
X0032750Y0133056D02*
X0024335Y0133056D01*
X0024335Y0132258D02*
X0031053Y0132258D01*
X0030254Y0131459D02*
X0024335Y0131459D01*
X0024335Y0130661D02*
X0029456Y0130661D01*
X0028657Y0129862D02*
X0024335Y0129862D01*
X0024335Y0129064D02*
X0027859Y0129064D01*
X0027635Y0128265D02*
X0024335Y0128265D01*
X0024335Y0127467D02*
X0027635Y0127467D01*
X0027635Y0126668D02*
X0024335Y0126668D01*
X0024335Y0125870D02*
X0027635Y0125870D01*
X0027635Y0125071D02*
X0024335Y0125071D01*
X0024335Y0124273D02*
X0027635Y0124273D01*
X0027635Y0123474D02*
X0024335Y0123474D01*
X0024335Y0122676D02*
X0027635Y0122676D01*
X0027635Y0121877D02*
X0024335Y0121877D01*
X0024335Y0121079D02*
X0027635Y0121079D01*
X0027635Y0120280D02*
X0024335Y0120280D01*
X0024335Y0119482D02*
X0027672Y0119482D01*
X0028470Y0118683D02*
X0024335Y0118683D01*
X0024335Y0117885D02*
X0029269Y0117885D01*
X0030067Y0117086D02*
X0024335Y0117086D01*
X0024335Y0116288D02*
X0030866Y0116288D01*
X0028004Y0115489D02*
X0024335Y0115489D01*
X0024335Y0114691D02*
X0027206Y0114691D01*
X0026621Y0113892D02*
X0024335Y0113892D01*
X0024335Y0113094D02*
X0026291Y0113094D01*
X0026080Y0112295D02*
X0024335Y0112295D01*
X0024335Y0111497D02*
X0026080Y0111497D01*
X0026111Y0110698D02*
X0024335Y0110698D01*
X0024335Y0109900D02*
X0026442Y0109900D01*
X0026773Y0109101D02*
X0024335Y0109101D01*
X0024335Y0108303D02*
X0027571Y0108303D01*
X0028815Y0107504D02*
X0024335Y0107504D01*
X0024335Y0106706D02*
X0038885Y0106706D01*
X0038885Y0107504D02*
X0038356Y0107504D01*
X0038228Y0105907D02*
X0038885Y0105907D01*
X0043285Y0105907D02*
X0045135Y0105907D01*
X0045135Y0105109D02*
X0043285Y0105109D01*
X0043285Y0104310D02*
X0045135Y0104310D01*
X0045135Y0103512D02*
X0043285Y0103512D01*
X0043285Y0102713D02*
X0045135Y0102713D01*
X0045135Y0101915D02*
X0043182Y0101915D01*
X0042384Y0101116D02*
X0045135Y0101116D01*
X0045135Y0100317D02*
X0041585Y0100317D01*
X0040787Y0099519D02*
X0045135Y0099519D01*
X0045135Y0098720D02*
X0040018Y0098720D01*
X0039220Y0097922D02*
X0045135Y0097922D01*
X0045135Y0097123D02*
X0024335Y0097123D01*
X0024335Y0096325D02*
X0045135Y0096325D01*
X0045135Y0095526D02*
X0024335Y0095526D01*
X0024335Y0094728D02*
X0044773Y0094728D01*
X0043974Y0093929D02*
X0024335Y0093929D01*
X0024335Y0093131D02*
X0043176Y0093131D01*
X0042377Y0092332D02*
X0024335Y0092332D01*
X0024335Y0091534D02*
X0041579Y0091534D01*
X0040780Y0090735D02*
X0024335Y0090735D01*
X0024335Y0089937D02*
X0039982Y0089937D01*
X0039183Y0089138D02*
X0024335Y0089138D01*
X0024335Y0088340D02*
X0025885Y0088340D01*
X0025086Y0087541D02*
X0024335Y0087541D01*
X0024335Y0097922D02*
X0027951Y0097922D01*
X0027153Y0098720D02*
X0024335Y0098720D01*
X0024335Y0099519D02*
X0026600Y0099519D01*
X0026269Y0100317D02*
X0024335Y0100317D01*
X0024335Y0101116D02*
X0026080Y0101116D01*
X0026080Y0101915D02*
X0024335Y0101915D01*
X0024335Y0102713D02*
X0026133Y0102713D01*
X0026464Y0103512D02*
X0024335Y0103512D01*
X0024335Y0104310D02*
X0026825Y0104310D01*
X0027624Y0105109D02*
X0024335Y0105109D01*
X0024335Y0105907D02*
X0028943Y0105907D01*
X0043285Y0106706D02*
X0045135Y0106706D01*
X0045135Y0107504D02*
X0043285Y0107504D01*
X0043285Y0108303D02*
X0045135Y0108303D01*
X0045135Y0109101D02*
X0043285Y0109101D01*
X0043285Y0109900D02*
X0044890Y0109900D01*
X0044508Y0110698D02*
X0043285Y0110698D01*
X0043285Y0111497D02*
X0044348Y0111497D01*
X0044357Y0112295D02*
X0043285Y0112295D01*
X0043285Y0113094D02*
X0044688Y0113094D01*
X0044738Y0113892D02*
X0043285Y0113892D01*
X0043285Y0114691D02*
X0044408Y0114691D01*
X0044348Y0115489D02*
X0042887Y0115489D01*
X0042759Y0116288D02*
X0042088Y0116288D01*
X0041453Y0117086D02*
X0041290Y0117086D01*
X0040888Y0117885D02*
X0040491Y0117885D01*
X0040598Y0118683D02*
X0039693Y0118683D01*
X0040172Y0119482D02*
X0038894Y0119482D01*
X0038096Y0120280D02*
X0040135Y0120280D01*
X0040135Y0121079D02*
X0037297Y0121079D01*
X0036499Y0121877D02*
X0040135Y0121877D01*
X0044411Y0116288D02*
X0044458Y0116288D01*
X0079293Y0142929D02*
X0079851Y0143487D01*
X0079851Y0147371D01*
X0079293Y0147929D01*
X0079851Y0148487D01*
X0079851Y0152371D01*
X0079293Y0152929D01*
X0079851Y0153487D01*
X0079851Y0157371D01*
X0078914Y0158309D01*
X0070895Y0158309D01*
X0069958Y0157371D01*
X0069958Y0153487D01*
X0070516Y0152929D01*
X0069958Y0152371D01*
X0069958Y0149668D01*
X0064535Y0155090D01*
X0064535Y0168268D01*
X0069497Y0173229D01*
X0070216Y0173229D01*
X0070516Y0172929D01*
X0069958Y0172371D01*
X0069958Y0168487D01*
X0070516Y0167929D01*
X0069958Y0167371D01*
X0069958Y0163487D01*
X0070895Y0162550D01*
X0078914Y0162550D01*
X0079593Y0163229D01*
X0081011Y0163229D01*
X0081011Y0155455D01*
X0081948Y0154518D01*
X0092723Y0154518D01*
X0093660Y0155455D01*
X0093660Y0156330D01*
X0094426Y0156330D01*
X0094426Y0155701D01*
X0095364Y0154764D01*
X0101059Y0154764D01*
X0098924Y0152629D01*
X0093924Y0152629D01*
X0092674Y0151379D01*
X0091385Y0150090D01*
X0091385Y0140768D01*
X0092635Y0139518D01*
X0093924Y0138229D01*
X0094426Y0138229D01*
X0094426Y0136951D01*
X0095364Y0136014D01*
X0096385Y0136014D01*
X0096385Y0135768D01*
X0100598Y0131555D01*
X0100598Y0131085D01*
X0101053Y0129987D01*
X0101561Y0129479D01*
X0092245Y0129479D01*
X0091385Y0130339D01*
X0091385Y0138486D01*
X0090959Y0139515D01*
X0088217Y0142258D01*
X0088217Y0142352D01*
X0087702Y0143594D01*
X0086751Y0144545D01*
X0085508Y0145060D01*
X0084163Y0145060D01*
X0082920Y0144545D01*
X0081969Y0143594D01*
X0081454Y0142352D01*
X0081454Y0141921D01*
X0080747Y0142629D01*
X0079593Y0142629D01*
X0079293Y0142929D01*
X0079584Y0142639D02*
X0081573Y0142639D01*
X0081904Y0143437D02*
X0079801Y0143437D01*
X0079851Y0144236D02*
X0082610Y0144236D01*
X0084100Y0145034D02*
X0079851Y0145034D01*
X0079851Y0145833D02*
X0091385Y0145833D01*
X0091385Y0146631D02*
X0079851Y0146631D01*
X0079793Y0147430D02*
X0091385Y0147430D01*
X0091385Y0148228D02*
X0079592Y0148228D01*
X0079851Y0149027D02*
X0091385Y0149027D01*
X0091385Y0149825D02*
X0079851Y0149825D01*
X0079851Y0150624D02*
X0091919Y0150624D01*
X0092717Y0151422D02*
X0079851Y0151422D01*
X0079851Y0152221D02*
X0093516Y0152221D01*
X0092821Y0154616D02*
X0100911Y0154616D01*
X0100113Y0153818D02*
X0079851Y0153818D01*
X0079851Y0154616D02*
X0081850Y0154616D01*
X0081052Y0155415D02*
X0079851Y0155415D01*
X0079851Y0156213D02*
X0081011Y0156213D01*
X0081011Y0157012D02*
X0079851Y0157012D01*
X0079412Y0157810D02*
X0081011Y0157810D01*
X0081011Y0158609D02*
X0064535Y0158609D01*
X0064535Y0159407D02*
X0081011Y0159407D01*
X0081011Y0160206D02*
X0064535Y0160206D01*
X0064535Y0161004D02*
X0081011Y0161004D01*
X0081011Y0161803D02*
X0064535Y0161803D01*
X0064535Y0162601D02*
X0070843Y0162601D01*
X0070045Y0163400D02*
X0064535Y0163400D01*
X0064535Y0164198D02*
X0069958Y0164198D01*
X0069958Y0164997D02*
X0064535Y0164997D01*
X0064535Y0165795D02*
X0069958Y0165795D01*
X0069958Y0166594D02*
X0064535Y0166594D01*
X0064535Y0167392D02*
X0069979Y0167392D01*
X0070254Y0168191D02*
X0064535Y0168191D01*
X0065257Y0168989D02*
X0069958Y0168989D01*
X0069958Y0169788D02*
X0066056Y0169788D01*
X0066854Y0170586D02*
X0069958Y0170586D01*
X0069958Y0171385D02*
X0067653Y0171385D01*
X0068451Y0172184D02*
X0069958Y0172184D01*
X0070463Y0172982D02*
X0069250Y0172982D01*
X0066221Y0176176D02*
X0062035Y0176176D01*
X0062035Y0175378D02*
X0065423Y0175378D01*
X0064624Y0174579D02*
X0062035Y0174579D01*
X0062035Y0173781D02*
X0063826Y0173781D01*
X0063027Y0172982D02*
X0062035Y0172982D01*
X0062035Y0172184D02*
X0062229Y0172184D01*
X0062035Y0176975D02*
X0067020Y0176975D01*
X0068582Y0178572D02*
X0062035Y0178572D01*
X0062035Y0179370D02*
X0067783Y0179370D01*
X0066985Y0180169D02*
X0062035Y0180169D01*
X0062035Y0180967D02*
X0066385Y0180967D01*
X0066385Y0181766D02*
X0062035Y0181766D01*
X0062035Y0182564D02*
X0066385Y0182564D01*
X0066385Y0183363D02*
X0062035Y0183363D01*
X0062035Y0184161D02*
X0066385Y0184161D01*
X0066385Y0184960D02*
X0062035Y0184960D01*
X0062035Y0185758D02*
X0066385Y0185758D01*
X0066385Y0186557D02*
X0061819Y0186557D01*
X0061021Y0187355D02*
X0066385Y0187355D01*
X0066385Y0188154D02*
X0060222Y0188154D01*
X0059424Y0188952D02*
X0066385Y0188952D01*
X0066385Y0189751D02*
X0058625Y0189751D01*
X0057827Y0190549D02*
X0066385Y0190549D01*
X0066385Y0191348D02*
X0057028Y0191348D01*
X0056230Y0192146D02*
X0066385Y0192146D01*
X0070360Y0177773D02*
X0062035Y0177773D01*
X0050135Y0170586D02*
X0024335Y0170586D01*
X0024335Y0169788D02*
X0050135Y0169788D01*
X0049518Y0171385D02*
X0024335Y0171385D01*
X0043082Y0167392D02*
X0050135Y0167392D01*
X0050135Y0166594D02*
X0043880Y0166594D01*
X0044679Y0165795D02*
X0050135Y0165795D01*
X0050135Y0164997D02*
X0045477Y0164997D01*
X0046276Y0164198D02*
X0050135Y0164198D01*
X0050135Y0163400D02*
X0047074Y0163400D01*
X0047873Y0162601D02*
X0050135Y0162601D01*
X0050135Y0161803D02*
X0048671Y0161803D01*
X0049470Y0161004D02*
X0050135Y0161004D01*
X0064535Y0157810D02*
X0070397Y0157810D01*
X0069958Y0157012D02*
X0064535Y0157012D01*
X0064535Y0156213D02*
X0069958Y0156213D01*
X0069958Y0155415D02*
X0064535Y0155415D01*
X0065010Y0154616D02*
X0069958Y0154616D01*
X0069958Y0153818D02*
X0065808Y0153818D01*
X0066607Y0153019D02*
X0070425Y0153019D01*
X0069958Y0152221D02*
X0067405Y0152221D01*
X0068204Y0151422D02*
X0069958Y0151422D01*
X0069958Y0150624D02*
X0069002Y0150624D01*
X0069801Y0149825D02*
X0069958Y0149825D01*
X0079383Y0153019D02*
X0099314Y0153019D01*
X0094713Y0155415D02*
X0093619Y0155415D01*
X0093660Y0156213D02*
X0094426Y0156213D01*
X0094426Y0160730D02*
X0093660Y0160730D01*
X0093660Y0164261D01*
X0092723Y0165198D01*
X0088177Y0165198D01*
X0085747Y0167629D01*
X0079593Y0167629D01*
X0079293Y0167929D01*
X0079593Y0168229D01*
X0085747Y0168229D01*
X0088177Y0170660D01*
X0092723Y0170660D01*
X0093660Y0171597D01*
X0093660Y0175129D01*
X0094426Y0175129D01*
X0094426Y0174501D01*
X0095364Y0173563D01*
X0101385Y0173563D01*
X0101385Y0162295D01*
X0095364Y0162295D01*
X0094426Y0161358D01*
X0094426Y0160730D01*
X0094426Y0161004D02*
X0093660Y0161004D01*
X0093660Y0161803D02*
X0094872Y0161803D01*
X0093660Y0162601D02*
X0101385Y0162601D01*
X0101385Y0163400D02*
X0093660Y0163400D01*
X0093660Y0164198D02*
X0101385Y0164198D01*
X0101385Y0164997D02*
X0092924Y0164997D01*
X0087580Y0165795D02*
X0101385Y0165795D01*
X0101385Y0166594D02*
X0086782Y0166594D01*
X0085983Y0167392D02*
X0101385Y0167392D01*
X0101385Y0168191D02*
X0079555Y0168191D01*
X0078965Y0162601D02*
X0081011Y0162601D01*
X0086507Y0168989D02*
X0101385Y0168989D01*
X0101385Y0169788D02*
X0087306Y0169788D01*
X0088104Y0170586D02*
X0101385Y0170586D01*
X0101385Y0171385D02*
X0093448Y0171385D01*
X0093660Y0172184D02*
X0101385Y0172184D01*
X0101385Y0172982D02*
X0093660Y0172982D01*
X0093660Y0173781D02*
X0095146Y0173781D01*
X0094426Y0174579D02*
X0093660Y0174579D01*
X0113285Y0175175D02*
X0113285Y0183268D01*
X0117035Y0187018D01*
X0117035Y0211615D01*
X0117916Y0211980D01*
X0119446Y0213510D01*
X0120274Y0215509D01*
X0120274Y0225350D01*
X0119446Y0227348D01*
X0119190Y0227604D01*
X0143479Y0227604D01*
X0143219Y0227344D01*
X0142704Y0226102D01*
X0142704Y0224757D01*
X0143219Y0223514D01*
X0143285Y0223448D01*
X0143285Y0176122D01*
X0143712Y0175093D01*
X0144499Y0174305D01*
X0153249Y0165555D01*
X0154278Y0165129D01*
X0156785Y0165129D01*
X0156785Y0139684D01*
X0157399Y0139070D01*
X0157399Y0133881D01*
X0157941Y0133338D01*
X0153858Y0133338D01*
X0152960Y0132441D01*
X0152063Y0133338D01*
X0146407Y0133338D01*
X0146085Y0133017D01*
X0145764Y0133338D01*
X0140108Y0133338D01*
X0139170Y0132401D01*
X0139170Y0131379D01*
X0138924Y0131379D01*
X0137674Y0130129D01*
X0130747Y0130129D01*
X0123285Y0137590D01*
X0123285Y0138792D01*
X0124201Y0139707D01*
X0124201Y0146151D01*
X0124135Y0146217D01*
X0124135Y0147184D01*
X0125385Y0148434D01*
X0125385Y0167425D01*
X0124331Y0168479D01*
X0124135Y0168675D01*
X0124135Y0169642D01*
X0124201Y0169707D01*
X0124201Y0176151D01*
X0123264Y0177088D01*
X0123222Y0177088D01*
X0123081Y0177229D01*
X0115340Y0177229D01*
X0114285Y0176175D01*
X0113285Y0175175D01*
X0113285Y0175378D02*
X0113488Y0175378D01*
X0113285Y0176176D02*
X0114287Y0176176D01*
X0114285Y0176175D02*
X0114285Y0176175D01*
X0115085Y0176975D02*
X0113285Y0176975D01*
X0113285Y0177773D02*
X0143285Y0177773D01*
X0143285Y0176975D02*
X0123378Y0176975D01*
X0124176Y0176176D02*
X0143285Y0176176D01*
X0143594Y0175378D02*
X0124201Y0175378D01*
X0124201Y0174579D02*
X0144226Y0174579D01*
X0145024Y0173781D02*
X0124201Y0173781D01*
X0124201Y0172982D02*
X0145823Y0172982D01*
X0146621Y0172184D02*
X0124201Y0172184D01*
X0124201Y0171385D02*
X0147420Y0171385D01*
X0148218Y0170586D02*
X0124201Y0170586D01*
X0124201Y0169788D02*
X0149017Y0169788D01*
X0149815Y0168989D02*
X0124135Y0168989D01*
X0124619Y0168191D02*
X0150614Y0168191D01*
X0151412Y0167392D02*
X0142293Y0167392D01*
X0141831Y0167854D02*
X0130340Y0167854D01*
X0129285Y0166800D01*
X0129285Y0149059D01*
X0130340Y0148004D01*
X0131785Y0146559D01*
X0131785Y0139059D01*
X0132350Y0138494D01*
X0132350Y0134845D01*
X0133287Y0133908D01*
X0139730Y0133908D01*
X0140668Y0134845D01*
X0140668Y0135529D01*
X0140927Y0135529D01*
X0141013Y0135443D01*
X0148835Y0135443D01*
X0149772Y0136381D01*
X0149772Y0141978D01*
X0148835Y0142915D01*
X0141994Y0142915D01*
X0141635Y0143273D01*
X0141635Y0144684D01*
X0142885Y0145934D01*
X0142885Y0166800D01*
X0141831Y0167854D01*
X0142885Y0166594D02*
X0152211Y0166594D01*
X0153009Y0165795D02*
X0142885Y0165795D01*
X0142885Y0164997D02*
X0156785Y0164997D01*
X0156785Y0164198D02*
X0142885Y0164198D01*
X0142885Y0163400D02*
X0156785Y0163400D01*
X0156785Y0162601D02*
X0142885Y0162601D01*
X0142885Y0161803D02*
X0156785Y0161803D01*
X0156785Y0161004D02*
X0142885Y0161004D01*
X0142885Y0160206D02*
X0156785Y0160206D01*
X0156785Y0159407D02*
X0142885Y0159407D01*
X0142885Y0158609D02*
X0156785Y0158609D01*
X0156785Y0157810D02*
X0142885Y0157810D01*
X0142885Y0157012D02*
X0156785Y0157012D01*
X0156785Y0156213D02*
X0142885Y0156213D01*
X0142885Y0155415D02*
X0156785Y0155415D01*
X0156785Y0154616D02*
X0142885Y0154616D01*
X0142885Y0153818D02*
X0156785Y0153818D01*
X0156785Y0153019D02*
X0142885Y0153019D01*
X0142885Y0152221D02*
X0156785Y0152221D01*
X0156785Y0151422D02*
X0142885Y0151422D01*
X0142885Y0150624D02*
X0156785Y0150624D01*
X0156785Y0149825D02*
X0142885Y0149825D01*
X0142885Y0149027D02*
X0156785Y0149027D01*
X0156785Y0148228D02*
X0142885Y0148228D01*
X0142885Y0147430D02*
X0156785Y0147430D01*
X0156785Y0146631D02*
X0142885Y0146631D01*
X0142784Y0145833D02*
X0156785Y0145833D01*
X0156785Y0145034D02*
X0141986Y0145034D01*
X0141635Y0144236D02*
X0156785Y0144236D01*
X0156785Y0143437D02*
X0141635Y0143437D01*
X0149111Y0142639D02*
X0156785Y0142639D01*
X0156785Y0141840D02*
X0149772Y0141840D01*
X0149772Y0141042D02*
X0156785Y0141042D01*
X0156785Y0140243D02*
X0149772Y0140243D01*
X0149772Y0139445D02*
X0157024Y0139445D01*
X0157399Y0138646D02*
X0149772Y0138646D01*
X0149772Y0137848D02*
X0157399Y0137848D01*
X0157399Y0137049D02*
X0149772Y0137049D01*
X0149642Y0136250D02*
X0157399Y0136250D01*
X0157399Y0135452D02*
X0148843Y0135452D01*
X0146125Y0133056D02*
X0146046Y0133056D01*
X0141005Y0135452D02*
X0140668Y0135452D01*
X0140476Y0134653D02*
X0157399Y0134653D01*
X0157424Y0133855D02*
X0127021Y0133855D01*
X0127819Y0133056D02*
X0139826Y0133056D01*
X0139170Y0132258D02*
X0128618Y0132258D01*
X0129416Y0131459D02*
X0139170Y0131459D01*
X0138206Y0130661D02*
X0130215Y0130661D01*
X0126388Y0128265D02*
X0120338Y0128265D01*
X0120202Y0128594D02*
X0120135Y0128661D01*
X0120135Y0134518D01*
X0120174Y0134479D01*
X0127635Y0127018D01*
X0127635Y0127018D01*
X0128924Y0125729D01*
X0139399Y0125729D01*
X0139999Y0125129D01*
X0120353Y0125129D01*
X0120717Y0126007D01*
X0120717Y0127352D01*
X0120202Y0128594D01*
X0120135Y0129064D02*
X0125589Y0129064D01*
X0124791Y0129862D02*
X0120135Y0129862D01*
X0120135Y0130661D02*
X0123992Y0130661D01*
X0123194Y0131459D02*
X0120135Y0131459D01*
X0120135Y0132258D02*
X0122395Y0132258D01*
X0121597Y0133056D02*
X0120135Y0133056D01*
X0120135Y0133855D02*
X0120798Y0133855D01*
X0123827Y0137049D02*
X0132350Y0137049D01*
X0132350Y0137848D02*
X0123285Y0137848D01*
X0123285Y0138646D02*
X0132198Y0138646D01*
X0131785Y0139445D02*
X0123938Y0139445D01*
X0124201Y0140243D02*
X0131785Y0140243D01*
X0131785Y0141042D02*
X0124201Y0141042D01*
X0124201Y0141840D02*
X0131785Y0141840D01*
X0131785Y0142639D02*
X0124201Y0142639D01*
X0124201Y0143437D02*
X0131785Y0143437D01*
X0131785Y0144236D02*
X0124201Y0144236D01*
X0124201Y0145034D02*
X0131785Y0145034D01*
X0131785Y0145833D02*
X0124201Y0145833D01*
X0124135Y0146631D02*
X0131713Y0146631D01*
X0130914Y0147430D02*
X0124382Y0147430D01*
X0125180Y0148228D02*
X0130116Y0148228D01*
X0129317Y0149027D02*
X0125385Y0149027D01*
X0125385Y0149825D02*
X0129285Y0149825D01*
X0129285Y0150624D02*
X0125385Y0150624D01*
X0125385Y0151422D02*
X0129285Y0151422D01*
X0129285Y0152221D02*
X0125385Y0152221D01*
X0125385Y0153019D02*
X0129285Y0153019D01*
X0129285Y0153818D02*
X0125385Y0153818D01*
X0125385Y0154616D02*
X0129285Y0154616D01*
X0129285Y0155415D02*
X0125385Y0155415D01*
X0125385Y0156213D02*
X0129285Y0156213D01*
X0129285Y0157012D02*
X0125385Y0157012D01*
X0125385Y0157810D02*
X0129285Y0157810D01*
X0129285Y0158609D02*
X0125385Y0158609D01*
X0125385Y0159407D02*
X0129285Y0159407D01*
X0129285Y0160206D02*
X0125385Y0160206D01*
X0125385Y0161004D02*
X0129285Y0161004D01*
X0129285Y0161803D02*
X0125385Y0161803D01*
X0125385Y0162601D02*
X0129285Y0162601D01*
X0129285Y0163400D02*
X0125385Y0163400D01*
X0125385Y0164198D02*
X0129285Y0164198D01*
X0129285Y0164997D02*
X0125385Y0164997D01*
X0125385Y0165795D02*
X0129285Y0165795D01*
X0129285Y0166594D02*
X0125385Y0166594D01*
X0125385Y0167392D02*
X0129878Y0167392D01*
X0143285Y0178572D02*
X0113285Y0178572D01*
X0113285Y0179370D02*
X0143285Y0179370D01*
X0143285Y0180169D02*
X0113285Y0180169D01*
X0113285Y0180967D02*
X0143285Y0180967D01*
X0143285Y0181766D02*
X0113285Y0181766D01*
X0113285Y0182564D02*
X0143285Y0182564D01*
X0143285Y0183363D02*
X0113380Y0183363D01*
X0114179Y0184161D02*
X0143285Y0184161D01*
X0143285Y0184960D02*
X0114977Y0184960D01*
X0115776Y0185758D02*
X0143285Y0185758D01*
X0143285Y0186557D02*
X0116574Y0186557D01*
X0117035Y0187355D02*
X0143285Y0187355D01*
X0143285Y0188154D02*
X0117035Y0188154D01*
X0117035Y0188952D02*
X0143285Y0188952D01*
X0143285Y0189751D02*
X0117035Y0189751D01*
X0117035Y0190549D02*
X0143285Y0190549D01*
X0143285Y0191348D02*
X0117035Y0191348D01*
X0117035Y0192146D02*
X0143285Y0192146D01*
X0143285Y0192945D02*
X0117035Y0192945D01*
X0117035Y0193743D02*
X0143285Y0193743D01*
X0143285Y0194542D02*
X0117035Y0194542D01*
X0117035Y0195340D02*
X0143285Y0195340D01*
X0143285Y0196139D02*
X0117035Y0196139D01*
X0117035Y0196937D02*
X0143285Y0196937D01*
X0143285Y0197736D02*
X0117035Y0197736D01*
X0117035Y0198534D02*
X0143285Y0198534D01*
X0143285Y0199333D02*
X0117035Y0199333D01*
X0117035Y0200131D02*
X0143285Y0200131D01*
X0143285Y0200930D02*
X0117035Y0200930D01*
X0117035Y0201728D02*
X0143285Y0201728D01*
X0143285Y0202527D02*
X0117035Y0202527D01*
X0117035Y0203325D02*
X0143285Y0203325D01*
X0143285Y0204124D02*
X0117035Y0204124D01*
X0117035Y0204922D02*
X0143285Y0204922D01*
X0143285Y0205721D02*
X0117035Y0205721D01*
X0117035Y0206519D02*
X0143285Y0206519D01*
X0143285Y0207318D02*
X0117035Y0207318D01*
X0117035Y0208117D02*
X0143285Y0208117D01*
X0143285Y0208915D02*
X0117035Y0208915D01*
X0117035Y0209714D02*
X0143285Y0209714D01*
X0143285Y0210512D02*
X0117035Y0210512D01*
X0117035Y0211311D02*
X0143285Y0211311D01*
X0143285Y0212109D02*
X0118045Y0212109D01*
X0118844Y0212908D02*
X0143285Y0212908D01*
X0143285Y0213706D02*
X0119527Y0213706D01*
X0119858Y0214505D02*
X0143285Y0214505D01*
X0143285Y0215303D02*
X0120189Y0215303D01*
X0120274Y0216102D02*
X0143285Y0216102D01*
X0143285Y0216900D02*
X0120274Y0216900D01*
X0120274Y0217699D02*
X0143285Y0217699D01*
X0143285Y0218497D02*
X0120274Y0218497D01*
X0120274Y0219296D02*
X0143285Y0219296D01*
X0143285Y0220094D02*
X0120274Y0220094D01*
X0120274Y0220893D02*
X0143285Y0220893D01*
X0143285Y0221691D02*
X0120274Y0221691D01*
X0120274Y0222490D02*
X0143285Y0222490D01*
X0143285Y0223288D02*
X0120274Y0223288D01*
X0120274Y0224087D02*
X0142982Y0224087D01*
X0142704Y0224885D02*
X0120274Y0224885D01*
X0120136Y0225684D02*
X0142704Y0225684D01*
X0142862Y0226482D02*
X0119805Y0226482D01*
X0119474Y0227281D02*
X0143193Y0227281D01*
X0179190Y0227604D02*
X0179446Y0227348D01*
X0180274Y0225350D01*
X0180274Y0215509D01*
X0179446Y0213510D01*
X0178035Y0212099D01*
X0178035Y0193543D01*
X0177548Y0192366D01*
X0176648Y0191466D01*
X0168035Y0182854D01*
X0168035Y0182229D01*
X0170581Y0182229D01*
X0183081Y0169729D01*
X0184135Y0168675D01*
X0184135Y0156339D01*
X0190959Y0149515D01*
X0191385Y0148486D01*
X0191385Y0128661D01*
X0191452Y0128594D01*
X0191967Y0127352D01*
X0191967Y0126921D01*
X0212173Y0147128D01*
X0211857Y0147444D01*
X0211857Y0155659D01*
X0212795Y0156596D01*
X0213581Y0156596D01*
X0212970Y0157207D01*
X0212970Y0163651D01*
X0213089Y0163770D01*
X0207608Y0163770D01*
X0206670Y0164707D01*
X0206670Y0171151D01*
X0207199Y0171679D01*
X0206670Y0172207D01*
X0206670Y0178651D01*
X0207608Y0179588D01*
X0208236Y0179588D01*
X0208236Y0183917D01*
X0193924Y0198229D01*
X0192635Y0199518D01*
X0192635Y0211615D01*
X0191755Y0211980D01*
X0190225Y0213510D01*
X0189397Y0215509D01*
X0189397Y0225350D01*
X0190225Y0227348D01*
X0190481Y0227604D01*
X0179190Y0227604D01*
X0179474Y0227281D02*
X0190197Y0227281D01*
X0189866Y0226482D02*
X0179805Y0226482D01*
X0180136Y0225684D02*
X0189535Y0225684D01*
X0189397Y0224885D02*
X0180274Y0224885D01*
X0180274Y0224087D02*
X0189397Y0224087D01*
X0189397Y0223288D02*
X0180274Y0223288D01*
X0180274Y0222490D02*
X0189397Y0222490D01*
X0189397Y0221691D02*
X0180274Y0221691D01*
X0180274Y0220893D02*
X0189397Y0220893D01*
X0189397Y0220094D02*
X0180274Y0220094D01*
X0180274Y0219296D02*
X0189397Y0219296D01*
X0189397Y0218497D02*
X0180274Y0218497D01*
X0180274Y0217699D02*
X0189397Y0217699D01*
X0189397Y0216900D02*
X0180274Y0216900D01*
X0180274Y0216102D02*
X0189397Y0216102D01*
X0189482Y0215303D02*
X0180189Y0215303D01*
X0179858Y0214505D02*
X0189813Y0214505D01*
X0190144Y0213706D02*
X0179527Y0213706D01*
X0178844Y0212908D02*
X0190827Y0212908D01*
X0191626Y0212109D02*
X0178045Y0212109D01*
X0178035Y0211311D02*
X0192635Y0211311D01*
X0192635Y0210512D02*
X0178035Y0210512D01*
X0178035Y0209714D02*
X0192635Y0209714D01*
X0192635Y0208915D02*
X0178035Y0208915D01*
X0178035Y0208117D02*
X0192635Y0208117D01*
X0192635Y0207318D02*
X0178035Y0207318D01*
X0178035Y0206519D02*
X0192635Y0206519D01*
X0192635Y0205721D02*
X0178035Y0205721D01*
X0178035Y0204922D02*
X0192635Y0204922D01*
X0192635Y0204124D02*
X0178035Y0204124D01*
X0178035Y0203325D02*
X0192635Y0203325D01*
X0192635Y0202527D02*
X0178035Y0202527D01*
X0178035Y0201728D02*
X0192635Y0201728D01*
X0192635Y0200930D02*
X0178035Y0200930D01*
X0178035Y0200131D02*
X0192635Y0200131D01*
X0192820Y0199333D02*
X0178035Y0199333D01*
X0178035Y0198534D02*
X0193619Y0198534D01*
X0194417Y0197736D02*
X0178035Y0197736D01*
X0178035Y0196937D02*
X0195216Y0196937D01*
X0196014Y0196139D02*
X0178035Y0196139D01*
X0178035Y0195340D02*
X0196813Y0195340D01*
X0197611Y0194542D02*
X0178035Y0194542D01*
X0178035Y0193743D02*
X0198410Y0193743D01*
X0199208Y0192945D02*
X0177788Y0192945D01*
X0177328Y0192146D02*
X0200007Y0192146D01*
X0200805Y0191348D02*
X0176530Y0191348D01*
X0175731Y0190549D02*
X0201604Y0190549D01*
X0202403Y0189751D02*
X0174933Y0189751D01*
X0174134Y0188952D02*
X0203201Y0188952D01*
X0204000Y0188154D02*
X0173335Y0188154D01*
X0172537Y0187355D02*
X0204798Y0187355D01*
X0205597Y0186557D02*
X0171738Y0186557D01*
X0170940Y0185758D02*
X0206395Y0185758D01*
X0207194Y0184960D02*
X0170141Y0184960D01*
X0169343Y0184161D02*
X0207992Y0184161D01*
X0208236Y0183363D02*
X0168544Y0183363D01*
X0168035Y0182564D02*
X0208236Y0182564D01*
X0208236Y0181766D02*
X0171044Y0181766D01*
X0171843Y0180967D02*
X0208236Y0180967D01*
X0208236Y0180169D02*
X0172642Y0180169D01*
X0173440Y0179370D02*
X0207390Y0179370D01*
X0206670Y0178572D02*
X0174239Y0178572D01*
X0175037Y0177773D02*
X0206670Y0177773D01*
X0206670Y0176975D02*
X0175836Y0176975D01*
X0176634Y0176176D02*
X0206670Y0176176D01*
X0206670Y0175378D02*
X0177433Y0175378D01*
X0178231Y0174579D02*
X0206670Y0174579D01*
X0206670Y0173781D02*
X0179030Y0173781D01*
X0179828Y0172982D02*
X0206670Y0172982D01*
X0206694Y0172184D02*
X0180627Y0172184D01*
X0181425Y0171385D02*
X0206905Y0171385D01*
X0206670Y0170586D02*
X0182224Y0170586D01*
X0183022Y0169788D02*
X0206670Y0169788D01*
X0206670Y0168989D02*
X0183821Y0168989D01*
X0184135Y0168191D02*
X0206670Y0168191D01*
X0206670Y0167392D02*
X0184135Y0167392D01*
X0184135Y0166594D02*
X0206670Y0166594D01*
X0206670Y0165795D02*
X0184135Y0165795D01*
X0184135Y0164997D02*
X0206670Y0164997D01*
X0207179Y0164198D02*
X0184135Y0164198D01*
X0184135Y0163400D02*
X0212970Y0163400D01*
X0212970Y0162601D02*
X0184135Y0162601D01*
X0184135Y0161803D02*
X0212970Y0161803D01*
X0212970Y0161004D02*
X0184135Y0161004D01*
X0184135Y0160206D02*
X0212970Y0160206D01*
X0212970Y0159407D02*
X0184135Y0159407D01*
X0184135Y0158609D02*
X0212970Y0158609D01*
X0212970Y0157810D02*
X0184135Y0157810D01*
X0184135Y0157012D02*
X0213165Y0157012D01*
X0212412Y0156213D02*
X0184261Y0156213D01*
X0185060Y0155415D02*
X0211857Y0155415D01*
X0211857Y0154616D02*
X0185858Y0154616D01*
X0186657Y0153818D02*
X0211857Y0153818D01*
X0211857Y0153019D02*
X0187455Y0153019D01*
X0188254Y0152221D02*
X0211857Y0152221D01*
X0211857Y0151422D02*
X0189052Y0151422D01*
X0189851Y0150624D02*
X0211857Y0150624D01*
X0211857Y0149825D02*
X0190649Y0149825D01*
X0191162Y0149027D02*
X0211857Y0149027D01*
X0211857Y0148228D02*
X0191385Y0148228D01*
X0191385Y0147430D02*
X0211871Y0147430D01*
X0211676Y0146631D02*
X0191385Y0146631D01*
X0191385Y0145833D02*
X0210878Y0145833D01*
X0210079Y0145034D02*
X0191385Y0145034D01*
X0191385Y0144236D02*
X0209281Y0144236D01*
X0208482Y0143437D02*
X0191385Y0143437D01*
X0191385Y0142639D02*
X0207684Y0142639D01*
X0206885Y0141840D02*
X0191385Y0141840D01*
X0191385Y0141042D02*
X0206087Y0141042D01*
X0205288Y0140243D02*
X0191385Y0140243D01*
X0191385Y0139445D02*
X0204490Y0139445D01*
X0203691Y0138646D02*
X0191385Y0138646D01*
X0191385Y0137848D02*
X0202893Y0137848D01*
X0202094Y0137049D02*
X0191385Y0137049D01*
X0191385Y0136250D02*
X0201296Y0136250D01*
X0200497Y0135452D02*
X0191385Y0135452D01*
X0191385Y0134653D02*
X0199698Y0134653D01*
X0198900Y0133855D02*
X0191385Y0133855D01*
X0191385Y0133056D02*
X0198101Y0133056D01*
X0197303Y0132258D02*
X0191385Y0132258D01*
X0191385Y0131459D02*
X0196504Y0131459D01*
X0195706Y0130661D02*
X0191385Y0130661D01*
X0191385Y0129862D02*
X0194907Y0129862D01*
X0194109Y0129064D02*
X0191385Y0129064D01*
X0191588Y0128265D02*
X0193310Y0128265D01*
X0192512Y0127467D02*
X0191919Y0127467D01*
X0185785Y0128661D02*
X0185785Y0146769D01*
X0180378Y0152176D01*
X0174201Y0145999D01*
X0174201Y0140957D01*
X0173673Y0140429D01*
X0174201Y0139901D01*
X0174201Y0133457D01*
X0173673Y0132929D01*
X0174201Y0132401D01*
X0174201Y0125957D01*
X0173264Y0125020D01*
X0167608Y0125020D01*
X0166710Y0125917D01*
X0165813Y0125020D01*
X0160157Y0125020D01*
X0159835Y0125342D01*
X0159514Y0125020D01*
X0153858Y0125020D01*
X0152960Y0125917D01*
X0152084Y0125041D01*
X0153247Y0123879D01*
X0186604Y0123879D01*
X0185719Y0124764D01*
X0185204Y0126007D01*
X0185204Y0127352D01*
X0185719Y0128594D01*
X0185785Y0128661D01*
X0185785Y0129064D02*
X0174201Y0129064D01*
X0174201Y0129862D02*
X0185785Y0129862D01*
X0185785Y0130661D02*
X0174201Y0130661D01*
X0174201Y0131459D02*
X0185785Y0131459D01*
X0185785Y0132258D02*
X0174201Y0132258D01*
X0173800Y0133056D02*
X0185785Y0133056D01*
X0185785Y0133855D02*
X0174201Y0133855D01*
X0174201Y0134653D02*
X0185785Y0134653D01*
X0185785Y0135452D02*
X0174201Y0135452D01*
X0174201Y0136250D02*
X0185785Y0136250D01*
X0185785Y0137049D02*
X0174201Y0137049D01*
X0174201Y0137848D02*
X0185785Y0137848D01*
X0185785Y0138646D02*
X0174201Y0138646D01*
X0174201Y0139445D02*
X0185785Y0139445D01*
X0185785Y0140243D02*
X0173859Y0140243D01*
X0174201Y0141042D02*
X0185785Y0141042D01*
X0185785Y0141840D02*
X0174201Y0141840D01*
X0174201Y0142639D02*
X0185785Y0142639D01*
X0185785Y0143437D02*
X0174201Y0143437D01*
X0174201Y0144236D02*
X0185785Y0144236D01*
X0185785Y0145034D02*
X0174201Y0145034D01*
X0174201Y0145833D02*
X0185785Y0145833D01*
X0185785Y0146631D02*
X0174833Y0146631D01*
X0175632Y0147430D02*
X0185125Y0147430D01*
X0184327Y0148228D02*
X0176430Y0148228D01*
X0177229Y0149027D02*
X0183528Y0149027D01*
X0182730Y0149825D02*
X0178027Y0149825D01*
X0178826Y0150624D02*
X0181931Y0150624D01*
X0181133Y0151422D02*
X0179624Y0151422D01*
X0153576Y0133056D02*
X0152345Y0133056D01*
X0152913Y0125870D02*
X0153008Y0125870D01*
X0153806Y0125071D02*
X0152114Y0125071D01*
X0152853Y0124273D02*
X0186210Y0124273D01*
X0185592Y0125071D02*
X0173315Y0125071D01*
X0174114Y0125870D02*
X0185261Y0125870D01*
X0185204Y0126668D02*
X0174201Y0126668D01*
X0174201Y0127467D02*
X0185252Y0127467D01*
X0185583Y0128265D02*
X0174201Y0128265D01*
X0167556Y0125071D02*
X0165864Y0125071D01*
X0166663Y0125870D02*
X0166758Y0125870D01*
X0160106Y0125071D02*
X0159565Y0125071D01*
X0132541Y0134653D02*
X0126222Y0134653D01*
X0125424Y0135452D02*
X0132350Y0135452D01*
X0132350Y0136250D02*
X0124625Y0136250D01*
X0127186Y0127467D02*
X0120669Y0127467D01*
X0120717Y0126668D02*
X0127985Y0126668D01*
X0128783Y0125870D02*
X0120660Y0125870D01*
X0101177Y0129862D02*
X0091862Y0129862D01*
X0091385Y0130661D02*
X0100774Y0130661D01*
X0100598Y0131459D02*
X0091385Y0131459D01*
X0091385Y0132258D02*
X0099895Y0132258D01*
X0099097Y0133056D02*
X0091385Y0133056D01*
X0091385Y0133855D02*
X0098298Y0133855D01*
X0097500Y0134653D02*
X0091385Y0134653D01*
X0091385Y0135452D02*
X0096701Y0135452D01*
X0095127Y0136250D02*
X0091385Y0136250D01*
X0091385Y0137049D02*
X0094426Y0137049D01*
X0094426Y0137848D02*
X0091385Y0137848D01*
X0091319Y0138646D02*
X0093507Y0138646D01*
X0092709Y0139445D02*
X0090988Y0139445D01*
X0090231Y0140243D02*
X0091910Y0140243D01*
X0091385Y0141042D02*
X0089433Y0141042D01*
X0088634Y0141840D02*
X0091385Y0141840D01*
X0091385Y0142639D02*
X0088098Y0142639D01*
X0087767Y0143437D02*
X0091385Y0143437D01*
X0091385Y0144236D02*
X0087061Y0144236D01*
X0085571Y0145034D02*
X0091385Y0145034D01*
X0060244Y0074810D02*
X0065785Y0069269D01*
X0065785Y0054872D01*
X0066212Y0053843D01*
X0072462Y0047593D01*
X0073249Y0046805D01*
X0074278Y0046379D01*
X0113888Y0046379D01*
X0117838Y0042429D01*
X0034146Y0042429D01*
X0032612Y0042550D01*
X0029692Y0043498D01*
X0027209Y0045303D01*
X0025405Y0047786D01*
X0024456Y0050705D01*
X0024335Y0052240D01*
X0024335Y0072818D01*
X0026080Y0071073D01*
X0026080Y0070774D01*
X0026773Y0069100D01*
X0028054Y0067819D01*
X0029727Y0067126D01*
X0037444Y0067126D01*
X0039117Y0067819D01*
X0040398Y0069100D01*
X0040555Y0069479D01*
X0041997Y0069479D01*
X0043285Y0070768D01*
X0043847Y0071330D01*
X0051926Y0071330D01*
X0051926Y0070701D01*
X0052864Y0069764D01*
X0059307Y0069764D01*
X0060244Y0070701D01*
X0060244Y0074810D01*
X0060244Y0074765D02*
X0060290Y0074765D01*
X0060244Y0073967D02*
X0061088Y0073967D01*
X0061887Y0073168D02*
X0060244Y0073168D01*
X0060244Y0072370D02*
X0062685Y0072370D01*
X0063484Y0071571D02*
X0060244Y0071571D01*
X0060244Y0070773D02*
X0064282Y0070773D01*
X0065081Y0069974D02*
X0059517Y0069974D01*
X0065785Y0069176D02*
X0040429Y0069176D01*
X0039675Y0068377D02*
X0065785Y0068377D01*
X0065785Y0067579D02*
X0038535Y0067579D01*
X0042492Y0069974D02*
X0052654Y0069974D01*
X0051926Y0070773D02*
X0043290Y0070773D01*
X0028635Y0067579D02*
X0024335Y0067579D01*
X0024335Y0068377D02*
X0027496Y0068377D01*
X0026742Y0069176D02*
X0024335Y0069176D01*
X0024335Y0069974D02*
X0026411Y0069974D01*
X0026080Y0070773D02*
X0024335Y0070773D01*
X0024335Y0071571D02*
X0025582Y0071571D01*
X0024784Y0072370D02*
X0024335Y0072370D01*
X0024335Y0066780D02*
X0065785Y0066780D01*
X0065785Y0065981D02*
X0024335Y0065981D01*
X0024335Y0065183D02*
X0065785Y0065183D01*
X0065785Y0064384D02*
X0024335Y0064384D01*
X0024335Y0063586D02*
X0065785Y0063586D01*
X0065785Y0062787D02*
X0024335Y0062787D01*
X0024335Y0061989D02*
X0065785Y0061989D01*
X0065785Y0061190D02*
X0024335Y0061190D01*
X0024335Y0060392D02*
X0065785Y0060392D01*
X0065785Y0059593D02*
X0024335Y0059593D01*
X0024335Y0058795D02*
X0065785Y0058795D01*
X0065785Y0057996D02*
X0024335Y0057996D01*
X0024335Y0057198D02*
X0065785Y0057198D01*
X0065785Y0056399D02*
X0024335Y0056399D01*
X0024335Y0055601D02*
X0065785Y0055601D01*
X0065814Y0054802D02*
X0024335Y0054802D01*
X0024335Y0054004D02*
X0066145Y0054004D01*
X0066849Y0053205D02*
X0024335Y0053205D01*
X0024335Y0052407D02*
X0067648Y0052407D01*
X0068446Y0051608D02*
X0024385Y0051608D01*
X0024448Y0050810D02*
X0069245Y0050810D01*
X0070043Y0050011D02*
X0024682Y0050011D01*
X0024941Y0049213D02*
X0070842Y0049213D01*
X0071641Y0048414D02*
X0025201Y0048414D01*
X0025528Y0047616D02*
X0072439Y0047616D01*
X0072462Y0047593D02*
X0072462Y0047593D01*
X0073238Y0046817D02*
X0026109Y0046817D01*
X0026689Y0046019D02*
X0114248Y0046019D01*
X0115047Y0045220D02*
X0027323Y0045220D01*
X0028422Y0044422D02*
X0115845Y0044422D01*
X0116644Y0043623D02*
X0029521Y0043623D01*
X0031766Y0042825D02*
X0117442Y0042825D01*
X0112035Y0051979D02*
X0075995Y0051979D01*
X0071385Y0056589D01*
X0071385Y0060768D01*
X0071424Y0060729D01*
X0073924Y0058229D01*
X0076328Y0058229D01*
X0077106Y0057451D01*
X0085321Y0057451D01*
X0086099Y0058229D01*
X0086997Y0058229D01*
X0092635Y0063868D01*
X0092635Y0063268D01*
X0093924Y0061979D01*
X0097674Y0058229D01*
X0098572Y0058229D01*
X0098872Y0057929D01*
X0098413Y0057470D01*
X0098413Y0053388D01*
X0099350Y0052451D01*
X0107565Y0052451D01*
X0107743Y0052629D01*
X0107854Y0052629D01*
X0107920Y0052563D01*
X0109163Y0052048D01*
X0110508Y0052048D01*
X0111751Y0052563D01*
X0112035Y0052848D01*
X0112035Y0051979D01*
X0112035Y0052407D02*
X0111374Y0052407D01*
X0108297Y0052407D02*
X0075568Y0052407D01*
X0074769Y0053205D02*
X0098596Y0053205D01*
X0098413Y0054004D02*
X0073971Y0054004D01*
X0073172Y0054802D02*
X0098413Y0054802D01*
X0098413Y0055601D02*
X0072373Y0055601D01*
X0071575Y0056399D02*
X0098413Y0056399D01*
X0098413Y0057198D02*
X0071385Y0057198D01*
X0071385Y0057996D02*
X0076561Y0057996D01*
X0073358Y0058795D02*
X0071385Y0058795D01*
X0071385Y0059593D02*
X0072560Y0059593D01*
X0071761Y0060392D02*
X0071385Y0060392D01*
X0085866Y0057996D02*
X0098805Y0057996D01*
X0097108Y0058795D02*
X0087562Y0058795D01*
X0088361Y0059593D02*
X0096310Y0059593D01*
X0095511Y0060392D02*
X0089159Y0060392D01*
X0089958Y0061190D02*
X0094713Y0061190D01*
X0093914Y0061989D02*
X0090756Y0061989D01*
X0091555Y0062787D02*
X0093116Y0062787D01*
X0092635Y0063586D02*
X0092354Y0063586D01*
X0034146Y0040429D02*
X0033861Y0040432D01*
X0033575Y0040443D01*
X0033290Y0040460D01*
X0033006Y0040484D01*
X0032722Y0040515D01*
X0032439Y0040553D01*
X0032158Y0040598D01*
X0031877Y0040649D01*
X0031597Y0040707D01*
X0031319Y0040772D01*
X0031043Y0040844D01*
X0030769Y0040922D01*
X0030496Y0041007D01*
X0030226Y0041099D01*
X0029958Y0041197D01*
X0029692Y0041301D01*
X0029429Y0041412D01*
X0029169Y0041529D01*
X0028911Y0041652D01*
X0028657Y0041782D01*
X0028406Y0041918D01*
X0028158Y0042059D01*
X0027914Y0042207D01*
X0027673Y0042360D01*
X0027437Y0042520D01*
X0027204Y0042685D01*
X0026975Y0042855D01*
X0026750Y0043031D01*
X0026530Y0043213D01*
X0026314Y0043399D01*
X0026103Y0043591D01*
X0025896Y0043788D01*
X0025694Y0043990D01*
X0025497Y0044197D01*
X0025305Y0044408D01*
X0025119Y0044624D01*
X0024937Y0044844D01*
X0024761Y0045069D01*
X0024591Y0045298D01*
X0024426Y0045531D01*
X0024266Y0045767D01*
X0024113Y0046008D01*
X0023965Y0046252D01*
X0023824Y0046500D01*
X0023688Y0046751D01*
X0023558Y0047005D01*
X0023435Y0047263D01*
X0023318Y0047523D01*
X0023207Y0047786D01*
X0023103Y0048052D01*
X0023005Y0048320D01*
X0022913Y0048590D01*
X0022828Y0048863D01*
X0022750Y0049137D01*
X0022678Y0049413D01*
X0022613Y0049691D01*
X0022555Y0049971D01*
X0022504Y0050252D01*
X0022459Y0050533D01*
X0022421Y0050816D01*
X0022390Y0051100D01*
X0022366Y0051384D01*
X0022349Y0051669D01*
X0022338Y0051955D01*
X0022335Y0052240D01*
X0022335Y0225469D01*
X0022338Y0225754D01*
X0022349Y0226040D01*
X0022366Y0226325D01*
X0022390Y0226609D01*
X0022421Y0226893D01*
X0022459Y0227176D01*
X0022504Y0227457D01*
X0022555Y0227738D01*
X0022613Y0228018D01*
X0022678Y0228296D01*
X0022750Y0228572D01*
X0022828Y0228846D01*
X0022913Y0229119D01*
X0023005Y0229389D01*
X0023103Y0229657D01*
X0023207Y0229923D01*
X0023318Y0230186D01*
X0023435Y0230446D01*
X0023558Y0230704D01*
X0023688Y0230958D01*
X0023824Y0231209D01*
X0023965Y0231457D01*
X0024113Y0231701D01*
X0024266Y0231942D01*
X0024426Y0232178D01*
X0024591Y0232411D01*
X0024761Y0232640D01*
X0024937Y0232865D01*
X0025119Y0233085D01*
X0025305Y0233301D01*
X0025497Y0233512D01*
X0025694Y0233719D01*
X0025896Y0233921D01*
X0026103Y0234118D01*
X0026314Y0234310D01*
X0026530Y0234496D01*
X0026750Y0234678D01*
X0026975Y0234854D01*
X0027204Y0235024D01*
X0027437Y0235189D01*
X0027673Y0235349D01*
X0027914Y0235502D01*
X0028158Y0235650D01*
X0028406Y0235791D01*
X0028657Y0235927D01*
X0028911Y0236057D01*
X0029169Y0236180D01*
X0029429Y0236297D01*
X0029692Y0236408D01*
X0029958Y0236512D01*
X0030226Y0236610D01*
X0030496Y0236702D01*
X0030769Y0236787D01*
X0031043Y0236865D01*
X0031319Y0236937D01*
X0031597Y0237002D01*
X0031877Y0237060D01*
X0032158Y0237111D01*
X0032439Y0237156D01*
X0032722Y0237194D01*
X0033006Y0237225D01*
X0033290Y0237249D01*
X0033575Y0237266D01*
X0033861Y0237277D01*
X0034146Y0237280D01*
X0195210Y0113094D02*
X0250639Y0113094D01*
X0251437Y0113892D02*
X0196008Y0113892D01*
X0196807Y0114691D02*
X0252236Y0114691D01*
X0253034Y0115489D02*
X0197605Y0115489D01*
X0198404Y0116288D02*
X0253833Y0116288D01*
X0254631Y0117086D02*
X0199202Y0117086D01*
X0200001Y0117885D02*
X0255135Y0117885D01*
X0255135Y0118683D02*
X0200799Y0118683D01*
X0201598Y0119482D02*
X0255135Y0119482D01*
X0255135Y0120280D02*
X0238257Y0120280D01*
X0239445Y0121079D02*
X0255135Y0121079D01*
X0255135Y0121877D02*
X0240243Y0121877D01*
X0241042Y0122676D02*
X0255135Y0122676D01*
X0255135Y0123474D02*
X0241840Y0123474D01*
X0242387Y0124273D02*
X0255135Y0124273D01*
X0255135Y0125071D02*
X0242685Y0125071D01*
X0242813Y0125870D02*
X0255135Y0125870D01*
X0255135Y0126668D02*
X0251211Y0126668D01*
X0253333Y0127467D02*
X0255135Y0127467D01*
X0255135Y0128265D02*
X0254131Y0128265D01*
X0254930Y0129064D02*
X0255135Y0129064D01*
X0250785Y0133317D02*
X0250557Y0133545D01*
X0244114Y0133545D01*
X0243176Y0132608D01*
X0243176Y0132580D01*
X0242813Y0132580D01*
X0242813Y0133415D01*
X0241876Y0134352D01*
X0237795Y0134352D01*
X0237335Y0133893D01*
X0236876Y0134352D01*
X0232795Y0134352D01*
X0232335Y0133893D01*
X0231876Y0134352D01*
X0227795Y0134352D01*
X0226857Y0133415D01*
X0226857Y0125729D01*
X0222813Y0125729D01*
X0222813Y0133415D01*
X0221876Y0134352D01*
X0217795Y0134352D01*
X0216857Y0133415D01*
X0216857Y0125729D01*
X0212813Y0125729D01*
X0212813Y0133415D01*
X0211876Y0134352D01*
X0209370Y0134352D01*
X0218247Y0143229D01*
X0224497Y0143229D01*
X0225747Y0144479D01*
X0227035Y0145768D01*
X0227035Y0146666D01*
X0227335Y0146966D01*
X0227795Y0146506D01*
X0231876Y0146506D01*
X0232335Y0146966D01*
X0232795Y0146506D01*
X0236876Y0146506D01*
X0237335Y0146966D01*
X0237795Y0146506D01*
X0241876Y0146506D01*
X0242813Y0147444D01*
X0242813Y0155659D01*
X0241876Y0156596D01*
X0237795Y0156596D01*
X0237335Y0156137D01*
X0236876Y0156596D01*
X0236139Y0156596D01*
X0236750Y0157207D01*
X0236750Y0163651D01*
X0236222Y0164179D01*
X0236750Y0164707D01*
X0236750Y0171151D01*
X0236222Y0171679D01*
X0236612Y0172069D01*
X0236663Y0172048D01*
X0236757Y0172048D01*
X0250785Y0158019D01*
X0250785Y0133317D01*
X0250785Y0133855D02*
X0242373Y0133855D01*
X0242813Y0133056D02*
X0243625Y0133056D01*
X0250785Y0134653D02*
X0209671Y0134653D01*
X0210470Y0135452D02*
X0250785Y0135452D01*
X0250785Y0136250D02*
X0211268Y0136250D01*
X0212067Y0137049D02*
X0250785Y0137049D01*
X0250785Y0137848D02*
X0212865Y0137848D01*
X0213664Y0138646D02*
X0250785Y0138646D01*
X0250785Y0139445D02*
X0214462Y0139445D01*
X0215261Y0140243D02*
X0250785Y0140243D01*
X0250785Y0141042D02*
X0216059Y0141042D01*
X0216858Y0141840D02*
X0250785Y0141840D01*
X0250785Y0142639D02*
X0217656Y0142639D01*
X0224705Y0143437D02*
X0250785Y0143437D01*
X0250785Y0144236D02*
X0225503Y0144236D01*
X0226302Y0145034D02*
X0250785Y0145034D01*
X0250785Y0145833D02*
X0227035Y0145833D01*
X0227035Y0146631D02*
X0227670Y0146631D01*
X0232001Y0146631D02*
X0232670Y0146631D01*
X0237001Y0146631D02*
X0237670Y0146631D01*
X0242001Y0146631D02*
X0250785Y0146631D01*
X0250785Y0147430D02*
X0242799Y0147430D01*
X0242813Y0148228D02*
X0250785Y0148228D01*
X0250785Y0149027D02*
X0242813Y0149027D01*
X0242813Y0149825D02*
X0250785Y0149825D01*
X0250785Y0150624D02*
X0242813Y0150624D01*
X0242813Y0151422D02*
X0250785Y0151422D01*
X0250785Y0152221D02*
X0242813Y0152221D01*
X0242813Y0153019D02*
X0250785Y0153019D01*
X0250785Y0153818D02*
X0242813Y0153818D01*
X0242813Y0154616D02*
X0250785Y0154616D01*
X0250785Y0155415D02*
X0242813Y0155415D01*
X0242259Y0156213D02*
X0250785Y0156213D01*
X0250785Y0157012D02*
X0236555Y0157012D01*
X0236750Y0157810D02*
X0250785Y0157810D01*
X0250196Y0158609D02*
X0236750Y0158609D01*
X0236750Y0159407D02*
X0249397Y0159407D01*
X0248599Y0160206D02*
X0236750Y0160206D01*
X0236750Y0161004D02*
X0247800Y0161004D01*
X0247002Y0161803D02*
X0236750Y0161803D01*
X0236750Y0162601D02*
X0246203Y0162601D01*
X0245405Y0163400D02*
X0236750Y0163400D01*
X0236241Y0164198D02*
X0244606Y0164198D01*
X0243808Y0164997D02*
X0236750Y0164997D01*
X0236750Y0165795D02*
X0243009Y0165795D01*
X0242211Y0166594D02*
X0236750Y0166594D01*
X0236750Y0167392D02*
X0241412Y0167392D01*
X0240614Y0168191D02*
X0236750Y0168191D01*
X0236750Y0168989D02*
X0239815Y0168989D01*
X0239017Y0169788D02*
X0236750Y0169788D01*
X0236750Y0170586D02*
X0238218Y0170586D01*
X0237420Y0171385D02*
X0236516Y0171385D01*
X0229339Y0163770D02*
X0229220Y0163651D01*
X0229220Y0157207D01*
X0229486Y0156941D01*
X0229141Y0156596D01*
X0227795Y0156596D01*
X0227335Y0156137D01*
X0226876Y0156596D01*
X0222795Y0156596D01*
X0222335Y0156137D01*
X0221876Y0156596D01*
X0221780Y0156596D01*
X0220500Y0157875D01*
X0220500Y0163651D01*
X0219972Y0164179D01*
X0220500Y0164707D01*
X0220500Y0171151D01*
X0219972Y0171679D01*
X0220362Y0172069D01*
X0220413Y0172048D01*
X0221758Y0172048D01*
X0222920Y0172530D01*
X0222920Y0172207D01*
X0223449Y0171679D01*
X0222920Y0171151D01*
X0222920Y0164707D01*
X0223858Y0163770D01*
X0229339Y0163770D01*
X0229220Y0163400D02*
X0220500Y0163400D01*
X0220500Y0162601D02*
X0229220Y0162601D01*
X0229220Y0161803D02*
X0220500Y0161803D01*
X0220500Y0161004D02*
X0229220Y0161004D01*
X0229220Y0160206D02*
X0220500Y0160206D01*
X0220500Y0159407D02*
X0229220Y0159407D01*
X0229220Y0158609D02*
X0220500Y0158609D01*
X0220566Y0157810D02*
X0229220Y0157810D01*
X0229415Y0157012D02*
X0221364Y0157012D01*
X0222259Y0156213D02*
X0222412Y0156213D01*
X0227259Y0156213D02*
X0227412Y0156213D01*
X0223429Y0164198D02*
X0219991Y0164198D01*
X0220500Y0164997D02*
X0222920Y0164997D01*
X0222920Y0165795D02*
X0220500Y0165795D01*
X0220500Y0166594D02*
X0222920Y0166594D01*
X0222920Y0167392D02*
X0220500Y0167392D01*
X0220500Y0168191D02*
X0222920Y0168191D01*
X0222920Y0168989D02*
X0220500Y0168989D01*
X0220500Y0169788D02*
X0222920Y0169788D01*
X0222920Y0170586D02*
X0220500Y0170586D01*
X0220266Y0171385D02*
X0223155Y0171385D01*
X0222944Y0172184D02*
X0222085Y0172184D01*
X0237259Y0156213D02*
X0237412Y0156213D01*
X0227298Y0133855D02*
X0222373Y0133855D01*
X0222813Y0133056D02*
X0226857Y0133056D01*
X0226857Y0132258D02*
X0222813Y0132258D01*
X0222813Y0131459D02*
X0226857Y0131459D01*
X0226857Y0130661D02*
X0222813Y0130661D01*
X0222813Y0129862D02*
X0226857Y0129862D01*
X0226857Y0129064D02*
X0222813Y0129064D01*
X0222813Y0128265D02*
X0226857Y0128265D01*
X0226857Y0127467D02*
X0222813Y0127467D01*
X0222813Y0126668D02*
X0226857Y0126668D01*
X0226857Y0125870D02*
X0222813Y0125870D01*
X0216857Y0125870D02*
X0212813Y0125870D01*
X0212813Y0126668D02*
X0216857Y0126668D01*
X0216857Y0127467D02*
X0212813Y0127467D01*
X0212813Y0128265D02*
X0216857Y0128265D01*
X0216857Y0129064D02*
X0212813Y0129064D01*
X0212813Y0129862D02*
X0216857Y0129862D01*
X0216857Y0130661D02*
X0212813Y0130661D01*
X0212813Y0131459D02*
X0216857Y0131459D01*
X0216857Y0132258D02*
X0212813Y0132258D01*
X0212813Y0133056D02*
X0216857Y0133056D01*
X0217298Y0133855D02*
X0212373Y0133855D01*
X0191472Y0112295D02*
X0249840Y0112295D01*
X0249042Y0111497D02*
X0191803Y0111497D01*
X0191967Y0110698D02*
X0248243Y0110698D01*
X0247445Y0109900D02*
X0191967Y0109900D01*
X0191695Y0109101D02*
X0246646Y0109101D01*
X0245848Y0108303D02*
X0191240Y0108303D01*
X0190359Y0107504D02*
X0245049Y0107504D01*
X0244251Y0106706D02*
X0188822Y0106706D01*
X0188023Y0105907D02*
X0243452Y0105907D01*
X0242654Y0105109D02*
X0187635Y0105109D01*
X0187635Y0104310D02*
X0241855Y0104310D01*
X0241057Y0103512D02*
X0187635Y0103512D01*
X0187635Y0102713D02*
X0240258Y0102713D01*
X0239460Y0101915D02*
X0187635Y0101915D01*
X0187635Y0101116D02*
X0238661Y0101116D01*
X0237862Y0100317D02*
X0187635Y0100317D01*
X0187635Y0099519D02*
X0237064Y0099519D01*
X0236265Y0098720D02*
X0187635Y0098720D01*
X0187635Y0097922D02*
X0235467Y0097922D01*
X0234668Y0097123D02*
X0187635Y0097123D01*
X0187635Y0096325D02*
X0233870Y0096325D01*
X0233071Y0095526D02*
X0187635Y0095526D01*
X0187635Y0094728D02*
X0232273Y0094728D01*
X0231474Y0093929D02*
X0187635Y0093929D01*
X0199380Y0093131D02*
X0230676Y0093131D01*
X0229877Y0092332D02*
X0200642Y0092332D01*
X0201440Y0091534D02*
X0229079Y0091534D01*
X0228280Y0090735D02*
X0202239Y0090735D01*
X0203037Y0089937D02*
X0227482Y0089937D01*
X0226683Y0089138D02*
X0203615Y0089138D01*
X0203885Y0088340D02*
X0211783Y0088340D01*
X0210984Y0087541D02*
X0203885Y0087541D01*
X0203885Y0086743D02*
X0210913Y0086743D01*
X0210913Y0085944D02*
X0203885Y0085944D01*
X0203885Y0085146D02*
X0210913Y0085146D01*
X0210913Y0084347D02*
X0203885Y0084347D01*
X0203885Y0083549D02*
X0210913Y0083549D01*
X0211193Y0082750D02*
X0203885Y0082750D01*
X0203885Y0081952D02*
X0210913Y0081952D01*
X0210913Y0081153D02*
X0203885Y0081153D01*
X0203885Y0080355D02*
X0210913Y0080355D01*
X0210913Y0079556D02*
X0203885Y0079556D01*
X0203885Y0078758D02*
X0210913Y0078758D01*
X0211342Y0077959D02*
X0203885Y0077959D01*
X0203885Y0077161D02*
X0210913Y0077161D01*
X0210913Y0076362D02*
X0203885Y0076362D01*
X0203885Y0075564D02*
X0210913Y0075564D01*
X0210913Y0074765D02*
X0203885Y0074765D01*
X0203885Y0073967D02*
X0210913Y0073967D01*
X0211133Y0073168D02*
X0203885Y0073168D01*
X0220132Y0088340D02*
X0225885Y0088340D01*
X0266430Y0040429D02*
X0266715Y0040432D01*
X0267001Y0040443D01*
X0267286Y0040460D01*
X0267570Y0040484D01*
X0267854Y0040515D01*
X0268137Y0040553D01*
X0268418Y0040598D01*
X0268699Y0040649D01*
X0268979Y0040707D01*
X0269257Y0040772D01*
X0269533Y0040844D01*
X0269807Y0040922D01*
X0270080Y0041007D01*
X0270350Y0041099D01*
X0270618Y0041197D01*
X0270884Y0041301D01*
X0271147Y0041412D01*
X0271407Y0041529D01*
X0271665Y0041652D01*
X0271919Y0041782D01*
X0272170Y0041918D01*
X0272418Y0042059D01*
X0272662Y0042207D01*
X0272903Y0042360D01*
X0273139Y0042520D01*
X0273372Y0042685D01*
X0273601Y0042855D01*
X0273826Y0043031D01*
X0274046Y0043213D01*
X0274262Y0043399D01*
X0274473Y0043591D01*
X0274680Y0043788D01*
X0274882Y0043990D01*
X0275079Y0044197D01*
X0275271Y0044408D01*
X0275457Y0044624D01*
X0275639Y0044844D01*
X0275815Y0045069D01*
X0275985Y0045298D01*
X0276150Y0045531D01*
X0276310Y0045767D01*
X0276463Y0046008D01*
X0276611Y0046252D01*
X0276752Y0046500D01*
X0276888Y0046751D01*
X0277018Y0047005D01*
X0277141Y0047263D01*
X0277258Y0047523D01*
X0277369Y0047786D01*
X0277473Y0048052D01*
X0277571Y0048320D01*
X0277663Y0048590D01*
X0277748Y0048863D01*
X0277826Y0049137D01*
X0277898Y0049413D01*
X0277963Y0049691D01*
X0278021Y0049971D01*
X0278072Y0050252D01*
X0278117Y0050533D01*
X0278155Y0050816D01*
X0278186Y0051100D01*
X0278210Y0051384D01*
X0278227Y0051669D01*
X0278238Y0051955D01*
X0278241Y0052240D01*
X0278241Y0225469D01*
X0278238Y0225754D01*
X0278227Y0226040D01*
X0278210Y0226325D01*
X0278186Y0226609D01*
X0278155Y0226893D01*
X0278117Y0227176D01*
X0278072Y0227457D01*
X0278021Y0227738D01*
X0277963Y0228018D01*
X0277898Y0228296D01*
X0277826Y0228572D01*
X0277748Y0228846D01*
X0277663Y0229119D01*
X0277571Y0229389D01*
X0277473Y0229657D01*
X0277369Y0229923D01*
X0277258Y0230186D01*
X0277141Y0230446D01*
X0277018Y0230704D01*
X0276888Y0230958D01*
X0276752Y0231209D01*
X0276611Y0231457D01*
X0276463Y0231701D01*
X0276310Y0231942D01*
X0276150Y0232178D01*
X0275985Y0232411D01*
X0275815Y0232640D01*
X0275639Y0232865D01*
X0275457Y0233085D01*
X0275271Y0233301D01*
X0275079Y0233512D01*
X0274882Y0233719D01*
X0274680Y0233921D01*
X0274473Y0234118D01*
X0274262Y0234310D01*
X0274046Y0234496D01*
X0273826Y0234678D01*
X0273601Y0234854D01*
X0273372Y0235024D01*
X0273139Y0235189D01*
X0272903Y0235349D01*
X0272662Y0235502D01*
X0272418Y0235650D01*
X0272170Y0235791D01*
X0271919Y0235927D01*
X0271665Y0236057D01*
X0271407Y0236180D01*
X0271147Y0236297D01*
X0270884Y0236408D01*
X0270618Y0236512D01*
X0270350Y0236610D01*
X0270080Y0236702D01*
X0269807Y0236787D01*
X0269533Y0236865D01*
X0269257Y0236937D01*
X0268979Y0237002D01*
X0268699Y0237060D01*
X0268418Y0237111D01*
X0268137Y0237156D01*
X0267854Y0237194D01*
X0267570Y0237225D01*
X0267286Y0237249D01*
X0267001Y0237266D01*
X0266715Y0237277D01*
X0266430Y0237280D01*
X0243459Y0126668D02*
X0242813Y0126668D01*
D11*
X0247335Y0129780D03*
X0247335Y0136079D03*
X0164835Y0099829D03*
X0157335Y0099829D03*
X0157335Y0093530D03*
X0164835Y0093530D03*
X0164835Y0064829D03*
X0164835Y0058530D03*
X0154835Y0058530D03*
X0154835Y0064829D03*
X0144835Y0064829D03*
X0144835Y0058530D03*
X0134835Y0058530D03*
X0134835Y0064829D03*
X0124835Y0093530D03*
X0124835Y0099829D03*
X0136509Y0137673D03*
X0136509Y0143972D03*
X0106085Y0146079D03*
X0106085Y0139780D03*
X0098585Y0139780D03*
X0098585Y0146079D03*
X0098585Y0158530D03*
X0098585Y0164829D03*
X0098585Y0171030D03*
X0098585Y0177329D03*
X0028585Y0171079D03*
X0028585Y0164780D03*
X0056085Y0079829D03*
X0056085Y0073530D03*
X0174835Y0064829D03*
X0174835Y0058530D03*
D12*
X0193713Y0060429D03*
X0193713Y0055429D03*
X0193713Y0065429D03*
X0193713Y0070429D03*
X0193713Y0075429D03*
X0193713Y0080429D03*
X0193713Y0085429D03*
X0193713Y0090429D03*
X0215957Y0090429D03*
X0215957Y0085429D03*
X0215957Y0080429D03*
X0215957Y0075429D03*
X0215957Y0070429D03*
X0215957Y0065429D03*
X0215957Y0060429D03*
X0215957Y0055429D03*
X0103457Y0055429D03*
X0103457Y0060429D03*
X0103457Y0065429D03*
X0103457Y0070429D03*
X0103457Y0075429D03*
X0103457Y0080429D03*
X0103457Y0085429D03*
X0103457Y0090429D03*
X0081213Y0090429D03*
X0081213Y0085429D03*
X0081213Y0080429D03*
X0081213Y0075429D03*
X0081213Y0070429D03*
X0081213Y0065429D03*
X0081213Y0060429D03*
X0081213Y0055429D03*
D13*
X0209835Y0129307D03*
X0214835Y0129307D03*
X0219835Y0129307D03*
X0224835Y0129307D03*
X0229835Y0129307D03*
X0234835Y0129307D03*
X0239835Y0129307D03*
X0239835Y0151551D03*
X0234835Y0151551D03*
X0229835Y0151551D03*
X0224835Y0151551D03*
X0219835Y0151551D03*
X0214835Y0151551D03*
X0209835Y0151551D03*
D14*
X0210436Y0160429D03*
X0216735Y0160429D03*
X0216735Y0167929D03*
X0210436Y0167929D03*
X0210436Y0175429D03*
X0216735Y0175429D03*
X0226686Y0175429D03*
X0232985Y0175429D03*
X0232985Y0167929D03*
X0226686Y0167929D03*
X0226686Y0160429D03*
X0232985Y0160429D03*
X0176735Y0144179D03*
X0170436Y0144179D03*
X0170436Y0136679D03*
X0176735Y0136679D03*
X0176735Y0129179D03*
X0170436Y0129179D03*
X0162985Y0129179D03*
X0156686Y0129179D03*
X0149235Y0129179D03*
X0142936Y0129179D03*
X0126735Y0142929D03*
X0120436Y0142929D03*
X0120436Y0172929D03*
X0126735Y0172929D03*
D15*
X0036538Y0111679D02*
X0030633Y0111679D01*
X0030633Y0101679D02*
X0036538Y0101679D01*
X0036538Y0091679D02*
X0030633Y0091679D01*
X0030633Y0081679D02*
X0036538Y0081679D01*
X0036538Y0071679D02*
X0030633Y0071679D01*
D16*
X0125288Y0052199D02*
X0125288Y0047399D01*
X0135288Y0047399D02*
X0135288Y0052199D01*
X0145288Y0052199D02*
X0145288Y0047399D01*
X0155288Y0047399D02*
X0155288Y0052199D01*
X0165288Y0052199D02*
X0165288Y0047399D01*
X0175288Y0047399D02*
X0175288Y0052199D01*
X0175288Y0107399D02*
X0175288Y0112199D01*
X0165288Y0112199D02*
X0165288Y0107399D01*
X0155288Y0107399D02*
X0155288Y0112199D01*
X0145288Y0112199D02*
X0145288Y0107399D01*
X0135288Y0107399D02*
X0135288Y0112199D01*
X0125288Y0112199D02*
X0125288Y0107399D01*
D17*
X0134835Y0100616D03*
X0131095Y0092742D03*
X0138576Y0092742D03*
X0143595Y0092742D03*
X0151076Y0092742D03*
X0147335Y0100616D03*
X0171095Y0092742D03*
X0178576Y0092742D03*
X0174835Y0100616D03*
X0128576Y0065616D03*
X0121095Y0065616D03*
X0124835Y0057742D03*
D18*
X0114835Y0216591D02*
X0114835Y0224268D01*
X0094835Y0224268D02*
X0094835Y0216591D01*
X0134835Y0216591D02*
X0134835Y0224268D01*
X0154835Y0224268D02*
X0154835Y0216591D01*
X0174835Y0216591D02*
X0174835Y0224268D01*
X0194835Y0224268D02*
X0194835Y0216591D01*
X0214835Y0216591D02*
X0214835Y0224268D01*
X0234835Y0224268D02*
X0234835Y0216591D01*
D19*
X0074904Y0190429D03*
X0074904Y0185429D03*
X0074904Y0180429D03*
X0074904Y0175429D03*
X0074904Y0170429D03*
X0074904Y0165429D03*
X0074904Y0160429D03*
X0074904Y0155429D03*
X0074904Y0150429D03*
X0074904Y0145429D03*
X0074904Y0140429D03*
X0074904Y0135429D03*
X0074904Y0130429D03*
X0074904Y0125429D03*
X0037267Y0125429D03*
X0037267Y0130429D03*
X0037267Y0135429D03*
X0037267Y0140429D03*
X0037267Y0145429D03*
X0037267Y0150429D03*
X0037267Y0155429D03*
X0037267Y0160429D03*
X0037267Y0165429D03*
X0037267Y0170429D03*
X0037267Y0175429D03*
X0037267Y0180429D03*
X0037267Y0185429D03*
X0037267Y0190429D03*
D20*
X0087335Y0176000D03*
X0087335Y0159858D03*
D21*
X0144924Y0142929D03*
X0144924Y0140429D03*
X0144924Y0137929D03*
X0144924Y0135429D03*
X0162247Y0135429D03*
X0162247Y0137929D03*
X0162247Y0140429D03*
X0162247Y0142929D03*
D22*
X0135997Y0157929D03*
X0118674Y0157929D03*
D23*
X0150879Y0160803D03*
X0150879Y0151118D03*
X0161902Y0151118D03*
X0161902Y0160803D03*
D24*
X0165544Y0177929D03*
X0154127Y0177929D03*
D25*
X0177946Y0165429D03*
D26*
X0191725Y0165429D03*
D27*
X0203585Y0156679D03*
X0203585Y0150429D03*
X0203585Y0144179D03*
X0214835Y0136679D03*
X0224835Y0136679D03*
X0244835Y0142929D03*
X0248585Y0142929D03*
X0222335Y0159179D03*
X0222335Y0162929D03*
X0221085Y0175429D03*
X0237335Y0175429D03*
X0182335Y0146679D03*
X0182335Y0141679D03*
X0182335Y0136679D03*
X0182335Y0131679D03*
X0182335Y0126679D03*
X0188585Y0126679D03*
X0188585Y0110429D03*
X0208585Y0096679D03*
X0208585Y0090429D03*
X0214835Y0096679D03*
X0182335Y0076679D03*
X0178585Y0086679D03*
X0182335Y0067929D03*
X0187335Y0050429D03*
X0138585Y0096679D03*
X0117335Y0126679D03*
X0123585Y0127929D03*
X0126085Y0137304D03*
X0130460Y0137304D03*
X0137335Y0132304D03*
X0152335Y0135429D03*
X0154835Y0139179D03*
X0152335Y0142929D03*
X0144835Y0147929D03*
X0144835Y0152929D03*
X0144835Y0157929D03*
X0144835Y0162929D03*
X0137335Y0172929D03*
X0132335Y0170429D03*
X0132335Y0175429D03*
X0127335Y0154179D03*
X0127335Y0149179D03*
X0093585Y0167929D03*
X0088585Y0167929D03*
X0079210Y0160429D03*
X0067335Y0160429D03*
X0067335Y0155429D03*
X0067335Y0165429D03*
X0044835Y0167929D03*
X0044835Y0171679D03*
X0030278Y0176738D03*
X0026528Y0176738D03*
X0053585Y0141679D03*
X0083585Y0149179D03*
X0084835Y0141679D03*
X0091085Y0056679D03*
X0087335Y0054179D03*
X0074835Y0055429D03*
X0109835Y0055429D03*
X0107335Y0225429D03*
X0146085Y0225429D03*
D28*
X0034146Y0225469D03*
X0034146Y0052240D03*
X0266430Y0052240D03*
X0266430Y0225469D03*
D29*
X0174835Y0220429D02*
X0174835Y0194179D01*
X0164835Y0184179D01*
X0164835Y0177929D01*
X0165544Y0177929D01*
X0161902Y0177821D02*
X0161902Y0160803D01*
X0154127Y0177929D02*
X0154127Y0219720D01*
X0154835Y0220429D01*
X0151076Y0092742D02*
X0151085Y0092732D01*
D30*
X0151085Y0086679D01*
X0158585Y0086679D01*
X0168585Y0076679D01*
X0182335Y0076679D01*
X0178585Y0086679D02*
X0178576Y0086689D01*
X0178576Y0092742D01*
X0178576Y0095419D01*
X0181085Y0097929D01*
X0181085Y0109179D01*
X0187335Y0115429D01*
X0193585Y0115429D01*
X0201085Y0122929D01*
X0237335Y0122929D01*
X0239835Y0125429D01*
X0239835Y0129307D01*
X0240308Y0129780D01*
X0247335Y0129780D01*
X0251686Y0129780D01*
X0253585Y0131679D01*
X0253585Y0159179D01*
X0237335Y0175429D01*
X0232985Y0175429D01*
X0221085Y0175429D02*
X0216735Y0175429D01*
X0188585Y0147929D02*
X0178585Y0157929D01*
X0178585Y0164789D01*
X0177946Y0165429D01*
X0159835Y0167929D02*
X0154835Y0167929D01*
X0146085Y0176679D01*
X0146085Y0225429D01*
X0107335Y0225429D02*
X0107335Y0147329D01*
X0106085Y0146079D01*
X0098585Y0146079D01*
X0088585Y0137929D02*
X0084835Y0141679D01*
X0088585Y0137929D02*
X0088585Y0129179D01*
X0091085Y0126679D01*
X0117335Y0126679D01*
X0117335Y0142929D01*
X0120436Y0142929D01*
X0135288Y0109799D02*
X0135288Y0103382D01*
X0134835Y0102929D01*
X0134835Y0100616D01*
X0138585Y0096679D02*
X0138585Y0092752D01*
X0138576Y0092742D01*
X0138576Y0089179D01*
X0138585Y0089179D01*
X0141085Y0086679D01*
X0151085Y0086679D01*
X0147335Y0100616D02*
X0147335Y0102929D01*
X0145288Y0104976D01*
X0145288Y0109799D01*
X0175288Y0109799D02*
X0175288Y0103382D01*
X0174835Y0102929D01*
X0174835Y0100616D01*
X0184835Y0106679D02*
X0188585Y0110429D01*
X0184835Y0106679D02*
X0184835Y0091679D01*
X0186085Y0090429D01*
X0193713Y0090429D01*
X0198585Y0090429D01*
X0201085Y0087929D01*
X0201085Y0052929D01*
X0198585Y0050429D01*
X0187335Y0050429D01*
X0182335Y0046679D02*
X0182335Y0067929D01*
X0124835Y0057742D02*
X0124835Y0050252D01*
X0125288Y0049799D01*
X0114835Y0049179D02*
X0114835Y0062929D01*
X0117522Y0065616D01*
X0121095Y0065616D01*
X0109835Y0055429D02*
X0103457Y0055429D01*
X0114835Y0049179D02*
X0074835Y0049179D01*
X0068585Y0055429D01*
X0068585Y0070429D01*
X0059186Y0079829D01*
X0056085Y0079829D01*
X0042936Y0079829D01*
X0041085Y0081679D01*
X0033585Y0081679D01*
X0053585Y0141679D02*
X0049210Y0146054D01*
X0049210Y0157304D01*
X0041085Y0165429D01*
X0037267Y0165429D01*
X0029235Y0165429D01*
X0028585Y0164780D01*
X0188585Y0147929D02*
X0188585Y0126679D01*
D31*
X0172335Y0141679D02*
X0167335Y0141679D01*
X0166085Y0140429D01*
X0158585Y0140429D01*
X0158585Y0180429D01*
X0169835Y0180429D01*
X0182335Y0167929D01*
X0182335Y0156679D01*
X0172335Y0146679D01*
X0172335Y0141679D01*
X0172335Y0142050D02*
X0158585Y0142050D01*
X0158585Y0142448D02*
X0172335Y0142448D01*
X0172335Y0142847D02*
X0158585Y0142847D01*
X0158585Y0143245D02*
X0172335Y0143245D01*
X0172335Y0143644D02*
X0158585Y0143644D01*
X0158585Y0144042D02*
X0172335Y0144042D01*
X0172335Y0144441D02*
X0158585Y0144441D01*
X0158585Y0144839D02*
X0172335Y0144839D01*
X0172335Y0145238D02*
X0158585Y0145238D01*
X0158585Y0145636D02*
X0172335Y0145636D01*
X0172335Y0146035D02*
X0158585Y0146035D01*
X0158585Y0146433D02*
X0172335Y0146433D01*
X0172488Y0146832D02*
X0158585Y0146832D01*
X0158585Y0147230D02*
X0172886Y0147230D01*
X0173285Y0147629D02*
X0158585Y0147629D01*
X0158585Y0148027D02*
X0173683Y0148027D01*
X0174082Y0148426D02*
X0158585Y0148426D01*
X0158585Y0148824D02*
X0174480Y0148824D01*
X0174879Y0149223D02*
X0158585Y0149223D01*
X0158585Y0149621D02*
X0175278Y0149621D01*
X0175676Y0150020D02*
X0158585Y0150020D01*
X0158585Y0150418D02*
X0176075Y0150418D01*
X0176473Y0150817D02*
X0158585Y0150817D01*
X0158585Y0151215D02*
X0176872Y0151215D01*
X0177270Y0151614D02*
X0158585Y0151614D01*
X0158585Y0152012D02*
X0177669Y0152012D01*
X0178067Y0152411D02*
X0158585Y0152411D01*
X0158585Y0152809D02*
X0178466Y0152809D01*
X0178864Y0153208D02*
X0158585Y0153208D01*
X0158585Y0153606D02*
X0179263Y0153606D01*
X0179661Y0154005D02*
X0158585Y0154005D01*
X0158585Y0154403D02*
X0180060Y0154403D01*
X0180458Y0154802D02*
X0158585Y0154802D01*
X0158585Y0155200D02*
X0180857Y0155200D01*
X0181255Y0155599D02*
X0158585Y0155599D01*
X0158585Y0155997D02*
X0181654Y0155997D01*
X0182052Y0156396D02*
X0158585Y0156396D01*
X0158585Y0156794D02*
X0182335Y0156794D01*
X0182335Y0157193D02*
X0158585Y0157193D01*
X0158585Y0157591D02*
X0182335Y0157591D01*
X0182335Y0157990D02*
X0158585Y0157990D01*
X0158585Y0158388D02*
X0182335Y0158388D01*
X0182335Y0158787D02*
X0158585Y0158787D01*
X0158585Y0159186D02*
X0182335Y0159186D01*
X0182335Y0159584D02*
X0158585Y0159584D01*
X0158585Y0159983D02*
X0182335Y0159983D01*
X0182335Y0160381D02*
X0158585Y0160381D01*
X0158585Y0160780D02*
X0182335Y0160780D01*
X0182335Y0161178D02*
X0158585Y0161178D01*
X0158585Y0161577D02*
X0182335Y0161577D01*
X0182335Y0161975D02*
X0158585Y0161975D01*
X0158585Y0162374D02*
X0182335Y0162374D01*
X0182335Y0162772D02*
X0158585Y0162772D01*
X0158585Y0163171D02*
X0182335Y0163171D01*
X0182335Y0163569D02*
X0158585Y0163569D01*
X0158585Y0163968D02*
X0182335Y0163968D01*
X0182335Y0164366D02*
X0158585Y0164366D01*
X0158585Y0164765D02*
X0182335Y0164765D01*
X0182335Y0165163D02*
X0158585Y0165163D01*
X0158585Y0165562D02*
X0182335Y0165562D01*
X0182335Y0165960D02*
X0158585Y0165960D01*
X0158585Y0166359D02*
X0182335Y0166359D01*
X0182335Y0166757D02*
X0158585Y0166757D01*
X0158585Y0167156D02*
X0182335Y0167156D01*
X0182335Y0167554D02*
X0158585Y0167554D01*
X0158585Y0167953D02*
X0182312Y0167953D01*
X0181913Y0168351D02*
X0158585Y0168351D01*
X0158585Y0168750D02*
X0181515Y0168750D01*
X0181116Y0169148D02*
X0158585Y0169148D01*
X0158585Y0169547D02*
X0180718Y0169547D01*
X0180319Y0169945D02*
X0158585Y0169945D01*
X0158585Y0170344D02*
X0179921Y0170344D01*
X0179522Y0170742D02*
X0158585Y0170742D01*
X0158585Y0171141D02*
X0179124Y0171141D01*
X0178725Y0171539D02*
X0158585Y0171539D01*
X0158585Y0171938D02*
X0178327Y0171938D01*
X0177928Y0172336D02*
X0158585Y0172336D01*
X0158585Y0172735D02*
X0177530Y0172735D01*
X0177131Y0173133D02*
X0158585Y0173133D01*
X0158585Y0173532D02*
X0176733Y0173532D01*
X0176334Y0173930D02*
X0158585Y0173930D01*
X0158585Y0174329D02*
X0175936Y0174329D01*
X0175537Y0174727D02*
X0158585Y0174727D01*
X0158585Y0175126D02*
X0175139Y0175126D01*
X0174740Y0175524D02*
X0158585Y0175524D01*
X0158585Y0175923D02*
X0174342Y0175923D01*
X0173943Y0176321D02*
X0158585Y0176321D01*
X0158585Y0176720D02*
X0173545Y0176720D01*
X0173146Y0177119D02*
X0158585Y0177119D01*
X0158585Y0177517D02*
X0172748Y0177517D01*
X0172349Y0177916D02*
X0158585Y0177916D01*
X0158585Y0178314D02*
X0171951Y0178314D01*
X0171552Y0178713D02*
X0158585Y0178713D01*
X0158585Y0179111D02*
X0171153Y0179111D01*
X0170755Y0179510D02*
X0158585Y0179510D01*
X0158585Y0179908D02*
X0170356Y0179908D01*
X0169958Y0180307D02*
X0158585Y0180307D01*
X0141085Y0166054D02*
X0141085Y0146679D01*
X0139835Y0145429D01*
X0139835Y0141679D01*
X0140460Y0141054D01*
X0140685Y0141054D01*
X0141096Y0140643D01*
X0147960Y0140643D01*
X0147960Y0140215D01*
X0141096Y0140215D01*
X0141010Y0140129D01*
X0140468Y0140129D01*
X0140468Y0140418D01*
X0139648Y0141239D01*
X0133585Y0141239D01*
X0133585Y0147304D01*
X0131085Y0149804D01*
X0131085Y0166054D01*
X0141085Y0166054D01*
X0141085Y0165960D02*
X0131085Y0165960D01*
X0131085Y0165562D02*
X0141085Y0165562D01*
X0141085Y0165163D02*
X0131085Y0165163D01*
X0131085Y0164765D02*
X0141085Y0164765D01*
X0141085Y0164366D02*
X0131085Y0164366D01*
X0131085Y0163968D02*
X0141085Y0163968D01*
X0141085Y0163569D02*
X0131085Y0163569D01*
X0131085Y0163171D02*
X0141085Y0163171D01*
X0141085Y0162772D02*
X0131085Y0162772D01*
X0131085Y0162374D02*
X0141085Y0162374D01*
X0141085Y0161975D02*
X0131085Y0161975D01*
X0131085Y0161577D02*
X0141085Y0161577D01*
X0141085Y0161178D02*
X0131085Y0161178D01*
X0131085Y0160780D02*
X0141085Y0160780D01*
X0141085Y0160381D02*
X0131085Y0160381D01*
X0131085Y0159983D02*
X0141085Y0159983D01*
X0141085Y0159584D02*
X0131085Y0159584D01*
X0131085Y0159186D02*
X0141085Y0159186D01*
X0141085Y0158787D02*
X0131085Y0158787D01*
X0131085Y0158388D02*
X0141085Y0158388D01*
X0141085Y0157990D02*
X0131085Y0157990D01*
X0131085Y0157591D02*
X0141085Y0157591D01*
X0141085Y0157193D02*
X0131085Y0157193D01*
X0131085Y0156794D02*
X0141085Y0156794D01*
X0141085Y0156396D02*
X0131085Y0156396D01*
X0131085Y0155997D02*
X0141085Y0155997D01*
X0141085Y0155599D02*
X0131085Y0155599D01*
X0131085Y0155200D02*
X0141085Y0155200D01*
X0141085Y0154802D02*
X0131085Y0154802D01*
X0131085Y0154403D02*
X0141085Y0154403D01*
X0141085Y0154005D02*
X0131085Y0154005D01*
X0131085Y0153606D02*
X0141085Y0153606D01*
X0141085Y0153208D02*
X0131085Y0153208D01*
X0131085Y0152809D02*
X0141085Y0152809D01*
X0141085Y0152411D02*
X0131085Y0152411D01*
X0131085Y0152012D02*
X0141085Y0152012D01*
X0141085Y0151614D02*
X0131085Y0151614D01*
X0131085Y0151215D02*
X0141085Y0151215D01*
X0141085Y0150817D02*
X0131085Y0150817D01*
X0131085Y0150418D02*
X0141085Y0150418D01*
X0141085Y0150020D02*
X0131085Y0150020D01*
X0131268Y0149621D02*
X0141085Y0149621D01*
X0141085Y0149223D02*
X0131667Y0149223D01*
X0132065Y0148824D02*
X0141085Y0148824D01*
X0141085Y0148426D02*
X0132464Y0148426D01*
X0132862Y0148027D02*
X0141085Y0148027D01*
X0141085Y0147629D02*
X0133261Y0147629D01*
X0133585Y0147230D02*
X0141085Y0147230D01*
X0141085Y0146832D02*
X0133585Y0146832D01*
X0133585Y0146433D02*
X0140839Y0146433D01*
X0140441Y0146035D02*
X0133585Y0146035D01*
X0133585Y0145636D02*
X0140042Y0145636D01*
X0139835Y0145238D02*
X0133585Y0145238D01*
X0133585Y0144839D02*
X0139835Y0144839D01*
X0139835Y0144441D02*
X0133585Y0144441D01*
X0133585Y0144042D02*
X0139835Y0144042D01*
X0139835Y0143644D02*
X0133585Y0143644D01*
X0133585Y0143245D02*
X0139835Y0143245D01*
X0139835Y0142847D02*
X0133585Y0142847D01*
X0133585Y0142448D02*
X0139835Y0142448D01*
X0139835Y0142050D02*
X0133585Y0142050D01*
X0133585Y0141651D02*
X0139864Y0141651D01*
X0140262Y0141252D02*
X0133585Y0141252D01*
X0140032Y0140854D02*
X0140885Y0140854D01*
X0140431Y0140455D02*
X0147960Y0140455D01*
X0158585Y0140455D02*
X0166112Y0140455D01*
X0166510Y0140854D02*
X0158585Y0140854D01*
X0158585Y0141252D02*
X0166909Y0141252D01*
X0167307Y0141651D02*
X0158585Y0141651D01*
X0123585Y0149179D02*
X0123585Y0166679D01*
X0122335Y0167929D01*
X0122335Y0175429D01*
X0116085Y0175429D01*
X0113585Y0172929D01*
X0113585Y0142929D01*
X0116085Y0140429D01*
X0122335Y0140429D01*
X0122335Y0147929D01*
X0123585Y0149179D01*
X0123585Y0149223D02*
X0113585Y0149223D01*
X0113585Y0149621D02*
X0123585Y0149621D01*
X0123585Y0150020D02*
X0113585Y0150020D01*
X0113585Y0150418D02*
X0123585Y0150418D01*
X0123585Y0150817D02*
X0113585Y0150817D01*
X0113585Y0151215D02*
X0123585Y0151215D01*
X0123585Y0151614D02*
X0113585Y0151614D01*
X0113585Y0152012D02*
X0123585Y0152012D01*
X0123585Y0152411D02*
X0113585Y0152411D01*
X0113585Y0152809D02*
X0123585Y0152809D01*
X0123585Y0153208D02*
X0113585Y0153208D01*
X0113585Y0153606D02*
X0123585Y0153606D01*
X0123585Y0154005D02*
X0113585Y0154005D01*
X0113585Y0154403D02*
X0123585Y0154403D01*
X0123585Y0154802D02*
X0113585Y0154802D01*
X0113585Y0155200D02*
X0123585Y0155200D01*
X0123585Y0155599D02*
X0113585Y0155599D01*
X0113585Y0155997D02*
X0123585Y0155997D01*
X0123585Y0156396D02*
X0113585Y0156396D01*
X0113585Y0156794D02*
X0123585Y0156794D01*
X0123585Y0157193D02*
X0113585Y0157193D01*
X0113585Y0157591D02*
X0123585Y0157591D01*
X0123585Y0157990D02*
X0113585Y0157990D01*
X0113585Y0158388D02*
X0123585Y0158388D01*
X0123585Y0158787D02*
X0113585Y0158787D01*
X0113585Y0159186D02*
X0123585Y0159186D01*
X0123585Y0159584D02*
X0113585Y0159584D01*
X0113585Y0159983D02*
X0123585Y0159983D01*
X0123585Y0160381D02*
X0113585Y0160381D01*
X0113585Y0160780D02*
X0123585Y0160780D01*
X0123585Y0161178D02*
X0113585Y0161178D01*
X0113585Y0161577D02*
X0123585Y0161577D01*
X0123585Y0161975D02*
X0113585Y0161975D01*
X0113585Y0162374D02*
X0123585Y0162374D01*
X0123585Y0162772D02*
X0113585Y0162772D01*
X0113585Y0163171D02*
X0123585Y0163171D01*
X0123585Y0163569D02*
X0113585Y0163569D01*
X0113585Y0163968D02*
X0123585Y0163968D01*
X0123585Y0164366D02*
X0113585Y0164366D01*
X0113585Y0164765D02*
X0123585Y0164765D01*
X0123585Y0165163D02*
X0113585Y0165163D01*
X0113585Y0165562D02*
X0123585Y0165562D01*
X0123585Y0165960D02*
X0113585Y0165960D01*
X0113585Y0166359D02*
X0123585Y0166359D01*
X0123507Y0166757D02*
X0113585Y0166757D01*
X0113585Y0167156D02*
X0123109Y0167156D01*
X0122710Y0167554D02*
X0113585Y0167554D01*
X0113585Y0167953D02*
X0122335Y0167953D01*
X0122335Y0168351D02*
X0113585Y0168351D01*
X0113585Y0168750D02*
X0122335Y0168750D01*
X0122335Y0169148D02*
X0113585Y0169148D01*
X0113585Y0169547D02*
X0122335Y0169547D01*
X0122335Y0169945D02*
X0113585Y0169945D01*
X0113585Y0170344D02*
X0122335Y0170344D01*
X0122335Y0170742D02*
X0113585Y0170742D01*
X0113585Y0171141D02*
X0122335Y0171141D01*
X0122335Y0171539D02*
X0113585Y0171539D01*
X0113585Y0171938D02*
X0122335Y0171938D01*
X0122335Y0172336D02*
X0113585Y0172336D01*
X0113585Y0172735D02*
X0122335Y0172735D01*
X0122335Y0173133D02*
X0113790Y0173133D01*
X0114188Y0173532D02*
X0122335Y0173532D01*
X0122335Y0173930D02*
X0114587Y0173930D01*
X0114985Y0174329D02*
X0122335Y0174329D01*
X0122335Y0174727D02*
X0115384Y0174727D01*
X0115782Y0175126D02*
X0122335Y0175126D01*
X0123230Y0148824D02*
X0113585Y0148824D01*
X0113585Y0148426D02*
X0122832Y0148426D01*
X0122433Y0148027D02*
X0113585Y0148027D01*
X0113585Y0147629D02*
X0122335Y0147629D01*
X0122335Y0147230D02*
X0113585Y0147230D01*
X0113585Y0146832D02*
X0122335Y0146832D01*
X0122335Y0146433D02*
X0113585Y0146433D01*
X0113585Y0146035D02*
X0122335Y0146035D01*
X0122335Y0145636D02*
X0113585Y0145636D01*
X0113585Y0145238D02*
X0122335Y0145238D01*
X0122335Y0144839D02*
X0113585Y0144839D01*
X0113585Y0144441D02*
X0122335Y0144441D01*
X0122335Y0144042D02*
X0113585Y0144042D01*
X0113585Y0143644D02*
X0122335Y0143644D01*
X0122335Y0143245D02*
X0113585Y0143245D01*
X0113668Y0142847D02*
X0122335Y0142847D01*
X0122335Y0142448D02*
X0114067Y0142448D01*
X0114465Y0142050D02*
X0122335Y0142050D01*
X0122335Y0141651D02*
X0114864Y0141651D01*
X0115262Y0141252D02*
X0122335Y0141252D01*
X0122335Y0140854D02*
X0115661Y0140854D01*
X0116059Y0140455D02*
X0122335Y0140455D01*
D32*
X0114835Y0049179D02*
X0121085Y0042929D01*
X0178585Y0042929D01*
X0182335Y0046679D01*
D33*
X0175288Y0049799D02*
X0174835Y0050252D01*
X0174835Y0058530D01*
X0174835Y0064829D02*
X0174835Y0069179D01*
X0173585Y0070429D01*
X0166085Y0070429D01*
X0156085Y0080429D01*
X0138585Y0080429D01*
X0133585Y0085429D01*
X0113585Y0085429D01*
X0108585Y0090429D01*
X0103457Y0090429D01*
X0103457Y0085429D02*
X0109835Y0085429D01*
X0112335Y0082929D01*
X0132335Y0082929D01*
X0137335Y0077929D01*
X0154835Y0077929D01*
X0164835Y0067929D01*
X0164835Y0064829D01*
X0164835Y0058530D02*
X0164835Y0050252D01*
X0165288Y0049799D01*
X0155288Y0049799D02*
X0154835Y0050252D01*
X0154835Y0058530D01*
X0154835Y0064829D02*
X0154835Y0069179D01*
X0148585Y0075429D01*
X0136085Y0075429D01*
X0131085Y0080429D01*
X0103457Y0080429D01*
X0103457Y0075429D02*
X0132335Y0075429D01*
X0134835Y0072929D01*
X0141085Y0072929D01*
X0144835Y0069179D01*
X0144835Y0064829D01*
X0144835Y0058530D02*
X0144835Y0050252D01*
X0145288Y0049799D01*
X0135288Y0049799D02*
X0134678Y0050409D01*
X0134678Y0058372D01*
X0134835Y0064829D02*
X0134835Y0069179D01*
X0131085Y0072929D01*
X0111085Y0072929D01*
X0108585Y0070429D01*
X0103457Y0070429D01*
X0103457Y0065429D02*
X0098585Y0065429D01*
X0097335Y0066679D01*
X0097335Y0092929D01*
X0107335Y0102929D01*
X0107335Y0104179D01*
X0103585Y0104179D02*
X0094835Y0095429D01*
X0094835Y0064179D01*
X0098585Y0060429D01*
X0103457Y0060429D01*
X0092335Y0066679D02*
X0092335Y0097929D01*
X0102335Y0107929D01*
X0114835Y0107929D01*
X0114835Y0111679D02*
X0101085Y0111679D01*
X0089835Y0100429D01*
X0089835Y0069179D01*
X0086085Y0065429D01*
X0081213Y0065429D01*
X0076085Y0065429D01*
X0074835Y0066679D01*
X0074835Y0072929D01*
X0053585Y0094179D01*
X0053585Y0121679D01*
X0049835Y0125429D01*
X0049835Y0140429D01*
X0046085Y0144179D01*
X0046085Y0151679D01*
X0042335Y0155429D01*
X0037267Y0155429D01*
X0037267Y0150429D02*
X0042335Y0150429D01*
X0043585Y0149179D01*
X0043585Y0142929D01*
X0047335Y0139179D01*
X0047335Y0124179D01*
X0051085Y0120429D01*
X0051085Y0092929D01*
X0072335Y0071679D01*
X0072335Y0062929D01*
X0074835Y0060429D01*
X0081213Y0060429D01*
X0086085Y0060429D01*
X0092335Y0066679D01*
X0087335Y0071679D02*
X0087335Y0092929D01*
X0086085Y0094179D01*
X0072335Y0094179D01*
X0066085Y0100429D01*
X0066085Y0124179D01*
X0068585Y0126679D01*
X0068585Y0147929D01*
X0062335Y0154179D01*
X0062335Y0169179D01*
X0068585Y0175429D01*
X0074904Y0175429D01*
X0074904Y0170429D02*
X0084835Y0170429D01*
X0087335Y0172929D01*
X0087335Y0176000D01*
X0088664Y0177329D01*
X0098585Y0177329D01*
X0103585Y0186679D02*
X0103585Y0154179D01*
X0099835Y0150429D01*
X0094835Y0150429D01*
X0093585Y0149179D01*
X0093585Y0141679D01*
X0094835Y0140429D01*
X0097936Y0140429D01*
X0098585Y0139780D01*
X0098585Y0136679D01*
X0103585Y0131679D01*
X0107335Y0131679D02*
X0107335Y0135429D01*
X0106085Y0136679D01*
X0106085Y0139780D01*
X0106735Y0140429D01*
X0109835Y0140429D01*
X0111085Y0141679D01*
X0111085Y0184179D01*
X0114835Y0187929D01*
X0114835Y0220429D01*
X0094835Y0220429D02*
X0094835Y0195429D01*
X0103585Y0186679D01*
X0087335Y0190429D02*
X0082335Y0185429D01*
X0074904Y0185429D01*
X0074904Y0180429D02*
X0069835Y0180429D01*
X0068585Y0181679D01*
X0068585Y0194179D01*
X0082335Y0207929D01*
X0082335Y0229179D01*
X0087960Y0234804D01*
X0221710Y0234804D01*
X0227335Y0229179D01*
X0227335Y0199179D01*
X0262335Y0164179D01*
X0262335Y0111679D01*
X0226085Y0075429D01*
X0215957Y0075429D01*
X0215957Y0080429D02*
X0226085Y0080429D01*
X0259835Y0114179D01*
X0259835Y0162929D01*
X0224835Y0197929D01*
X0224835Y0227929D01*
X0220460Y0232304D01*
X0089210Y0232304D01*
X0084835Y0227929D01*
X0084835Y0194179D01*
X0081085Y0190429D01*
X0074904Y0190429D01*
X0087335Y0190429D02*
X0087335Y0226679D01*
X0090460Y0229804D01*
X0219210Y0229804D01*
X0222335Y0226679D01*
X0222335Y0196679D01*
X0257335Y0161679D01*
X0257335Y0116679D01*
X0226085Y0085429D01*
X0215957Y0085429D01*
X0193713Y0085429D02*
X0188585Y0085429D01*
X0186085Y0082929D01*
X0172335Y0082929D01*
X0164835Y0090429D01*
X0164835Y0093530D01*
X0171095Y0092742D02*
X0171095Y0114169D01*
X0168585Y0116679D01*
X0153585Y0116679D01*
X0152335Y0115429D01*
X0148585Y0115429D01*
X0141085Y0122929D01*
X0088585Y0122929D01*
X0084835Y0126679D01*
X0084835Y0135429D01*
X0079835Y0140429D01*
X0074904Y0140429D01*
X0074904Y0135429D02*
X0081085Y0135429D01*
X0082335Y0134179D01*
X0082335Y0125429D01*
X0087335Y0120429D01*
X0139835Y0120429D01*
X0141085Y0119179D01*
X0141085Y0105429D01*
X0143595Y0102919D01*
X0143595Y0092742D01*
X0134835Y0087929D02*
X0126085Y0087929D01*
X0124835Y0089179D01*
X0124835Y0093530D01*
X0131095Y0092742D02*
X0131095Y0116669D01*
X0129835Y0117929D01*
X0074835Y0117929D01*
X0073585Y0119179D01*
X0072335Y0119179D01*
X0072335Y0115429D02*
X0116085Y0115429D01*
X0118585Y0112929D01*
X0118585Y0089179D01*
X0124835Y0099829D02*
X0124835Y0102929D01*
X0125288Y0103382D01*
X0125288Y0109799D01*
X0146085Y0122929D02*
X0151085Y0122929D01*
X0152335Y0121679D01*
X0189835Y0121679D01*
X0214835Y0146679D01*
X0214835Y0151551D01*
X0219835Y0151551D02*
X0219835Y0155429D01*
X0217335Y0157929D01*
X0217335Y0159829D01*
X0216735Y0160429D01*
X0216735Y0167929D01*
X0210436Y0167929D02*
X0210436Y0175429D01*
X0210436Y0184829D01*
X0194835Y0200429D01*
X0194835Y0220429D01*
X0214835Y0220429D02*
X0214835Y0200429D01*
X0226686Y0188579D01*
X0226686Y0175429D01*
X0226686Y0167929D01*
X0232985Y0167929D02*
X0232985Y0160429D01*
X0232335Y0159780D01*
X0232335Y0156679D01*
X0229835Y0154179D01*
X0229835Y0151551D01*
X0224835Y0151551D02*
X0224835Y0146679D01*
X0223585Y0145429D01*
X0217335Y0145429D01*
X0191085Y0119179D01*
X0149835Y0119179D01*
X0149235Y0129179D02*
X0156686Y0129179D01*
X0162247Y0129179D02*
X0162985Y0129179D01*
X0170436Y0129179D01*
X0162247Y0129179D02*
X0162247Y0135429D01*
X0162247Y0129179D02*
X0162247Y0128667D01*
X0142936Y0129179D02*
X0139835Y0129179D01*
X0138585Y0127929D01*
X0129835Y0127929D01*
X0121085Y0136679D01*
X0121085Y0142280D01*
X0120436Y0142929D01*
X0098585Y0158530D02*
X0088664Y0158530D01*
X0087335Y0159858D01*
X0087335Y0162929D01*
X0084835Y0165429D01*
X0074904Y0165429D01*
X0059835Y0152929D02*
X0066085Y0146679D01*
X0066085Y0127929D01*
X0063585Y0125429D01*
X0063585Y0099179D01*
X0072335Y0090429D01*
X0081213Y0090429D01*
X0081213Y0085429D02*
X0073585Y0085429D01*
X0061085Y0097929D01*
X0061085Y0126679D01*
X0063585Y0129179D01*
X0063585Y0145429D01*
X0057335Y0151679D01*
X0057335Y0182929D01*
X0054835Y0185429D01*
X0037267Y0185429D01*
X0037267Y0180429D02*
X0051085Y0180429D01*
X0054835Y0176679D01*
X0054835Y0150429D01*
X0061085Y0144179D01*
X0061085Y0130429D01*
X0058585Y0127929D01*
X0058585Y0096679D01*
X0074835Y0080429D01*
X0081213Y0080429D01*
X0081213Y0075429D02*
X0076085Y0075429D01*
X0056085Y0095429D01*
X0056085Y0129179D01*
X0058585Y0131679D01*
X0058585Y0142929D01*
X0052335Y0149179D01*
X0052335Y0171679D01*
X0048585Y0175429D01*
X0037267Y0175429D01*
X0037267Y0190429D02*
X0054835Y0190429D01*
X0059835Y0185429D01*
X0059835Y0152929D01*
X0044835Y0137929D02*
X0042335Y0140429D01*
X0037267Y0140429D01*
X0037267Y0135429D02*
X0041085Y0135429D01*
X0042335Y0134179D01*
X0042335Y0120429D01*
X0043585Y0119179D01*
X0044835Y0122929D02*
X0047335Y0120429D01*
X0047335Y0115429D01*
X0041085Y0114179D02*
X0032335Y0122929D01*
X0032335Y0124179D01*
X0033585Y0125429D01*
X0037267Y0125429D01*
X0037267Y0130429D02*
X0032335Y0130429D01*
X0029835Y0127929D01*
X0029835Y0120429D01*
X0033585Y0116679D01*
X0033585Y0111679D01*
X0041085Y0114179D02*
X0041085Y0102929D01*
X0039835Y0101679D01*
X0033585Y0101679D01*
X0047335Y0094179D02*
X0047335Y0111679D01*
X0044835Y0122929D02*
X0044835Y0137929D01*
X0068585Y0122929D02*
X0068585Y0112929D01*
X0069835Y0111679D01*
X0068585Y0122929D02*
X0071085Y0125429D01*
X0074904Y0125429D01*
X0047335Y0094179D02*
X0039835Y0086679D01*
X0027335Y0086679D01*
X0024835Y0084179D01*
X0024835Y0075429D01*
X0028585Y0071679D01*
X0033585Y0071679D01*
X0041085Y0071679D01*
X0042936Y0073530D01*
X0056085Y0073530D01*
X0081213Y0070429D02*
X0086085Y0070429D01*
X0087335Y0071679D01*
X0128585Y0069179D02*
X0128585Y0065626D01*
X0128576Y0065616D01*
X0139835Y0082929D02*
X0134835Y0087929D01*
X0139835Y0082929D02*
X0157335Y0082929D01*
X0167335Y0072929D01*
X0187335Y0072929D01*
X0189835Y0075429D01*
X0193713Y0075429D01*
X0193713Y0080429D02*
X0169835Y0080429D01*
X0157335Y0092929D01*
X0157335Y0093530D01*
X0157335Y0099829D02*
X0157335Y0102929D01*
X0155288Y0104976D01*
X0155288Y0109799D01*
X0165288Y0109799D02*
X0165288Y0103382D01*
X0164835Y0102929D01*
X0164835Y0099829D01*
D34*
X0149835Y0119179D03*
X0146085Y0122929D03*
X0114835Y0111679D03*
X0114835Y0107929D03*
X0107335Y0104179D03*
X0103585Y0104179D03*
X0118585Y0089179D03*
X0128585Y0069179D03*
X0069835Y0111679D03*
X0072335Y0115429D03*
X0072335Y0119179D03*
X0047335Y0115429D03*
X0043585Y0119179D03*
X0047335Y0111679D03*
X0103585Y0131679D03*
X0107335Y0131679D03*
D35*
X0136509Y0137673D02*
X0136765Y0137929D01*
X0144924Y0137929D01*
X0144924Y0140429D02*
X0141085Y0140429D01*
X0138585Y0142929D01*
X0162247Y0137929D02*
X0166710Y0137929D01*
X0167960Y0136679D01*
X0170436Y0136679D01*
X0134835Y0100616D02*
X0134678Y0100616D01*
X0124835Y0099829D02*
X0124678Y0099829D01*
X0134835Y0058530D02*
X0134678Y0058372D01*
M02*
