%
M48
M72
T01C0.0157
T02C0.0236
T03C0.0315
T04C0.0320
T05C0.0394
T06C0.1299
%
T01
X4359Y9321
X7234Y9321
X8734Y3321
X9609Y3071
X5734Y3321
X20234Y9696
X20234Y10696
T02
X3028Y15377
X3028Y15002
X4484Y14371
X4859Y13946
X6734Y13871
X6734Y13371
X6734Y12871
X8234Y11696
X9484Y10446
X10109Y10446
X11484Y11696
X10734Y12321
X10234Y12196
X11984Y12696
X12484Y12696
X13234Y12258
X14734Y12571
X14984Y12946
X14734Y13321
X13984Y13821
X13984Y14321
X13984Y14821
X13984Y15321
X13984Y15821
X12859Y16071
X12859Y16571
X10609Y16446
X10109Y16321
X9359Y14071
X8859Y14071
X12234Y13821
X15609Y17696
X15609Y18946
X16609Y14071
X17609Y13696
X17609Y13196
X17609Y12696
X17609Y12196
X17609Y11696
X16609Y11321
X18859Y12196
X19359Y12196
X20859Y13696
X22484Y13696
X22359Y12446
X22359Y11821
X22359Y7946
X21859Y7946
X20859Y7946
X20109Y7946
X18984Y7946
X17484Y8446
X16359Y7571
X16359Y6508
X16359Y5633
X16859Y3821
X11984Y8571
X8984Y4071
X10234Y3071
X7359Y3946
X7359Y4446
X6859Y3946
X6359Y3946
X6109Y4446
X5234Y11696
T03
X17295Y15571
X18673Y15571
T04
X10560Y9817
X11560Y9817
X12560Y9817
X13560Y9817
X14560Y9817
X15560Y9817
X15560Y3817
X14560Y3817
X13560Y3817
X12560Y3817
X11560Y3817
X10560Y3817
T05
X6860Y20400
X8237Y20400
X9615Y20400
X10993Y20400
X12371Y20400
X13749Y20400
X15127Y20400
X16505Y20400
X17883Y20400
X19261Y20400
X11484Y1383
X10484Y1383
X9484Y1383
X8484Y1383
X7484Y1383
T06
X22706Y1502
X3415Y20793
X3790Y1502
X22706Y20793
M30
