%
M48
M72
T01C0.0157
T02C0.0236
T03C0.0315
T04C0.0320
T05C0.0394
T06C0.0512
T07C0.1299
%
T01
X11859Y8918
X10734Y10418
X10359Y10418
X11484Y10793
X11484Y11168
X10734Y13168
X10359Y13168
X7234Y11918
X7234Y11543
X6984Y11168
X4734Y11168
X4734Y11543
X4359Y11918
X12859Y6918
X14984Y11918
X14609Y12293
T02
X7484Y5543
X8734Y5418
X9109Y5668
X10984Y5543
X13859Y9668
X11734Y12668
X12359Y12793
X12609Y13730
X13046Y13730
X13734Y13230
X15234Y13543
X15484Y13918
X15234Y14293
X14484Y14793
X14484Y15293
X14484Y15793
X14484Y16293
X13734Y17293
X13234Y17543
X13234Y17043
X12734Y15418
X12734Y14918
X9359Y16793
X8859Y16793
X7921Y16043
X6734Y16043
X6734Y16543
X6734Y15543
X8359Y14918
X8484Y14168
X5359Y14168
X4484Y16793
X4484Y17168
X3028Y17674
X2653Y17674
X10734Y22543
X14609Y22543
X22109Y17543
X22234Y16293
X22234Y15918
X20359Y15668
X20359Y15043
X20359Y14418
X21484Y13668
X22484Y13668
X24484Y14293
X24859Y14293
X23734Y17543
X18234Y14668
X18234Y14168
X18234Y13668
X18234Y13168
X18234Y12668
X18859Y12668
X18859Y11043
X20859Y9668
X21484Y9668
X20859Y9043
X18234Y7668
X17859Y8668
X18234Y6793
X18734Y5043
T03
X17795Y16543
X19173Y16543
T04
X12529Y4980
X13529Y4980
X14529Y4980
X15529Y4980
X16529Y4980
X17529Y4980
X17529Y10980
X16529Y10980
X15529Y10980
X14529Y10980
X13529Y10980
X12529Y10980
T05
X3359Y7168
X3359Y8168
X3359Y9168
X3359Y10168
X3359Y11168
T06
X9484Y22043
X11484Y22043
X13484Y22043
X15484Y22043
X17484Y22043
X19484Y22043
X21484Y22043
X23484Y22043
T07
X26643Y5224
X26643Y22547
X3415Y22547
X3415Y5224
M30
