G75*
%MOIN*%
%OFA0B0*%
%FSLAX25Y25*%
%IPPOS*%
%LPD*%
%AMOC8*
5,1,8,0,0,1.08239X$1,22.5*
%
%ADD10C,0.01000*%
%ADD11C,0.00700*%
%ADD12C,0.00900*%
%ADD13C,0.00591*%
%ADD14C,0.00600*%
%ADD15C,0.00500*%
D10*
X0036918Y0181281D02*
X0040221Y0181281D01*
X0041322Y0182382D01*
X0040221Y0183483D01*
X0038019Y0183483D01*
X0036918Y0184584D01*
X0038019Y0185685D01*
X0041322Y0185685D01*
X0043916Y0184584D02*
X0043916Y0182382D01*
X0045017Y0181281D01*
X0047219Y0181281D01*
X0048320Y0182382D01*
X0048320Y0184584D01*
X0047219Y0185685D01*
X0045017Y0185685D01*
X0043916Y0184584D01*
X0050914Y0181281D02*
X0053116Y0181281D01*
X0052015Y0181281D02*
X0052015Y0187887D01*
X0050914Y0187887D01*
X0055579Y0184584D02*
X0055579Y0182382D01*
X0056680Y0181281D01*
X0059983Y0181281D01*
X0059983Y0187887D01*
X0059983Y0185685D02*
X0056680Y0185685D01*
X0055579Y0184584D01*
X0062577Y0184584D02*
X0062577Y0182382D01*
X0063678Y0181281D01*
X0065880Y0181281D01*
X0066981Y0183483D02*
X0062577Y0183483D01*
X0062577Y0184584D02*
X0063678Y0185685D01*
X0065880Y0185685D01*
X0066981Y0184584D01*
X0066981Y0183483D01*
X0069575Y0183483D02*
X0071777Y0185685D01*
X0072878Y0185685D01*
X0075407Y0185685D02*
X0075407Y0181281D01*
X0075407Y0185685D02*
X0078710Y0185685D01*
X0079811Y0184584D01*
X0079811Y0181281D01*
X0082405Y0182382D02*
X0082405Y0184584D01*
X0083506Y0185685D01*
X0085708Y0185685D01*
X0086808Y0184584D01*
X0086808Y0183483D01*
X0082405Y0183483D01*
X0082405Y0182382D02*
X0083506Y0181281D01*
X0085708Y0181281D01*
X0089403Y0181281D02*
X0089403Y0185685D01*
X0089403Y0183483D02*
X0091605Y0185685D01*
X0092706Y0185685D01*
X0095234Y0184584D02*
X0095234Y0182382D01*
X0096335Y0181281D01*
X0099638Y0181281D01*
X0099638Y0187887D01*
X0099638Y0185685D02*
X0096335Y0185685D01*
X0095234Y0184584D01*
X0102232Y0182382D02*
X0103333Y0182382D01*
X0103333Y0181281D01*
X0102232Y0181281D01*
X0102232Y0182382D01*
X0105731Y0182382D02*
X0106832Y0181281D01*
X0110135Y0181281D01*
X0112729Y0182382D02*
X0112729Y0184584D01*
X0113830Y0185685D01*
X0116032Y0185685D01*
X0117133Y0184584D01*
X0117133Y0182382D01*
X0116032Y0181281D01*
X0113830Y0181281D01*
X0112729Y0182382D01*
X0110135Y0185685D02*
X0106832Y0185685D01*
X0105731Y0184584D01*
X0105731Y0182382D01*
X0119727Y0181281D02*
X0119727Y0185685D01*
X0120828Y0185685D01*
X0121929Y0184584D01*
X0123030Y0185685D01*
X0124131Y0184584D01*
X0124131Y0181281D01*
X0121929Y0181281D02*
X0121929Y0184584D01*
X0069575Y0185685D02*
X0069575Y0181281D01*
D11*
X0083081Y0142862D02*
X0085951Y0138558D01*
X0087685Y0138558D02*
X0090555Y0138558D01*
X0089120Y0138558D02*
X0089120Y0142862D01*
X0087685Y0141427D01*
X0085951Y0142862D02*
X0083081Y0138558D01*
X0058235Y0132245D02*
X0058235Y0130810D01*
X0057518Y0130093D01*
X0056084Y0130093D02*
X0055366Y0131528D01*
X0055366Y0132245D01*
X0056084Y0132962D01*
X0057518Y0132962D01*
X0058235Y0132245D01*
X0056084Y0130093D02*
X0053932Y0130093D01*
X0053932Y0132962D01*
X0054649Y0128358D02*
X0053932Y0127641D01*
X0053932Y0126206D01*
X0054649Y0125489D01*
X0057518Y0125489D01*
X0058235Y0126206D01*
X0058235Y0127641D01*
X0057518Y0128358D01*
X0058235Y0123854D02*
X0058235Y0122420D01*
X0058235Y0123137D02*
X0053932Y0123137D01*
X0053932Y0122420D02*
X0053932Y0123854D01*
X0076432Y0065995D02*
X0078584Y0063843D01*
X0078584Y0066712D01*
X0080735Y0065995D02*
X0076432Y0065995D01*
X0077149Y0062108D02*
X0076432Y0061391D01*
X0076432Y0059956D01*
X0077149Y0059239D01*
X0080018Y0059239D01*
X0080735Y0059956D01*
X0080735Y0061391D01*
X0080018Y0062108D01*
X0080735Y0057604D02*
X0080735Y0056170D01*
X0080735Y0056887D02*
X0076432Y0056887D01*
X0076432Y0056170D02*
X0076432Y0057604D01*
X0140888Y0017474D02*
X0140888Y0012569D01*
X0144157Y0012569D01*
X0146044Y0013387D02*
X0146044Y0015839D01*
X0146044Y0013387D02*
X0146861Y0012569D01*
X0149313Y0012569D01*
X0149313Y0015839D01*
X0151200Y0017474D02*
X0151200Y0012569D01*
X0151200Y0014204D02*
X0153652Y0015839D01*
X0151200Y0014204D02*
X0153652Y0012569D01*
X0155497Y0013387D02*
X0156315Y0014204D01*
X0158767Y0014204D01*
X0158767Y0015021D02*
X0158767Y0012569D01*
X0156315Y0012569D01*
X0155497Y0013387D01*
X0156315Y0015839D02*
X0157949Y0015839D01*
X0158767Y0015021D01*
X0160654Y0015021D02*
X0161471Y0015839D01*
X0163923Y0015839D01*
X0163106Y0014204D02*
X0161471Y0014204D01*
X0160654Y0015021D01*
X0160654Y0012569D02*
X0163106Y0012569D01*
X0163923Y0013387D01*
X0163106Y0014204D01*
X0170967Y0015021D02*
X0172601Y0015021D01*
X0170967Y0012569D02*
X0170967Y0017474D01*
X0174236Y0017474D01*
X0176940Y0017474D02*
X0176940Y0018291D01*
X0178575Y0018291D02*
X0178575Y0017474D01*
X0178575Y0015839D02*
X0176940Y0015839D01*
X0176940Y0014204D02*
X0179392Y0014204D01*
X0179392Y0015021D02*
X0179392Y0012569D01*
X0176940Y0012569D01*
X0176123Y0013387D01*
X0176940Y0014204D01*
X0178575Y0015839D02*
X0179392Y0015021D01*
X0181279Y0015021D02*
X0182097Y0014204D01*
X0183731Y0014204D01*
X0184549Y0013387D01*
X0183731Y0012569D01*
X0181279Y0012569D01*
X0181279Y0015021D02*
X0182097Y0015839D01*
X0184549Y0015839D01*
X0186436Y0015021D02*
X0187253Y0014204D01*
X0188888Y0014204D01*
X0189705Y0013387D01*
X0188888Y0012569D01*
X0186436Y0012569D01*
X0186436Y0015021D02*
X0187253Y0015839D01*
X0189705Y0015839D01*
X0191592Y0017474D02*
X0192410Y0017474D01*
X0192410Y0012569D01*
X0193227Y0012569D02*
X0191592Y0012569D01*
X0195030Y0013387D02*
X0195030Y0015021D01*
X0195847Y0015839D01*
X0197482Y0015839D01*
X0198299Y0015021D01*
X0198299Y0014204D01*
X0195030Y0014204D01*
X0195030Y0013387D02*
X0195847Y0012569D01*
X0197482Y0012569D01*
X0200186Y0012569D02*
X0200186Y0015839D01*
X0201821Y0015839D02*
X0202638Y0015839D01*
X0201821Y0015839D02*
X0200186Y0014204D01*
X0186985Y0056170D02*
X0186985Y0057604D01*
X0186985Y0056887D02*
X0182682Y0056887D01*
X0182682Y0056170D02*
X0182682Y0057604D01*
X0183399Y0059239D02*
X0186268Y0059239D01*
X0186985Y0059956D01*
X0186985Y0061391D01*
X0186268Y0062108D01*
X0186985Y0063843D02*
X0184116Y0066712D01*
X0183399Y0066712D01*
X0182682Y0065995D01*
X0182682Y0064560D01*
X0183399Y0063843D01*
X0183399Y0062108D02*
X0182682Y0061391D01*
X0182682Y0059956D01*
X0183399Y0059239D01*
X0186985Y0063843D02*
X0186985Y0066712D01*
X0181268Y0149152D02*
X0178399Y0149152D01*
X0177682Y0149870D01*
X0177682Y0151304D01*
X0178399Y0152022D01*
X0179116Y0153756D02*
X0177682Y0155191D01*
X0181985Y0155191D01*
X0181985Y0156625D02*
X0181985Y0153756D01*
X0181268Y0152022D02*
X0181985Y0151304D01*
X0181985Y0149870D01*
X0181268Y0149152D01*
X0181268Y0158360D02*
X0181985Y0159078D01*
X0181985Y0160512D01*
X0181268Y0161229D01*
X0180551Y0161229D01*
X0179834Y0160512D01*
X0179834Y0159795D01*
X0179834Y0160512D02*
X0179116Y0161229D01*
X0178399Y0161229D01*
X0177682Y0160512D01*
X0177682Y0159078D01*
X0178399Y0158360D01*
D12*
X0229126Y0159975D02*
X0230077Y0159024D01*
X0229126Y0159975D02*
X0229126Y0161877D01*
X0230077Y0162827D01*
X0231028Y0162827D01*
X0234831Y0159024D01*
X0234831Y0162827D01*
X0233880Y0165101D02*
X0230077Y0168905D01*
X0233880Y0168905D01*
X0234831Y0167954D01*
X0234831Y0166052D01*
X0233880Y0165101D01*
X0230077Y0165101D01*
X0229126Y0166052D01*
X0229126Y0167954D01*
X0230077Y0168905D01*
X0231028Y0171179D02*
X0229126Y0173080D01*
X0234831Y0173080D01*
X0234831Y0171179D02*
X0234831Y0174982D01*
X0233880Y0177256D02*
X0234831Y0178207D01*
X0234831Y0180108D01*
X0233880Y0181059D01*
X0230077Y0181059D01*
X0229126Y0180108D01*
X0229126Y0178207D01*
X0230077Y0177256D01*
X0231028Y0177256D01*
X0231979Y0178207D01*
X0231979Y0181059D01*
X0231979Y0150673D02*
X0231979Y0146870D01*
X0232929Y0138519D02*
X0233880Y0138519D01*
X0234831Y0137568D01*
X0234831Y0134715D01*
X0229126Y0134715D01*
X0229126Y0137568D01*
X0230077Y0138519D01*
X0231028Y0138519D01*
X0231979Y0137568D01*
X0231979Y0134715D01*
X0231979Y0137568D02*
X0232929Y0138519D01*
X0231028Y0126364D02*
X0234831Y0124463D01*
X0231028Y0122561D01*
X0231979Y0120287D02*
X0232929Y0120287D01*
X0232929Y0116484D01*
X0231979Y0116484D02*
X0231028Y0117435D01*
X0231028Y0119336D01*
X0231979Y0120287D01*
X0234831Y0119336D02*
X0234831Y0117435D01*
X0233880Y0116484D01*
X0231979Y0116484D01*
X0231979Y0114210D02*
X0232929Y0113259D01*
X0232929Y0110407D01*
X0232929Y0112308D02*
X0234831Y0114210D01*
X0231979Y0114210D02*
X0230077Y0114210D01*
X0229126Y0113259D01*
X0229126Y0110407D01*
X0234831Y0110407D01*
X0231979Y0102056D02*
X0231979Y0098252D01*
X0231028Y0089963D02*
X0231028Y0089012D01*
X0232929Y0087111D01*
X0231028Y0087111D02*
X0234831Y0087111D01*
X0232929Y0084837D02*
X0232929Y0081034D01*
X0231979Y0081034D02*
X0231028Y0081984D01*
X0231028Y0083886D01*
X0231979Y0084837D01*
X0232929Y0084837D01*
X0234831Y0083886D02*
X0234831Y0081984D01*
X0233880Y0081034D01*
X0231979Y0081034D01*
X0231028Y0078884D02*
X0231028Y0076982D01*
X0230077Y0077933D02*
X0233880Y0077933D01*
X0234831Y0078884D01*
X0232929Y0074708D02*
X0232929Y0070905D01*
X0231979Y0070905D02*
X0231028Y0071856D01*
X0231028Y0073757D01*
X0231979Y0074708D01*
X0232929Y0074708D01*
X0234831Y0073757D02*
X0234831Y0071856D01*
X0233880Y0070905D01*
X0231979Y0070905D01*
X0234831Y0068631D02*
X0229126Y0068631D01*
X0231028Y0066729D01*
X0229126Y0064828D01*
X0234831Y0064828D01*
X0234831Y0056477D02*
X0229126Y0056477D01*
X0231028Y0054575D01*
X0229126Y0052673D01*
X0234831Y0052673D01*
X0231979Y0050399D02*
X0232929Y0049449D01*
X0232929Y0046596D01*
X0234831Y0046596D02*
X0229126Y0046596D01*
X0229126Y0049449D01*
X0230077Y0050399D01*
X0231979Y0050399D01*
X0231979Y0044322D02*
X0230077Y0044322D01*
X0229126Y0043371D01*
X0229126Y0040519D01*
X0234831Y0040519D01*
X0232929Y0040519D02*
X0232929Y0043371D01*
X0231979Y0044322D01*
X0232929Y0042421D02*
X0234831Y0044322D01*
D13*
X0071499Y0041880D02*
X0071499Y0082037D01*
X0085672Y0082037D01*
X0085672Y0041880D01*
X0071499Y0041880D01*
X0098930Y0048346D02*
X0098930Y0057401D01*
X0103261Y0057401D01*
X0103261Y0053071D01*
X0106410Y0053071D01*
X0106410Y0057401D01*
X0110741Y0057401D01*
X0110741Y0048346D01*
X0107198Y0048346D01*
X0107198Y0044015D01*
X0102473Y0044015D01*
X0102473Y0048346D01*
X0098930Y0048346D01*
X0111489Y0044606D02*
X0118182Y0044606D01*
X0118182Y0056811D01*
X0111489Y0056811D01*
X0111489Y0044606D01*
X0121489Y0044606D02*
X0128182Y0044606D01*
X0128182Y0056811D01*
X0121489Y0056811D01*
X0121489Y0044606D01*
X0131489Y0044606D02*
X0138182Y0044606D01*
X0138182Y0056811D01*
X0131489Y0056811D01*
X0131489Y0044606D01*
X0141489Y0044606D02*
X0148182Y0044606D01*
X0148182Y0056811D01*
X0141489Y0056811D01*
X0141489Y0044606D01*
X0151489Y0044606D02*
X0151489Y0056811D01*
X0158182Y0056811D01*
X0158182Y0044606D01*
X0151489Y0044606D01*
X0177749Y0041880D02*
X0191922Y0041880D01*
X0191922Y0082037D01*
X0177749Y0082037D01*
X0177749Y0041880D01*
X0187398Y0044635D02*
X0187400Y0044718D01*
X0187406Y0044802D01*
X0187416Y0044885D01*
X0187429Y0044967D01*
X0187447Y0045049D01*
X0187469Y0045129D01*
X0187494Y0045209D01*
X0187523Y0045287D01*
X0187555Y0045364D01*
X0187592Y0045440D01*
X0187631Y0045513D01*
X0187675Y0045584D01*
X0187721Y0045654D01*
X0187771Y0045721D01*
X0187824Y0045786D01*
X0187879Y0045848D01*
X0187938Y0045907D01*
X0188000Y0045964D01*
X0188064Y0046017D01*
X0188130Y0046068D01*
X0188199Y0046115D01*
X0188270Y0046159D01*
X0188343Y0046200D01*
X0188418Y0046237D01*
X0188494Y0046270D01*
X0188572Y0046300D01*
X0188652Y0046326D01*
X0188732Y0046349D01*
X0188813Y0046367D01*
X0188896Y0046382D01*
X0188978Y0046393D01*
X0189062Y0046400D01*
X0189145Y0046403D01*
X0189229Y0046402D01*
X0189312Y0046397D01*
X0189395Y0046388D01*
X0189478Y0046375D01*
X0189559Y0046359D01*
X0189640Y0046338D01*
X0189720Y0046314D01*
X0189799Y0046286D01*
X0189876Y0046254D01*
X0189952Y0046219D01*
X0190026Y0046180D01*
X0190098Y0046138D01*
X0190168Y0046092D01*
X0190235Y0046043D01*
X0190301Y0045991D01*
X0190363Y0045936D01*
X0190424Y0045878D01*
X0190481Y0045817D01*
X0190535Y0045754D01*
X0190586Y0045688D01*
X0190635Y0045619D01*
X0190679Y0045549D01*
X0190721Y0045476D01*
X0190759Y0045402D01*
X0190793Y0045326D01*
X0190824Y0045248D01*
X0190851Y0045169D01*
X0190875Y0045089D01*
X0190894Y0045008D01*
X0190910Y0044926D01*
X0190922Y0044843D01*
X0190930Y0044760D01*
X0190934Y0044677D01*
X0190934Y0044593D01*
X0190930Y0044510D01*
X0190922Y0044427D01*
X0190910Y0044344D01*
X0190894Y0044262D01*
X0190875Y0044181D01*
X0190851Y0044101D01*
X0190824Y0044022D01*
X0190793Y0043944D01*
X0190759Y0043868D01*
X0190721Y0043794D01*
X0190679Y0043721D01*
X0190635Y0043651D01*
X0190586Y0043582D01*
X0190535Y0043516D01*
X0190481Y0043453D01*
X0190424Y0043392D01*
X0190363Y0043334D01*
X0190301Y0043279D01*
X0190235Y0043227D01*
X0190168Y0043178D01*
X0190098Y0043132D01*
X0190026Y0043090D01*
X0189952Y0043051D01*
X0189876Y0043016D01*
X0189799Y0042984D01*
X0189720Y0042956D01*
X0189640Y0042932D01*
X0189559Y0042911D01*
X0189478Y0042895D01*
X0189395Y0042882D01*
X0189312Y0042873D01*
X0189229Y0042868D01*
X0189145Y0042867D01*
X0189062Y0042870D01*
X0188978Y0042877D01*
X0188896Y0042888D01*
X0188813Y0042903D01*
X0188732Y0042921D01*
X0188652Y0042944D01*
X0188572Y0042970D01*
X0188494Y0043000D01*
X0188418Y0043033D01*
X0188343Y0043070D01*
X0188270Y0043111D01*
X0188199Y0043155D01*
X0188130Y0043202D01*
X0188064Y0043253D01*
X0188000Y0043306D01*
X0187938Y0043363D01*
X0187879Y0043422D01*
X0187824Y0043484D01*
X0187771Y0043549D01*
X0187721Y0043616D01*
X0187675Y0043686D01*
X0187631Y0043757D01*
X0187592Y0043830D01*
X0187555Y0043906D01*
X0187523Y0043983D01*
X0187494Y0044061D01*
X0187469Y0044141D01*
X0187447Y0044221D01*
X0187429Y0044303D01*
X0187416Y0044385D01*
X0187406Y0044468D01*
X0187400Y0044552D01*
X0187398Y0044635D01*
X0161991Y0079015D02*
X0157660Y0079015D01*
X0157660Y0083346D01*
X0154511Y0083346D01*
X0154511Y0079015D01*
X0150180Y0079015D01*
X0150180Y0088071D01*
X0153723Y0088071D01*
X0153723Y0092401D01*
X0158448Y0092401D01*
X0158448Y0088071D01*
X0161991Y0088071D01*
X0161991Y0079015D01*
X0149432Y0079606D02*
X0142739Y0079606D01*
X0142739Y0091811D01*
X0149432Y0091811D01*
X0149432Y0079606D01*
X0141932Y0079606D02*
X0135239Y0079606D01*
X0135239Y0091811D01*
X0141932Y0091811D01*
X0141932Y0079606D01*
X0134491Y0079015D02*
X0130160Y0079015D01*
X0130160Y0083346D01*
X0127011Y0083346D01*
X0127011Y0079015D01*
X0122680Y0079015D01*
X0122680Y0088071D01*
X0126223Y0088071D01*
X0126223Y0092401D01*
X0130948Y0092401D01*
X0130948Y0088071D01*
X0134491Y0088071D01*
X0134491Y0079015D01*
X0121991Y0079015D02*
X0117660Y0079015D01*
X0117660Y0083346D01*
X0114511Y0083346D01*
X0114511Y0079015D01*
X0110180Y0079015D01*
X0110180Y0088071D01*
X0113723Y0088071D01*
X0113723Y0092401D01*
X0118448Y0092401D01*
X0118448Y0088071D01*
X0121991Y0088071D01*
X0121991Y0079015D01*
X0109432Y0079606D02*
X0102739Y0079606D01*
X0102739Y0091811D01*
X0109432Y0091811D01*
X0109432Y0079606D01*
X0134983Y0116112D02*
X0147188Y0116112D01*
X0147188Y0122805D01*
X0134983Y0122805D01*
X0134983Y0116112D01*
X0143467Y0123553D02*
X0143467Y0135364D01*
X0153704Y0135364D01*
X0153704Y0123553D01*
X0143467Y0123553D01*
X0148733Y0122805D02*
X0148733Y0116112D01*
X0160938Y0116112D01*
X0160938Y0122805D01*
X0148733Y0122805D01*
X0134855Y0125000D02*
X0134855Y0137204D01*
X0128162Y0137204D01*
X0128162Y0125000D01*
X0134855Y0125000D01*
X0124688Y0129862D02*
X0124688Y0136555D01*
X0112483Y0136555D01*
X0112483Y0129862D01*
X0124688Y0129862D01*
X0141942Y0137067D02*
X0141942Y0145728D01*
X0160839Y0145728D01*
X0160839Y0137067D01*
X0141942Y0137067D01*
X0141942Y0146752D02*
X0141942Y0155413D01*
X0160839Y0155413D01*
X0160839Y0146752D01*
X0141942Y0146752D01*
X0124688Y0158612D02*
X0124688Y0165305D01*
X0112483Y0165305D01*
X0112483Y0158612D01*
X0124688Y0158612D01*
X0101932Y0153061D02*
X0101932Y0140856D01*
X0095239Y0140856D01*
X0095239Y0153061D01*
X0101932Y0153061D01*
X0093635Y0153307D02*
X0081036Y0153307D01*
X0081036Y0128110D01*
X0093635Y0128110D01*
X0093635Y0153307D01*
X0095239Y0140561D02*
X0095239Y0128356D01*
X0101932Y0128356D01*
X0101932Y0140561D01*
X0095239Y0140561D01*
X0070704Y0165508D02*
X0041467Y0165508D01*
X0041467Y0096008D01*
X0070704Y0096008D01*
X0070704Y0165508D01*
X0033182Y0147313D02*
X0033182Y0135108D01*
X0026489Y0135108D01*
X0026489Y0147313D01*
X0033182Y0147313D01*
X0064811Y0099708D02*
X0064813Y0099800D01*
X0064819Y0099891D01*
X0064829Y0099982D01*
X0064843Y0100073D01*
X0064861Y0100163D01*
X0064883Y0100252D01*
X0064908Y0100339D01*
X0064938Y0100426D01*
X0064971Y0100512D01*
X0065008Y0100595D01*
X0065048Y0100678D01*
X0065092Y0100758D01*
X0065140Y0100836D01*
X0065191Y0100913D01*
X0065245Y0100986D01*
X0065302Y0101058D01*
X0065363Y0101127D01*
X0065426Y0101193D01*
X0065492Y0101256D01*
X0065561Y0101317D01*
X0065633Y0101374D01*
X0065706Y0101428D01*
X0065783Y0101479D01*
X0065861Y0101527D01*
X0065941Y0101571D01*
X0066024Y0101611D01*
X0066107Y0101648D01*
X0066193Y0101681D01*
X0066280Y0101711D01*
X0066367Y0101736D01*
X0066456Y0101758D01*
X0066546Y0101776D01*
X0066637Y0101790D01*
X0066728Y0101800D01*
X0066819Y0101806D01*
X0066911Y0101808D01*
X0067003Y0101806D01*
X0067094Y0101800D01*
X0067185Y0101790D01*
X0067276Y0101776D01*
X0067366Y0101758D01*
X0067455Y0101736D01*
X0067542Y0101711D01*
X0067629Y0101681D01*
X0067715Y0101648D01*
X0067798Y0101611D01*
X0067881Y0101571D01*
X0067961Y0101527D01*
X0068039Y0101479D01*
X0068116Y0101428D01*
X0068189Y0101374D01*
X0068261Y0101317D01*
X0068330Y0101256D01*
X0068396Y0101193D01*
X0068459Y0101127D01*
X0068520Y0101058D01*
X0068577Y0100986D01*
X0068631Y0100913D01*
X0068682Y0100836D01*
X0068730Y0100758D01*
X0068774Y0100678D01*
X0068814Y0100595D01*
X0068851Y0100512D01*
X0068884Y0100426D01*
X0068914Y0100339D01*
X0068939Y0100252D01*
X0068961Y0100163D01*
X0068979Y0100073D01*
X0068993Y0099982D01*
X0069003Y0099891D01*
X0069009Y0099800D01*
X0069011Y0099708D01*
X0069009Y0099616D01*
X0069003Y0099525D01*
X0068993Y0099434D01*
X0068979Y0099343D01*
X0068961Y0099253D01*
X0068939Y0099164D01*
X0068914Y0099077D01*
X0068884Y0098990D01*
X0068851Y0098904D01*
X0068814Y0098821D01*
X0068774Y0098738D01*
X0068730Y0098658D01*
X0068682Y0098580D01*
X0068631Y0098503D01*
X0068577Y0098430D01*
X0068520Y0098358D01*
X0068459Y0098289D01*
X0068396Y0098223D01*
X0068330Y0098160D01*
X0068261Y0098099D01*
X0068189Y0098042D01*
X0068116Y0097988D01*
X0068039Y0097937D01*
X0067961Y0097889D01*
X0067881Y0097845D01*
X0067798Y0097805D01*
X0067715Y0097768D01*
X0067629Y0097735D01*
X0067542Y0097705D01*
X0067455Y0097680D01*
X0067366Y0097658D01*
X0067276Y0097640D01*
X0067185Y0097626D01*
X0067094Y0097616D01*
X0067003Y0097610D01*
X0066911Y0097608D01*
X0066819Y0097610D01*
X0066728Y0097616D01*
X0066637Y0097626D01*
X0066546Y0097640D01*
X0066456Y0097658D01*
X0066367Y0097680D01*
X0066280Y0097705D01*
X0066193Y0097735D01*
X0066107Y0097768D01*
X0066024Y0097805D01*
X0065941Y0097845D01*
X0065861Y0097889D01*
X0065783Y0097937D01*
X0065706Y0097988D01*
X0065633Y0098042D01*
X0065561Y0098099D01*
X0065492Y0098160D01*
X0065426Y0098223D01*
X0065363Y0098289D01*
X0065302Y0098358D01*
X0065245Y0098430D01*
X0065191Y0098503D01*
X0065140Y0098580D01*
X0065092Y0098658D01*
X0065048Y0098738D01*
X0065008Y0098821D01*
X0064971Y0098904D01*
X0064938Y0098990D01*
X0064908Y0099077D01*
X0064883Y0099164D01*
X0064861Y0099253D01*
X0064843Y0099343D01*
X0064829Y0099434D01*
X0064819Y0099525D01*
X0064813Y0099616D01*
X0064811Y0099708D01*
X0072487Y0079281D02*
X0072489Y0079364D01*
X0072495Y0079448D01*
X0072505Y0079531D01*
X0072518Y0079613D01*
X0072536Y0079695D01*
X0072558Y0079775D01*
X0072583Y0079855D01*
X0072612Y0079933D01*
X0072644Y0080010D01*
X0072681Y0080086D01*
X0072720Y0080159D01*
X0072764Y0080230D01*
X0072810Y0080300D01*
X0072860Y0080367D01*
X0072913Y0080432D01*
X0072968Y0080494D01*
X0073027Y0080553D01*
X0073089Y0080610D01*
X0073153Y0080663D01*
X0073219Y0080714D01*
X0073288Y0080761D01*
X0073359Y0080805D01*
X0073432Y0080846D01*
X0073507Y0080883D01*
X0073583Y0080916D01*
X0073661Y0080946D01*
X0073741Y0080972D01*
X0073821Y0080995D01*
X0073902Y0081013D01*
X0073985Y0081028D01*
X0074067Y0081039D01*
X0074151Y0081046D01*
X0074234Y0081049D01*
X0074318Y0081048D01*
X0074401Y0081043D01*
X0074484Y0081034D01*
X0074567Y0081021D01*
X0074648Y0081005D01*
X0074729Y0080984D01*
X0074809Y0080960D01*
X0074888Y0080932D01*
X0074965Y0080900D01*
X0075041Y0080865D01*
X0075115Y0080826D01*
X0075187Y0080784D01*
X0075257Y0080738D01*
X0075324Y0080689D01*
X0075390Y0080637D01*
X0075452Y0080582D01*
X0075513Y0080524D01*
X0075570Y0080463D01*
X0075624Y0080400D01*
X0075675Y0080334D01*
X0075724Y0080265D01*
X0075768Y0080195D01*
X0075810Y0080122D01*
X0075848Y0080048D01*
X0075882Y0079972D01*
X0075913Y0079894D01*
X0075940Y0079815D01*
X0075964Y0079735D01*
X0075983Y0079654D01*
X0075999Y0079572D01*
X0076011Y0079489D01*
X0076019Y0079406D01*
X0076023Y0079323D01*
X0076023Y0079239D01*
X0076019Y0079156D01*
X0076011Y0079073D01*
X0075999Y0078990D01*
X0075983Y0078908D01*
X0075964Y0078827D01*
X0075940Y0078747D01*
X0075913Y0078668D01*
X0075882Y0078590D01*
X0075848Y0078514D01*
X0075810Y0078440D01*
X0075768Y0078367D01*
X0075724Y0078297D01*
X0075675Y0078228D01*
X0075624Y0078162D01*
X0075570Y0078099D01*
X0075513Y0078038D01*
X0075452Y0077980D01*
X0075390Y0077925D01*
X0075324Y0077873D01*
X0075257Y0077824D01*
X0075187Y0077778D01*
X0075115Y0077736D01*
X0075041Y0077697D01*
X0074965Y0077662D01*
X0074888Y0077630D01*
X0074809Y0077602D01*
X0074729Y0077578D01*
X0074648Y0077557D01*
X0074567Y0077541D01*
X0074484Y0077528D01*
X0074401Y0077519D01*
X0074318Y0077514D01*
X0074234Y0077513D01*
X0074151Y0077516D01*
X0074067Y0077523D01*
X0073985Y0077534D01*
X0073902Y0077549D01*
X0073821Y0077567D01*
X0073741Y0077590D01*
X0073661Y0077616D01*
X0073583Y0077646D01*
X0073507Y0077679D01*
X0073432Y0077716D01*
X0073359Y0077757D01*
X0073288Y0077801D01*
X0073219Y0077848D01*
X0073153Y0077899D01*
X0073089Y0077952D01*
X0073027Y0078009D01*
X0072968Y0078068D01*
X0072913Y0078130D01*
X0072860Y0078195D01*
X0072810Y0078262D01*
X0072764Y0078332D01*
X0072720Y0078403D01*
X0072681Y0078476D01*
X0072644Y0078552D01*
X0072612Y0078629D01*
X0072583Y0078707D01*
X0072558Y0078787D01*
X0072536Y0078867D01*
X0072518Y0078949D01*
X0072505Y0079031D01*
X0072495Y0079114D01*
X0072489Y0079198D01*
X0072487Y0079281D01*
X0121489Y0019936D02*
X0121489Y0007731D01*
X0128182Y0007731D01*
X0128182Y0019936D01*
X0121489Y0019936D01*
X0185111Y0095462D02*
X0185111Y0108454D01*
X0219560Y0108454D01*
X0219560Y0095462D01*
X0185111Y0095462D01*
X0174688Y0116112D02*
X0174688Y0122805D01*
X0162483Y0122805D01*
X0162483Y0116112D01*
X0174688Y0116112D01*
X0174688Y0123612D02*
X0174688Y0130305D01*
X0162483Y0130305D01*
X0162483Y0123612D01*
X0174688Y0123612D01*
X0174688Y0131112D02*
X0174688Y0137805D01*
X0162483Y0137805D01*
X0162483Y0131112D01*
X0174688Y0131112D01*
X0196233Y0132805D02*
X0196233Y0126112D01*
X0208438Y0126112D01*
X0208438Y0132805D01*
X0196233Y0132805D01*
X0196233Y0133612D02*
X0208438Y0133612D01*
X0208438Y0140305D01*
X0196233Y0140305D01*
X0196233Y0133612D01*
X0196233Y0125305D02*
X0196233Y0118612D01*
X0208438Y0118612D01*
X0208438Y0125305D01*
X0196233Y0125305D01*
X0209983Y0125305D02*
X0209983Y0118612D01*
X0222188Y0118612D01*
X0222188Y0125305D01*
X0209983Y0125305D01*
X0209983Y0126112D02*
X0222188Y0126112D01*
X0222188Y0132805D01*
X0209983Y0132805D01*
X0209983Y0126112D01*
X0209983Y0133612D02*
X0209983Y0140305D01*
X0222188Y0140305D01*
X0222188Y0133612D01*
X0209983Y0133612D01*
X0214942Y0106073D02*
X0214944Y0106156D01*
X0214950Y0106240D01*
X0214960Y0106323D01*
X0214973Y0106405D01*
X0214991Y0106487D01*
X0215013Y0106567D01*
X0215038Y0106647D01*
X0215067Y0106725D01*
X0215099Y0106802D01*
X0215136Y0106878D01*
X0215175Y0106951D01*
X0215219Y0107022D01*
X0215265Y0107092D01*
X0215315Y0107159D01*
X0215368Y0107224D01*
X0215423Y0107286D01*
X0215482Y0107345D01*
X0215544Y0107402D01*
X0215608Y0107455D01*
X0215674Y0107506D01*
X0215743Y0107553D01*
X0215814Y0107597D01*
X0215887Y0107638D01*
X0215962Y0107675D01*
X0216038Y0107708D01*
X0216116Y0107738D01*
X0216196Y0107764D01*
X0216276Y0107787D01*
X0216357Y0107805D01*
X0216440Y0107820D01*
X0216522Y0107831D01*
X0216606Y0107838D01*
X0216689Y0107841D01*
X0216773Y0107840D01*
X0216856Y0107835D01*
X0216939Y0107826D01*
X0217022Y0107813D01*
X0217103Y0107797D01*
X0217184Y0107776D01*
X0217264Y0107752D01*
X0217343Y0107724D01*
X0217420Y0107692D01*
X0217496Y0107657D01*
X0217570Y0107618D01*
X0217642Y0107576D01*
X0217712Y0107530D01*
X0217779Y0107481D01*
X0217845Y0107429D01*
X0217907Y0107374D01*
X0217968Y0107316D01*
X0218025Y0107255D01*
X0218079Y0107192D01*
X0218130Y0107126D01*
X0218179Y0107057D01*
X0218223Y0106987D01*
X0218265Y0106914D01*
X0218303Y0106840D01*
X0218337Y0106764D01*
X0218368Y0106686D01*
X0218395Y0106607D01*
X0218419Y0106527D01*
X0218438Y0106446D01*
X0218454Y0106364D01*
X0218466Y0106281D01*
X0218474Y0106198D01*
X0218478Y0106115D01*
X0218478Y0106031D01*
X0218474Y0105948D01*
X0218466Y0105865D01*
X0218454Y0105782D01*
X0218438Y0105700D01*
X0218419Y0105619D01*
X0218395Y0105539D01*
X0218368Y0105460D01*
X0218337Y0105382D01*
X0218303Y0105306D01*
X0218265Y0105232D01*
X0218223Y0105159D01*
X0218179Y0105089D01*
X0218130Y0105020D01*
X0218079Y0104954D01*
X0218025Y0104891D01*
X0217968Y0104830D01*
X0217907Y0104772D01*
X0217845Y0104717D01*
X0217779Y0104665D01*
X0217712Y0104616D01*
X0217642Y0104570D01*
X0217570Y0104528D01*
X0217496Y0104489D01*
X0217420Y0104454D01*
X0217343Y0104422D01*
X0217264Y0104394D01*
X0217184Y0104370D01*
X0217103Y0104349D01*
X0217022Y0104333D01*
X0216939Y0104320D01*
X0216856Y0104311D01*
X0216773Y0104306D01*
X0216689Y0104305D01*
X0216606Y0104308D01*
X0216522Y0104315D01*
X0216440Y0104326D01*
X0216357Y0104341D01*
X0216276Y0104359D01*
X0216196Y0104382D01*
X0216116Y0104408D01*
X0216038Y0104438D01*
X0215962Y0104471D01*
X0215887Y0104508D01*
X0215814Y0104549D01*
X0215743Y0104593D01*
X0215674Y0104640D01*
X0215608Y0104691D01*
X0215544Y0104744D01*
X0215482Y0104801D01*
X0215423Y0104860D01*
X0215368Y0104922D01*
X0215315Y0104987D01*
X0215265Y0105054D01*
X0215219Y0105124D01*
X0215175Y0105195D01*
X0215136Y0105268D01*
X0215099Y0105344D01*
X0215067Y0105421D01*
X0215038Y0105499D01*
X0215013Y0105579D01*
X0214991Y0105659D01*
X0214973Y0105741D01*
X0214960Y0105823D01*
X0214950Y0105906D01*
X0214944Y0105990D01*
X0214942Y0106073D01*
X0220239Y0094311D02*
X0220239Y0082106D01*
X0226932Y0082106D01*
X0226932Y0094311D01*
X0220239Y0094311D01*
X0164087Y0155708D02*
X0164092Y0156094D01*
X0164106Y0156481D01*
X0164130Y0156866D01*
X0164163Y0157252D01*
X0164205Y0157636D01*
X0164257Y0158019D01*
X0164319Y0158400D01*
X0164390Y0158780D01*
X0164470Y0159158D01*
X0164559Y0159534D01*
X0164657Y0159908D01*
X0164765Y0160279D01*
X0164882Y0160648D01*
X0165008Y0161013D01*
X0165142Y0161376D01*
X0165286Y0161734D01*
X0165438Y0162090D01*
X0165599Y0162441D01*
X0165769Y0162788D01*
X0165947Y0163132D01*
X0166133Y0163470D01*
X0166327Y0163804D01*
X0166530Y0164133D01*
X0166741Y0164457D01*
X0166960Y0164776D01*
X0167186Y0165089D01*
X0167420Y0165397D01*
X0167662Y0165698D01*
X0167910Y0165994D01*
X0168167Y0166284D01*
X0168430Y0166567D01*
X0168699Y0166844D01*
X0168976Y0167113D01*
X0169259Y0167376D01*
X0169549Y0167633D01*
X0169845Y0167881D01*
X0170146Y0168123D01*
X0170454Y0168357D01*
X0170767Y0168583D01*
X0171086Y0168802D01*
X0171410Y0169013D01*
X0171739Y0169216D01*
X0172073Y0169410D01*
X0172411Y0169596D01*
X0172755Y0169774D01*
X0173102Y0169944D01*
X0173453Y0170105D01*
X0173809Y0170257D01*
X0174167Y0170401D01*
X0174530Y0170535D01*
X0174895Y0170661D01*
X0175264Y0170778D01*
X0175635Y0170886D01*
X0176009Y0170984D01*
X0176385Y0171073D01*
X0176763Y0171153D01*
X0177143Y0171224D01*
X0177524Y0171286D01*
X0177907Y0171338D01*
X0178291Y0171380D01*
X0178677Y0171413D01*
X0179062Y0171437D01*
X0179449Y0171451D01*
X0179835Y0171456D01*
X0180221Y0171451D01*
X0180608Y0171437D01*
X0180993Y0171413D01*
X0181379Y0171380D01*
X0181763Y0171338D01*
X0182146Y0171286D01*
X0182527Y0171224D01*
X0182907Y0171153D01*
X0183285Y0171073D01*
X0183661Y0170984D01*
X0184035Y0170886D01*
X0184406Y0170778D01*
X0184775Y0170661D01*
X0185140Y0170535D01*
X0185503Y0170401D01*
X0185861Y0170257D01*
X0186217Y0170105D01*
X0186568Y0169944D01*
X0186915Y0169774D01*
X0187259Y0169596D01*
X0187597Y0169410D01*
X0187931Y0169216D01*
X0188260Y0169013D01*
X0188584Y0168802D01*
X0188903Y0168583D01*
X0189216Y0168357D01*
X0189524Y0168123D01*
X0189825Y0167881D01*
X0190121Y0167633D01*
X0190411Y0167376D01*
X0190694Y0167113D01*
X0190971Y0166844D01*
X0191240Y0166567D01*
X0191503Y0166284D01*
X0191760Y0165994D01*
X0192008Y0165698D01*
X0192250Y0165397D01*
X0192484Y0165089D01*
X0192710Y0164776D01*
X0192929Y0164457D01*
X0193140Y0164133D01*
X0193343Y0163804D01*
X0193537Y0163470D01*
X0193723Y0163132D01*
X0193901Y0162788D01*
X0194071Y0162441D01*
X0194232Y0162090D01*
X0194384Y0161734D01*
X0194528Y0161376D01*
X0194662Y0161013D01*
X0194788Y0160648D01*
X0194905Y0160279D01*
X0195013Y0159908D01*
X0195111Y0159534D01*
X0195200Y0159158D01*
X0195280Y0158780D01*
X0195351Y0158400D01*
X0195413Y0158019D01*
X0195465Y0157636D01*
X0195507Y0157252D01*
X0195540Y0156866D01*
X0195564Y0156481D01*
X0195578Y0156094D01*
X0195583Y0155708D01*
X0195578Y0155322D01*
X0195564Y0154935D01*
X0195540Y0154550D01*
X0195507Y0154164D01*
X0195465Y0153780D01*
X0195413Y0153397D01*
X0195351Y0153016D01*
X0195280Y0152636D01*
X0195200Y0152258D01*
X0195111Y0151882D01*
X0195013Y0151508D01*
X0194905Y0151137D01*
X0194788Y0150768D01*
X0194662Y0150403D01*
X0194528Y0150040D01*
X0194384Y0149682D01*
X0194232Y0149326D01*
X0194071Y0148975D01*
X0193901Y0148628D01*
X0193723Y0148284D01*
X0193537Y0147946D01*
X0193343Y0147612D01*
X0193140Y0147283D01*
X0192929Y0146959D01*
X0192710Y0146640D01*
X0192484Y0146327D01*
X0192250Y0146019D01*
X0192008Y0145718D01*
X0191760Y0145422D01*
X0191503Y0145132D01*
X0191240Y0144849D01*
X0190971Y0144572D01*
X0190694Y0144303D01*
X0190411Y0144040D01*
X0190121Y0143783D01*
X0189825Y0143535D01*
X0189524Y0143293D01*
X0189216Y0143059D01*
X0188903Y0142833D01*
X0188584Y0142614D01*
X0188260Y0142403D01*
X0187931Y0142200D01*
X0187597Y0142006D01*
X0187259Y0141820D01*
X0186915Y0141642D01*
X0186568Y0141472D01*
X0186217Y0141311D01*
X0185861Y0141159D01*
X0185503Y0141015D01*
X0185140Y0140881D01*
X0184775Y0140755D01*
X0184406Y0140638D01*
X0184035Y0140530D01*
X0183661Y0140432D01*
X0183285Y0140343D01*
X0182907Y0140263D01*
X0182527Y0140192D01*
X0182146Y0140130D01*
X0181763Y0140078D01*
X0181379Y0140036D01*
X0180993Y0140003D01*
X0180608Y0139979D01*
X0180221Y0139965D01*
X0179835Y0139960D01*
X0179449Y0139965D01*
X0179062Y0139979D01*
X0178677Y0140003D01*
X0178291Y0140036D01*
X0177907Y0140078D01*
X0177524Y0140130D01*
X0177143Y0140192D01*
X0176763Y0140263D01*
X0176385Y0140343D01*
X0176009Y0140432D01*
X0175635Y0140530D01*
X0175264Y0140638D01*
X0174895Y0140755D01*
X0174530Y0140881D01*
X0174167Y0141015D01*
X0173809Y0141159D01*
X0173453Y0141311D01*
X0173102Y0141472D01*
X0172755Y0141642D01*
X0172411Y0141820D01*
X0172073Y0142006D01*
X0171739Y0142200D01*
X0171410Y0142403D01*
X0171086Y0142614D01*
X0170767Y0142833D01*
X0170454Y0143059D01*
X0170146Y0143293D01*
X0169845Y0143535D01*
X0169549Y0143783D01*
X0169259Y0144040D01*
X0168976Y0144303D01*
X0168699Y0144572D01*
X0168430Y0144849D01*
X0168167Y0145132D01*
X0167910Y0145422D01*
X0167662Y0145718D01*
X0167420Y0146019D01*
X0167186Y0146327D01*
X0166960Y0146640D01*
X0166741Y0146959D01*
X0166530Y0147283D01*
X0166327Y0147612D01*
X0166133Y0147946D01*
X0165947Y0148284D01*
X0165769Y0148628D01*
X0165599Y0148975D01*
X0165438Y0149326D01*
X0165286Y0149682D01*
X0165142Y0150040D01*
X0165008Y0150403D01*
X0164882Y0150768D01*
X0164765Y0151137D01*
X0164657Y0151508D01*
X0164559Y0151882D01*
X0164470Y0152258D01*
X0164390Y0152636D01*
X0164319Y0153016D01*
X0164257Y0153397D01*
X0164205Y0153780D01*
X0164163Y0154164D01*
X0164130Y0154550D01*
X0164106Y0154935D01*
X0164092Y0155322D01*
X0164087Y0155708D01*
X0164910Y0155590D02*
X0167910Y0155590D01*
X0166410Y0157090D02*
X0166410Y0154090D01*
X0153497Y0186309D02*
X0146410Y0186309D01*
X0146410Y0189458D01*
X0143261Y0186309D01*
X0143261Y0192608D01*
X0146410Y0189458D01*
X0146410Y0192608D01*
X0153497Y0192608D01*
X0153497Y0186309D01*
X0146410Y0186309D02*
X0143261Y0186309D01*
X0136174Y0186309D01*
X0136174Y0192608D01*
X0143261Y0192608D01*
X0146410Y0192608D01*
D14*
X0196497Y0104162D02*
X0197965Y0104162D01*
X0197231Y0104162D02*
X0197231Y0099758D01*
X0196497Y0099758D02*
X0197965Y0099758D01*
X0199566Y0100492D02*
X0199566Y0103428D01*
X0200300Y0104162D01*
X0201768Y0104162D01*
X0202502Y0103428D01*
X0204170Y0103428D02*
X0204904Y0104162D01*
X0206372Y0104162D01*
X0207106Y0103428D01*
X0207106Y0102694D01*
X0206372Y0101960D01*
X0207106Y0101226D01*
X0207106Y0100492D01*
X0206372Y0099758D01*
X0204904Y0099758D01*
X0204170Y0100492D01*
X0202502Y0100492D02*
X0201768Y0099758D01*
X0200300Y0099758D01*
X0199566Y0100492D01*
X0205638Y0101960D02*
X0206372Y0101960D01*
X0161685Y0087915D02*
X0158576Y0087915D01*
X0134185Y0087915D02*
X0131076Y0087915D01*
X0121685Y0087915D02*
X0118576Y0087915D01*
X0102345Y0048502D02*
X0099235Y0048502D01*
D15*
X0116824Y0140334D02*
X0114461Y0142697D01*
X0114461Y0153720D01*
X0116824Y0156082D01*
X0127847Y0156082D01*
X0130209Y0153720D01*
X0130209Y0142697D01*
X0127847Y0140334D01*
X0116824Y0140334D01*
M02*
